<?xml version="1.0" encoding="UTF-8" standalone="no"?>
<svg
   xmlns:dc="http://purl.org/dc/elements/1.1/"
   xmlns:cc="http://creativecommons.org/ns#"
   xmlns:rdf="http://www.w3.org/1999/02/22-rdf-syntax-ns#"
   xmlns:svg="http://www.w3.org/2000/svg"
   xmlns="http://www.w3.org/2000/svg"
   xmlns:sodipodi="http://sodipodi.sourceforge.net/DTD/sodipodi-0.dtd"
   xmlns:inkscape="http://www.inkscape.org/namespaces/inkscape"
   width="54px"
   height="54px"
   viewBox="0 0 54 54"
   version="1.1"
   id="svg13"
   sodipodi:docname="logo-mobile.svg"
   inkscape:version="0.92.3 (2405546, 2018-03-11)"
   inkscape:export-filename="C:\Users\Lauren\Desktop\Green Analytics\ga_website\images\favicon.png"
   inkscape:export-xdpi="300"
   inkscape:export-ydpi="300">
  <metadata
     id="metadata17">
    <rdf:RDF>
      <cc:Work
         rdf:about="">
        <dc:format>image/svg+xml</dc:format>
        <dc:type
           rdf:resource="http://purl.org/dc/dcmitype/StillImage" />
      </cc:Work>
    </rdf:RDF>
  </metadata>
  <sodipodi:namedview
     pagecolor="#ffffff"
     bordercolor="#666666"
     borderopacity="1"
     objecttolerance="10"
     gridtolerance="10"
     guidetolerance="10"
     inkscape:pageopacity="0"
     inkscape:pageshadow="2"
     inkscape:window-width="1366"
     inkscape:window-height="745"
     id="namedview15"
     showgrid="false"
     inkscape:zoom="4.3703704"
     inkscape:cx="27"
     inkscape:cy="27"
     inkscape:window-x="-8"
     inkscape:window-y="-8"
     inkscape:window-maximized="1"
     inkscape:current-layer="svg13" />
  <!-- Generator: Sketch 51.3 (57544) - http://www.bohemiancoding.com/sketch -->
  <title
     id="title2">logo-mobile</title>
  <desc
     id="desc4">Created with Sketch.</desc>
  <defs
     id="defs6" />
  <path
     inkscape:connector-curvature="0"
     d="m 25.527057,29.496428 c 3.219271,-5.125444 8.5701,-9.7363 12.818356,-11.5591 -4.2042,3.258451 -8.6093,8.8151 -12.102975,14.0091 h -0.09247 C 23.977864,26.279309 18.708825,17.785776 14.099807,13.468249 c 3.394048,1.83701 7.480991,6.086118 9.744786,10.604742 C 27.380698,9.8307487 5.4076272,6.2853684 5.4076272,6.2853684 8.9525325,11.277832 7.5876372,16.59834 10.083742,22.083561 c 2.15747,4.740956 6.55228,5.913619 10.981993,4.94704 a 24.428377,24.428377 0 0 1 1.725589,3.730718 13.564974,13.564974 0 0 1 0.95697,5.03207 v 3.303374 c -9.708963,0.228458 -17.2917581,2.167672 -17.2917581,4.526365 0,2.512416 8.6028721,4.549131 19.2150321,4.549131 10.61216,0 19.215037,-2.036715 19.215037,-4.549131 0,-2.358693 -7.582799,-4.297907 -17.291762,-4.526365 v -5.35937 a 0.5223008,0.5223008 0 0 1 0.677577,-0.501814 c 5.207029,1.703456 8.628488,-0.50005 11.789728,-5.968734 3.6113,-6.2475 4.64838,-11.382573 9.44548,-16.934312 0,0 -26.499239,1.881586 -23.980571,19.163895 z"
     id="path4"
     style="fill:#00b500;fill-opacity:1;stroke-width:0.48999998" />
</svg>
