<?xml version="1.0" encoding="UTF-8"?>
<!-- Created with Inkscape (http://www.inkscape.org/) -->
<svg width="46.142" height="43" version="1.1" viewBox="0 0 46.142 43" xmlns="http://www.w3.org/2000/svg" xmlns:cc="http://creativecommons.org/ns#" xmlns:dc="http://purl.org/dc/elements/1.1/" xmlns:rdf="http://www.w3.org/1999/02/22-rdf-syntax-ns#">
 <metadata>
  <rdf:RDF>
   <cc:Work rdf:about="">
    <dc:format>image/svg+xml</dc:format>
    <dc:type rdf:resource="http://purl.org/dc/dcmitype/StillImage"/>
    <dc:title/>
   </cc:Work>
  </rdf:RDF>
 </metadata>
 <g stroke-width=".065449">
  <path d="m-4e-7 21.677v-21.5h46.142v43h-46.142z" fill="#fefefe"/>
  <path d="m21.729 42.804c-5.3742-.25909-10.766-2.7334-14.517-6.6619-3.3292-3.487-5.3739-7.8222-5.9391-12.592-.12032-1.0154-.18987-3.2075-.11445-3.6072.042957-.22767.084132-.29452.18141-.29452.11389 0 .13662.09665.23938 1.018.47658 4.2729 2.2485 8.3137 5.081 11.587.32421.37466.78584.87264 1.0258 1.1066l.43636.42542-.60927-.91629c-1.5779-2.3731-2.5705-4.9736-2.9725-7.7884-.14095-.98681-.1699-3.5782-.041421-3.7073.14004-.14075.20464.01433.2769.66478.451 4.0598 2.1754 7.8081 4.9075 10.667.51242.53626.519.51956.064452-.16362-1.6591-2.4936-2.6145-5.6518-2.6145-8.6425 0-.84079.043939-1.0767.20052-1.0767.092593 0 .12715.06839.1571.31088.28644 2.3191.73448 3.9097 1.5698 5.573.61382 1.2222 1.5802 2.6304 2.3848 3.4753l.40515.42542-.32468-.53107c-1.2828-2.0982-1.9235-4.2087-2.0165-6.6426-.041173-1.0775-.011302-1.3674.14087-1.3674.13736 0 .15413.052.23416.72582.29487 2.4827 1.3419 4.8857 3.0035 6.8935.19541.23612.36646.41815.38011.4045.01365-.01365-.06456-.17007-.17379-.34759-.31718-.51548-.8284-1.6363-1.0459-2.2931-.27043-.81667-.44343-1.7065-.53462-2.7497-.09226-1.0555-.04541-1.5862.14003-1.5862.0694 0 .12619.01492.12619.03316 0 .16073.22634 1.4836.32469 1.8976.7461 3.141 2.9215 5.8611 5.8602 7.3274 1.5645.78063 2.7328 1.0731 4.5111 1.1294 1.1482.03633 2.4166-.05564 2.494-.18083.01832-.02963-.11311-.32815-.29206-.66338-1.2738-2.3863-2.2509-5.8433-2.3423-8.2871l-.037456-1.0018-.30893-.40535c-.16991-.22294-.64872-.86321-1.064-1.4228-.4153-.5596-.88482-1.1607-1.0434-1.3359l-.28828-.31841-.62207.37122c-.70493.42067-1.5097.76573-2.2613.9696-.75238.20408-2.1258.20645-2.9211.0051-1.1245-.28481-2.2341-.92679-3.2304-1.8691-.9874-.93389-1.93-2.2863-2.376-3.4091-.113-.28447-.33829-.72257-.50065-.97355-.40712-.62934-1.4679-1.7002-2.2895-2.3113-.43252-.3217-.67895-.54776-.66714-.612.047181-.25672 1.8484-.94382 3.1879-1.2161 1.1955-.243 2.0954-.31282 3.5588-.27612 1.0506.02635 1.506.06822 2.2162.20378 2.2105.42192 3.8697 1.2276 5.03 2.4425.78637.82337 1.2009 1.5765 1.4095 2.5606.13766.64953.12059 1.7968-.03834 2.5767l-.13335.65436.31308.27221c.1722.14971.68899.61827 1.1484 1.0412.45944.42296.86032.76902.89086.76902.03053 0 .07605-.33134.10114-.7363.09219-1.4878.36296-3.0108.70177-3.9472l.19109-.52811-.54382-.55213c-.8356-.84838-1.4635-1.823-1.7731-2.7522-.36943-1.1087-.40432-2.7278-.08462-3.9271.50872-1.9083 1.6536-3.757 3.4451-5.5626 1.5266-1.5387 3.0415-2.6257 5.0069-3.5928 1.7639-.86796 2.6037-1.1335 4.0628-1.2845.39224-.040591.39866-.038593.47298.14723.04144.10361.13362.60071.20484 1.1047.68044 4.8143.21994 9.2274-1.274 12.209-.69832 1.3938-1.8856 2.7759-3.0497 3.5499-1.0482.697-2.5173 1.2658-3.8339 1.4846-.33825.0562-.48093.10927-.50399.18746-.01769.05999-.10507.49195-.19418.95991-.37851 1.9878-.5319 4.0562-.4781 6.4467.05226 2.3218.2634 3.7027.83716 5.4752.26072.80542 1.0364 2.4458 1.3248 2.8017l.15719.19398.74439-.36398c1.8038-.88198 3.2871-2.1826 4.3938-3.8528.96324-1.4536 1.4835-2.8155 1.7453-4.5682.06612-.4427.13716-.82185.15787-.84256.02071-.02071.0831-.02021.13865.0011.13899.05333.13832 1.5091-.0011 2.4482-.19598 1.3198-.75819 2.9306-1.3999 4.0108-.1458.24543-.2651.46505-.2651.48805 0 .11113.78698-.87138 1.2532-1.5646 1.1568-1.72 1.8849-3.6853 2.1465-5.7942.0763-.615.15558-.76273.30251-.56366.18108.24534.08711 2.0779-.17471 3.4072-.33135 1.6823-.86892 2.9958-1.9822 4.8432-.20418.33884.66366-.62274 1.1814-1.309 1.5909-2.1087 2.6929-4.8286 2.9701-7.3303.09716-.87696.11456-.94901.22913-.94901.19604 0 .24204.3261.20109 1.4258-.04929 1.3238-.18041 2.2519-.49667 3.5156-.40131 1.6036-1.1306 3.2821-2.0261 4.6632-.21589.33297-.37089.6054-.34444.6054.06441 0 .79977-.81693 1.355-1.5053 2.0579-2.5513 3.5192-6.0471 3.8319-9.1666.07839-.78202.14308-1.0435.25817-1.0435.13693 0 .19612.35286.19557 1.166-.0026 3.8313-1.2046 7.6822-3.3321 10.675-.46219.65008-.45658.66696.05626.16941 1.3829-1.3417 2.9516-3.5162 3.9057-5.414 1.1815-2.3501 1.9845-5.1283 2.223-7.6911.0451-.48462.15956-.69682.30006-.55631.12726.12726.02628 3.4899-.13706 4.564-.7055 4.6391-2.7871 8.794-6.0745 12.124-1.7426 1.7655-3.5895 3.102-5.8093 4.204-3.3999 1.6879-7.0157 2.4332-10.897 2.2461z" fill="#f1f5ed"/>
  <path d="m20.552 42.684c-7.4457-.84568-13.898-5.3926-17.18-12.106-1.4951-3.0587-2.1929-6.0789-2.1935-9.494-.0001701-.88808.021701-1.2119.08796-1.3025.13214-.18072.16597-.07175.27743.89374.54616 4.7308 2.5909 9.0487 5.9296 12.522.73669.76632 1.0175.97392.64052.47355-2.3397-3.1055-3.6456-6.9388-3.6848-10.815-.011044-1.0947.028064-1.4726.1524-1.4726.078649 0 .090749.06125.26336 1.3331.4064 2.9945 1.6039 5.9261 3.398 8.3189.60548.80752 1.794 2.167 1.9829 2.2681.06412.03431-.08612-.2407-.33385-.61113-1.8209-2.7229-2.7306-5.6876-2.6779-8.7278.015181-.87553.033858-1.0431.11626-1.0431.075359 0 .11686.1521.17859.65449.37298 3.0355 1.6255 5.9431 3.5383 8.2139.28807.34197.63541.72485.77185.85084.24749.22852.24779.2286.12483.03273-.62262-.99189-.82039-1.3391-1.1185-1.9635-.84869-1.7778-1.259-3.5325-1.2887-5.5108-.00998-.66561.00897-.95225.066786-1.0101.044397-.04442.099472-.06201.12239-.03909.022918.02292.097202.42278.16507.88859.38695 2.6556 1.4347 4.9183 3.224 6.962.18027.20591.34022.36193.35546.3467.01523-.01523-.09024-.21443-.23438-.44266-1.077-1.7053-1.7117-3.8825-1.7158-5.8853-.0013-.62907.03126-.83983.12962-.83983.08137 0 .12279.15771.22874.8709.27228 1.8329.98427 3.5326 2.1313 5.0878.54169.73447 1.6545 1.8232 2.4206 2.3682.71536.50892 2.0619 1.1998 2.9023 1.4892 1.4764.50833 3.3888.70392 4.9082.502.42766-.05683.79118-.11694.80782-.13358.01664-.01664-.10329-.2754-.26649-.57504-1.3164-2.4169-2.3019-5.8861-2.4351-8.572l-.04427-.89322-1.0962-1.4629c-.60292-.80462-1.2126-1.5932-1.355-1.7525l-.25876-.28951-.29009.19606c-.8303.56116-1.9501 1.0482-2.8235 1.2281-.29544.06084-.82756.10389-1.2842.10389-1.7246 0-3.2063-.65996-4.6713-2.0806-1.0337-1.0024-1.7921-2.0949-2.2991-3.3119-.13334-.32008-.38032-.79132-.54885-1.0472-.39349-.59741-1.5173-1.7209-2.2929-2.2923-.36208-.26674-.6054-.49191-.6054-.56025 0-.20399 1.5631-.82998 2.7816-1.114 1.1162-.26017 1.9902-.35217 3.3706-.35481 1.7893-.0034 2.9994.16891 4.3851.62453 2.603.85588 4.1696 2.3266 4.7668 4.4751.15806.56862.137 2.1082-.03825 2.7974l-.12884.50666 2.4361 2.2125.04475-.46754c.15485-1.6177.2109-2.06.35687-2.816.08954-.46372.26036-1.1161.37961-1.4498l.21682-.60664-.45772-.44825c-.97172-.95161-1.6896-2.1351-1.9966-3.2914-.21546-.81167-.24105-2.2107-.05633-3.0799.64282-3.025 3.2155-6.2765 6.7675-8.5531 1.3592-.87118 3.148-1.6899 4.4643-2.0433.73903-.19843 1.6099-.30601 1.7223-.21275.21865.18147.50034 2.6491.54789 4.7996.06925 3.1324-.26686 5.4525-1.0981 7.5804-.92394 2.365-2.4892 4.1622-4.5012 5.1681-.5574.27867-1.8092.68982-2.4958.81976-.30597.0579-.61928.1183-.69623.13422-.12416.02568-.15888.13033-.30838.92946-.88526 4.732-.68721 9.548.52133 12.677.46149 1.195 1.1377 2.3929 1.3507 2.3929.23288 0 1.7809-.84725 2.4069-1.3173 1.1858-.89047 1.9332-1.6721 2.7168-2.841.93914-1.401 1.5118-2.8983 1.7698-4.6276.10422-.69837.17858-.87495.29635-.70365.10897.15851.01976 1.8994-.13917 2.7156-.26094 1.3401-.75209 2.6442-1.4053 3.7312-.41867.69674-.41543.68647-.13392.42482.34692-.32245 1.0836-1.2837 1.5013-1.9591.9504-1.5364 1.5224-3.0756 1.8065-4.8607.18494-1.1623.18885-1.1783.28021-1.148.13634.04523.17104.5679.10496 1.5808-.15944 2.4436-.83566 4.5081-2.132 6.509-.19508.3011-.3417.56043-.32584.5763.04926.04926 1.0741-1.1309 1.5893-1.8302 1.534-2.0819 2.546-4.6095 2.8748-7.1802.10659-.83316.1756-1.0299.29822-.85029.09962.14594.02512 2.5911-.10169 3.3374-.1422.83689-.43554 1.9791-.72278 2.8143-.32037.93157-1.1005 2.4956-1.6813 3.3706-.26281.39597-.50387.76412-.53568.81811-.12177.20669.84563-.78143 1.3456-1.3744 2.2668-2.6885 3.7125-5.9982 4.1455-9.4901.11154-.89962.16627-1.0688.3019-.93315.09251.09251.08471 2.1264-.01148 2.9932-.35973 3.2414-1.4786 6.1932-3.3364 8.8014-.60866.85455-.46931.80763.42881-.14437 3.2208-3.4141 5.1922-7.4868 5.7893-11.961.16624-1.2455.20912-1.4561.30276-1.4867.12243-.04.15377.22813.15464 1.323.004 4.9834-1.6724 9.7438-4.817 13.679-.74001.92602-2.3441 2.5295-3.265 3.2637-3.1521 2.5131-6.6377 4.0331-10.621 4.6315-1.1877.17843-4.2189.22737-5.4464.08795z" fill="#ecf1e7"/>
  <path d="m21.075 42.716c-3.2797-.28387-6.4487-1.3131-9.3427-3.0343-2.9725-1.7679-5.6831-4.4784-7.4509-7.4507-2.0606-3.4647-3.103-7.2426-3.103-11.246 0-1.4094.1944-1.6783.32747-.4529.15928 1.4667.54538 3.2398.98958 4.5445.79052 2.3218 2.0976 4.7118 3.6076 6.5965.55085.68754 2.2719 2.4971 2.3247 2.4443.016093-.01609-.10151-.20041-.26135-.40959-1.8405-2.4088-3.0613-5.3156-3.5544-8.4633-.12779-.8158-.20411-3.5801-.10295-3.7287.03605-.05295.083974-.07785.1065-.05532.022524.02252.098884.47818.16969 1.0126.45704 3.4495 1.737 6.4574 3.898 9.1607.57658.72125 1.629 1.8391 1.6828 1.7874.02132-.02049-.09802-.22523-.26519-.45497-1.7837-2.4513-2.8015-5.4941-2.8785-8.6052-.028608-1.1565.01005-1.5271.1452-1.3919.024275.02427.10061.43575.16963.91439.47861 3.3189 1.8942 6.2942 4.0481 8.5079l.59241.60888-.42883-.67115c-1.132-1.7717-1.8414-3.6697-2.0925-5.599-.11696-.8984-.13587-2.4378-.030747-2.5028.038392-.02373.083313-.02963.099826-.01312.016512.01651.087198.41959.15708.89572.33196 2.2618 1.1831 4.2908 2.5571 6.0958.78386 1.0297 1.4128 1.5792.82982.72497-.31232-.45763-.87046-1.6265-1.1173-2.3398-.28998-.838-.47124-1.6844-.57012-2.662-.1554-1.5365.06643-2.3861.26189-1.003.36091 2.5538 1.4825 4.7493 3.3496 6.5569 2.0678 2.0018 4.8109 3.1038 7.7223 3.1022.79714-.000393 2.0413-.12938 2.133-.22109.02055-.02055-.15606-.41352-.39247-.87328-1.2803-2.4899-2.1655-5.6437-2.2645-8.068l-.0441-1.0799-.73514-.98174c-1.1669-1.5584-1.627-2.1461-1.8382-2.3482l-.19684-.18839-.41508.26215c-1.4583.92101-2.755 1.3037-4.2071 1.2417-1.7118-.07311-3.3212-.87648-4.7184-2.3553-.8991-.95164-1.4847-1.8629-2.1759-3.3859-.13887-.30597-.38674-.73303-.55082-.94901-.45346-.59689-1.3164-1.4326-2.045-1.9804-.35997-.27065-.66375-.53081-.67506-.57814-.02539-.10622.52918-.39053 1.3623-.6984 2.3996-.88679 5.6548-1.0428 8.312-.39846 1.6398.39765 3.0684 1.1306 4.0488 2.0774.77815.75144 1.2933 1.6231 1.5516 2.6251.17154.66561.15948 1.9002-.0265 2.7129-.07785.34019-.11947.63759-.09249.66089.39822.34388 1.5359 1.3711 1.9129 1.7271l.48944.46224.04636-.32724c.0255-.17998.07963-.71005.12029-1.1779.12075-1.3894.35798-2.5732.69011-3.4436l.16515-.43281-.57772-.58381c-2.1795-2.2025-2.6486-4.8952-1.3837-7.943.95889-2.3105 3.2404-4.8827 5.8718-6.6198 1.8023-1.1898 4.174-2.2409 5.438-2.4101.2374-.031783.56489-.077674.72777-.10198.26768-.039945.30349-.029377.37257.10994.23502.47399.54156 3.5064.54156 5.3573 0 4.6585-1.1533 8.236-3.366 10.441-1.298 1.2935-2.8122 2.0759-4.7886 2.4744-.40872.0824-.75937.16607-.77923.18593-.06819.06819-.36222 1.7041-.49026 2.7276-.60778 4.8586-.15404 9.0525 1.2933 11.954.2564.51403.77548 1.3417.84147 1.3417.02372 0 .37037-.15929.77035-.35398 2.6231-1.2768 4.7058-3.6072 5.6586-6.3316.19046-.54455.46829-1.7312.57882-2.4722.06394-.42869.19021-.50584.25624-.15657.06569.34749-.07955 2.0274-.2366 2.7367-.28775 1.2995-.80812 2.5835-1.4956 3.6902-.18745.30177-.32785.56163-.31201.57748.05856.05856 1.1104-1.2145 1.58-1.9123 1.143-1.6984 1.8245-3.5003 2.1543-5.6956.05236-.34853.11322-.65171.13525-.67374.21438-.21438.19667 1.8495-.02601 3.0323-.36056 1.915-1.0372 3.6178-2.0222 5.0892-.47239.70562-.46428.71789.09701.14671 2.2051-2.2439 3.7516-5.5053 4.1466-8.7448.07799-.63954.14459-.84938.23924-.75375.09698.09797.04602 2.3272-.07126 3.1173-.36041 2.4281-1.2896 4.7626-2.7053 6.7967-.26201.37645-.37498.5846-.29368.54109.15376-.08229 1.1902-1.2062 1.7306-1.8767 1.0082-1.2508 2.1121-3.1778 2.7536-4.8066.51455-1.3064.97869-3.2232 1.1269-4.6537.05246-.50647.12494-.66776.23222-.51677.10197.14352.02738 2.7549-.10281 3.5997-.47221 3.0641-1.5902 5.8105-3.352 8.2341-.26976.3711-.47721.68799-.461.70421.01622.01622.41004-.36104.87517-.83835 3.3609-3.4489 5.3684-7.6113 5.9843-12.408.1245-.9696.19252-1.2128.30707-1.0978.08055.08086.05125 2.7557-.03842 3.5079-.53928 4.5234-2.1761 8.3871-4.9631 11.715-1.9147 2.2865-4.2193 4.1063-6.9254 5.4687-2.2596 1.1375-4.5496 1.84-7.0358 2.1581-.97214.12438-3.6029.17791-4.5814.09322z" fill="#e2ebdb"/>
  <path d="m21.271 42.716c-4.6574-.40435-8.8395-2.1131-12.304-5.0275-1.3472-1.1332-2.3596-2.2059-3.4361-3.6409-.87933-1.1722-1.4324-2.0732-2.0899-3.4043-1.1253-2.2784-1.7986-4.5558-2.1074-7.1279-.12842-1.0695-.15822-3.5296-.044138-3.6443.098385-.09888.11591-.02507.24998 1.053.41664 3.3502 1.5895 6.4683 3.5082 9.3265.90229 1.3441 2.3035 2.9933 3.1696 3.7306.4154.35362.41467.32305-.00546-.22907-1.8908-2.4849-3.1272-5.4591-3.6034-8.668-.108-.72774-.20093-3.0614-.13274-3.3331.064721-.25787.15886-.20836.20097.10567.25063 1.8693.45166 2.8.88707 4.1069.87563 2.6282 2.2586 4.8995 4.2149 6.9221.39238.40568.72654.72448.74258.70844.01604-.01604-.17518-.3184-.42494-.67192-.60802-.86063-.85252-1.2795-1.3533-2.3185-.99187-2.0577-1.4858-4.1468-1.5019-6.3521-.0075-1.028.021289-1.3235.11935-1.2255.016282.01628.090338.42587.16457.9102.51113 3.3348 1.7759 5.9935 4.0393 8.491.26947.29734.54398.56953.61003.60488.06605.03535-.10166-.26683-.37269-.67151-1.4211-2.1219-2.2484-4.8106-2.2445-7.2945.0008901-.56725.063198-.89395.15305-.80244.016648.01696.079782.36953.1403.78349.35243 2.4108 1.3498 4.6896 2.8504 6.5122.40934.4972 1.1357 1.2151.9602.94901-1.2746-1.9325-1.8815-3.6053-2.0738-5.7163-.06983-.76664-.03749-1.4176.07043-1.4176.0649 0 .08739.09007.22064.88356.59396 3.5371 2.8201 6.5491 6.0226 8.1485.98483.49187 1.7641.76949 2.77.9868.8801.19013 2.9284.24581 3.7982.10323.33676-.05521.62454-.11263.63951-.1276.01497-.01497-.10988-.27104-.27746-.56903-1.2735-2.2645-2.3359-5.9542-2.4286-8.4341l-.03756-1.0048-.84745-1.1485c-1.2964-1.7568-1.798-2.3724-1.9333-2.3724-.04889 0-.21354.08576-.36589.19059-.44687.30745-1.5371.82945-2.1043 1.0075-1.8333.57552-3.6425.31567-5.286-.75922-1.5753-1.0303-2.8948-2.661-3.6452-4.5048-.40248-.98894-1.4266-2.1718-2.7313-3.1547-.44724-.33692-.65664-.53467-.63258-.59737.046045-.11999 1.2582-.63192 2.013-.85019 1.3578-.39261 2.6457-.56841 4.1641-.56841 4.1555 0 7.476 1.5448 8.6752 4.0361.37327.77542.50592 1.4824.47229 2.5171-.01798.55309-.07419 1.0642-.1503 1.3664l-.12158.48286.25817.23099c.14199.12704.70747.64068 1.2566 1.1414.60545.55206 1.0093.87648 1.0259.8242.01508-.04742.04688-.43964.07066-.87161.0805-1.462.41453-3.271.74729-4.0469.0746-.17397.13564-.35133.13564-.39414 0-.04281-.25143-.32752-.55874-.6327-.9083-.90201-1.5021-1.8682-1.8377-2.9903-.1379-.46106-.17841-.75699-.20418-1.4915-.04971-1.4168.19131-2.4699.89874-3.9269 1.1132-2.2927 3.0991-4.4388 5.6976-6.1569 1.7801-1.177 4.0821-2.1865 5.4515-2.3905 1.0336-.15399.92951-.15893 1.011.047962.08646.21945.30727 1.7477.41478 2.8708.10051 1.0499.09904 3.8663-.0025 4.8432-.5056 4.8632-2.3044 8.0416-5.4607 9.6485-.72815.37072-1.6433.67546-2.6319.87637l-.7163.14558-.07751.23634c-.11204.34162-.39832 2.0985-.51569 3.1647-.14293 1.2985-.19765 4.3663-.09877 5.5373.23063 2.731.90483 4.9803 2.024 6.7524.27593.43693.27017.43647 1.0173.0802 3.3356-1.5907 5.7101-4.8088 6.2539-8.4757.08965-.6046.1238-.71994.21314-.71994.12155 0 .01631 2.0945-.14141 2.8143-.35689 1.6288-.80224 2.6676-1.8659 4.3524-.21134.33473.51138-.39198 1.0089-1.0145 1.461-1.8279 2.3613-3.8839 2.7497-6.2792.07261-.44779.15943-.84159.19294-.87509.19629-.1963.15785 1.6032-.06097 2.8541-.34167 1.9532-.96756 3.5278-2.0699 5.2075-.51815.7895-.45967.79938.24618.0416 2.1929-2.3543 3.6005-5.2884 4.0188-8.3775.05849-.43196.13052-.84429.16007-.91629.04991-.12163.05885-.11786.12627.05335.09017.22897.09153.88742.0039 1.9101-.26069 3.0439-1.3332 5.8694-3.1365 8.2629-.36397.4831-.10764.30276.57068-.40148 2.8121-2.9196 4.4924-6.3847 5.052-10.418.12311-.88735.1567-1.0108.2495-.91689.07729.07821.0443 2.4248-.04378 3.1137-.42136 3.2956-1.6089 6.2689-3.5485 8.8847-.2469.33297-.42552.6054-.39694.6054.06822 0 1.7245-1.6882 2.1511-2.1925.95828-1.1329 1.979-2.6992 2.7006-4.1438 1.1425-2.2873 1.8013-4.4652 2.1319-7.0479.12172-.95081.14924-1.0549.25178-.9523.09858.09862.0889 2.1825-.01492 3.2103-.43002 4.2573-2.045 8.2494-4.6599 11.519-1.1155 1.3948-2.8651 3.0561-4.3304 4.1119-2.9 2.0895-6.5085 3.4862-10.096 3.9079-1.0513.12356-3.3004.17327-4.2215.09331z" fill="#dce6d3"/>
  <path d="m21.86 42.745c-1.5173-.10358-2.8583-.29859-4.0511-.58909-3.9681-.96643-7.5738-3.034-10.446-5.9899-1.6055-1.6523-2.8287-3.3724-3.846-5.4083-1.45-2.9019-2.168-5.7445-2.302-9.1135-.039069-.98226.013093-1.6689.12677-1.6689.035997 0 .11687.41233.17971.91629.57739 4.6304 2.6121 8.8815 5.8939 12.314.58738.61441 1.3025 1.256 1.1927 1.07-.031885-.054-.22632-.32073-.43207-.59274-1.7588-2.3251-2.9959-5.195-3.4563-8.0183-.29068-1.7822-.36065-4.2791-.11252-4.0152.014101.015.087719.45433.1636.97628.47826 3.2899 1.7151 6.2464 3.6552 8.7374.74814.96058 2.1769 2.4641 2.1769 2.2908 0-.02154-.1903-.30418-.42288-.62809-1.8895-2.6314-2.9055-5.689-2.9374-8.8397-.00922-.9109.020789-1.1911.11724-1.0946.016189.01619.076652.35243.13436.74721.40746 2.7873 1.3767 5.1569 2.984 7.2954.548.7291 1.7185 2.0289 1.8271 2.0289.02938 0-.18702-.36095-.48091-.80211-1.2419-1.8643-1.9708-3.8947-2.1993-6.1261-.10807-1.0554-.079054-1.9074.064967-1.9074.028908 0 .071957.16935.095667.37633.088064.7688.36169 1.9733.62104 2.7339.46608 1.3668 1.3227 2.9547 2.1176 3.9255.93292 1.1393 1.5333 1.7003 1.0393.97104-1.0039-1.4818-1.7058-3.3161-1.9112-4.9944-.08673-.70865-.08903-1.8997-.0037-1.8997.074 0 .09382.07709.23118.89899.66598 3.985 3.5932 7.3998 7.4495 8.6902 1.2797.42822 2.9775.67702 4.0359.59145.72011-.05822 1.6128-.17743 1.6911-.22584.04171-.02578-.15268-.48674-.50057-1.187-.86218-1.7355-1.4279-3.4213-1.8441-5.4953-.22329-1.1127-.32752-1.9959-.32991-2.7954l-.0017-.57526-1.0618-1.4176c-.584-.77967-1.2095-1.5862-1.3899-1.7922l-.32805-.37465-.45734.29497c-.87616.56511-1.7963.95632-2.7481 1.1684-.63744.14204-1.9263.11151-2.5852-.06126-1.1389-.29859-2.1964-.91806-3.1925-1.8702-1.0289-.98346-1.9438-2.2792-2.3383-3.3116-.44588-1.1669-1.4771-2.3872-2.8764-3.4038-.30758-.22348-.55924-.44664-.55924-.49592 0-.21387 1.7458-.88659 2.9511-1.1372 3.1263-.65001 6.5005-.32126 8.8569.86293 1.7324.8706 2.8129 2.0519 3.3102 3.6189.20692.65207.24991 1.8185.09768 2.6507-.06256.34197-.1272.69682-.14366.78854-.0263.14663.11798.30081 1.1944 1.2763.67336.61021 1.2428 1.1095 1.2654 1.1095.0226 0 .06249-.29452.08865-.65449.12686-1.7457.36437-3.1117.71889-4.1347l.2081-.60046-.62178-.64781c-1.3487-1.4051-1.9343-2.7007-2.0045-4.4344-.10022-2.4759 1.0942-5.0342 3.5058-7.5088 2.0992-2.154 4.6876-3.7866 7.3742-4.6509.62107-.19982 1.7256-.43924 2.0264-.43924.12468 0 .19629.28321.35579 1.4072.21014 1.4808.28739 2.5905.28705 4.1233-.0013 6.0632-1.9031 10.16-5.5724 12.005-.7128.35839-1.6949.68343-2.6101.86388-.52534.10358-.74426.17452-.7663.24832-.07.23448-.29756 1.4586-.3903 2.0995-.22976 1.588-.2659 2.2223-.26475 4.6469.0011 2.2075.0157 2.5465.14567 3.3706.28063 1.7794.67233 3.1087 1.2922 4.3851.4619.95115.79652 1.4726.94498 1.4726.06477 0 .45547-.17128.86821-.38063 3.2521-1.6495 5.5372-4.771 6.0696-8.2914.09887-.65376.12945-.76304.2011-.71875.09497.05869.0744 1.2799-.03445 2.0456-.1688 1.1874-.4607 2.1575-.98182 3.2629-.29692.6298-.46544.9212-1.0729 1.8553-.34619.53231.78592-.65774 1.3928-1.4641 1.3249-1.7604 2.1418-3.7757 2.5297-6.2408.1424-.90507.30112-.42892.22977.6893-.16312 2.5565-.9278 4.8546-2.2867 6.8721-.54852.81438-.48501.85819.18959.13077 2.2151-2.3886 3.5887-5.1482 4.0865-8.2103.0751-.46195.15227-.93645.17148-1.0544.01921-.11799.05878-.19979.08793-.18177.10624.06566.1316.63827.07167 1.6188-.17713 2.8986-1.018 5.4251-2.5882 7.7767-.30044.44996-.6093.89911-.68636.9981-.316.40596.02489.13453.69868-.55632 2.819-2.8904 4.5627-6.502 5.09-10.543.05089-.38996.10971-.7262.13072-.74721.25068-.25068.18706 2.2264-.10102 3.9335-.50006 2.9631-1.7203 5.7862-3.5267 8.1592-.21555.28316-.39191.53434-.39191.55817 0 .10147.9926-.8491 1.6488-1.5789 2.0533-2.2839 3.5021-4.7332 4.4684-7.5544.50051-1.4612.77374-2.6944 1.0628-4.7967.02867-.20854.08159-.37762.11759-.37575.11312.0059.06956 2.9295-.05708 3.831-.28846 2.0534-.76554 3.8327-1.4916 5.5632-3.0872 7.3577-9.9565 12.457-17.849 13.251-.75437.07584-2.7228.13244-3.2808.09435z" fill="#d5e2ca"/>
  <path d="m20.453 42.614c-4.0208-.45658-7.9297-2.0894-11.111-4.6413-4.2697-3.425-7.0701-8.3173-7.9044-13.809-.1427-.93934-.26064-3.8224-.16642-4.0679.074349-.19375.15256.01079.20214.52864.11416 1.1923.53201 3.1031.95539 4.3688.90043 2.692 2.3231 5.1926 4.1714 7.3321.62034.71805 2.0296 2.1126 2.0819 2.0603.01725-.017249-.15839-.27732-.39031-.57793-1.0171-1.3183-2.136-3.3347-2.6953-4.857-.56997-1.5515-.94663-3.3373-1.0844-5.1414-.096406-1.2627-.051248-2.2438.096405-2.0945.014833.015.075585.3807.13501.81266.44509 3.2356 1.6667 6.207 3.5893 8.7301.73771.96815 2.3355 2.6561 2.3355 2.4672 0-.02164-.18517-.29682-.41149-.6115-1.6179-2.2496-2.5436-4.566-2.8913-7.2349-.10999-.8444-.13949-2.7957-.040721-2.6931.032936.0342.13827.53151.23407 1.1051.43771 2.6208 1.3831 4.8262 2.9746 6.9389.47531.63099 1.7619 2.03 1.8166 1.9753.01454-.01454-.19893-.3612-.47439-.77036-.97067-1.4418-1.74-3.2864-2.055-4.9273-.22834-1.1895-.31766-3.2678-.13191-3.0691.027339.02924.097774.36241.15652.74038.35887 2.3089 1.2899 4.4466 2.7222 6.2504.46782.58915 1.1697 1.3417 1.2514 1.3417.02963 0-.1254-.27243-.3445-.6054-.97239-1.4778-1.5694-3.0602-1.7957-4.76-.10691-.80295-.12426-1.8995-.03005-1.8995.07207 0 .07479.01068.26252 1.0312.19054 1.0358.45398 1.8037.98211 2.863 1.7633 3.5367 5.0506 5.7896 9.0321 6.1899 1.0025.10079 2.9778-.02391 3.1633-.1997.02994-.02838-.10794-.35696-.3064-.73018-1.2849-2.4164-2.1769-5.5185-2.3593-8.2052l-.07999-1.1781-.73291-.98174c-1.1312-1.5153-1.6219-2.1433-1.8302-2.3427l-.19106-.18284-.54975.34114c-2.9968 1.8596-5.9211 1.5633-8.4622-.85761-.94765-.90281-1.8343-2.1819-2.3093-3.3314-.12822-.31029-.36503-.77034-.52624-1.0223-.35902-.56117-1.6945-1.8936-2.392-2.3866-.27835-.19672-.50609-.39744-.50609-.44604 0-.11489.81063-.4874 1.6813-.77261 2.943-.96404 6.7139-.88412 9.4012.19926 1.1285.45495 1.8209.88828 2.5544 1.5988.79244.76749 1.251 1.5194 1.5236 2.4982.17079.61321.15738 2.19-.02463 2.8956l-.13169.51047 1.0483.96214c1.1748 1.0783 1.4858 1.3481 1.5136 1.3133.01049-.01315.05331-.4585.09516-.98966.13567-1.7222.41581-3.1845.78271-4.0857l.13807-.33913-.46172-.44626c-.64667-.625-1.2005-1.3819-1.5717-2.1479-.39924-.82393-.5739-1.5053-.62077-2.4216-.10254-2.0045.66622-4.0557 2.3537-6.2802.54044-.71244 2.0206-2.1907 2.8443-2.8406 2.2505-1.7757 4.944-3.0803 7.1291-3.4527.49766-.084829.63381-.089609.67456-.02368.05346.086498.27888 1.4673.39505 2.4199.1111.91099.15429 4.1172.06853 5.0871-.3799 4.2966-1.7675 7.3284-4.1892 9.1531-1.003.75573-2.4645 1.387-3.7746 1.6303-.32109.05964-.649.12134-.72871.13712-.1715.03395-.20815.15158-.43678 1.4018-.36674 2.0054-.53012 4.5494-.43313 6.744.11921 2.6973.56566 4.6695 1.4735 6.5094.53023 1.0746.78348 1.4726.93695 1.4726.06554 0 .3821-.12815.70346-.28477 1.9335-.94235 3.4077-2.242 4.5909-4.0471.89416-1.3642 1.4033-2.756 1.7499-4.7837.07134-.41729.16655-.20082.16655.37866 0 1.3315-.3918 3.1145-.96823 4.4063-.27104.6074-.82718 1.5774-1.241 2.1646-.2456.34847.1735.0057.63915-.5227 1.8161-2.061 2.8766-4.2953 3.3064-6.9666.05756-.35773.1175-.66326.13319-.67895.15507-.15507.15045 1.2571-.0077 2.3442-.30453 2.0938-1.0258 3.9397-2.2333 5.7157-.2631.38697-.45213.70358-.42007.70358.11365 0 1.3329-1.3428 1.8769-2.067 1.5178-2.0208 2.5103-4.3272 2.9039-6.7483.07497-.46114.15258-.93798.17248-1.0597.02555-.15625.05662-.2008.10576-.15165.04321.04321.06624.40515.06076.9551-.03181 3.1945-1.1419 6.46-3.0726 9.0388-.21561.28798-.37919.53683-.36352.55301.05902.06091 1.4345-1.3691 2.0428-2.1238 2.2184-2.7524 3.4606-5.7577 3.9696-9.6046.02263-.17098.06667-.31088.09787-.31088.11474 0 .14267.73265.07063 1.8526-.24488 3.8069-1.4223 7.0539-3.6385 10.034-.30994.41678-.54732.774-.5275.79381.05919.05919 1.9313-1.8653 2.4702-2.5393 1.8453-2.3079 3.1394-4.7486 3.9372-7.4254.35052-1.1761.53165-2.0179.72211-3.3562.0783-.55016.17147-1.0067.20705-1.0145.09603-.02103.11761 1.7363.03358 2.7347-.31619 3.7566-1.4938 7.1583-3.5456 10.242-.86391 1.2986-1.6168 2.217-2.7384 3.3406-3.539 3.5454-7.9393 5.6614-12.992 6.2475-1.0612.1231-3.7372.11996-4.8436-.0057z" fill="#cfddc3"/>
  <path d="m21.14 42.675c-.12599-.01251-.59722-.0695-1.0472-.12664-7.1665-.91012-13.486-5.4682-16.688-12.036-.99543-2.0421-1.6808-4.3205-1.9982-6.6431-.13154-.96228-.21217-3.6928-.11089-3.7554.080761-.04991.08571-.02625.27786 1.3284.52968 3.7344 2.2643 7.6012 4.7306 10.546.67988.81168 2.3759 2.53 2.4369 2.469.017633-.017634-.22837-.38225-.54667-.81026-2.3408-3.1476-3.4928-6.3975-3.7121-10.473-.043728-.81225.00599-1.4525.10509-1.3534.030538.03054.10233.39354.15953.80667.48504 3.503 1.9447 6.7684 4.2121 9.4231.51633.60453 1.304 1.4171 1.6081 1.659.29915.23796.28994.21982-.30681-.60408-1.4563-2.0106-2.3664-4.1685-2.805-6.6508-.16352-.92544-.25856-3.1743-.13415-3.1743.040781 0 .074148.02661.074148.05914s.075106.50401.1669 1.0477c.41546 2.4609 1.3929 4.7493 2.8848 6.7539.45165.60687 1.911 2.186 1.9678 2.1293.01414-.01414-.22932-.40486-.54101-.86827-1.3325-1.9811-2.0893-4.187-2.245-6.5436-.057248-.86634-.024424-1.4543.072436-1.2976.023502.03803.089802.36166.14733.71918.36991 2.2988 1.3039 4.3928 2.7863 6.2467.43403.54283 1.3054 1.449 1.3054 1.3575 0-.02522-.19126-.32992-.42502-.67711-1.0236-1.5203-1.6589-3.2576-1.8643-5.0982-.12823-1.1491-.03947-2.0222.12151-1.1953.03689.18947.11597.59404.17573.89905.21272 1.0856.75822 2.4397 1.397 3.468 1.9946 3.2107 5.389 5.1967 9.1362 5.3455 1.0078.04 2.464-.09045 2.6071-.23355.0433-.0433-.0054-.19237-.14502-.44382-.91763-1.6527-1.6748-3.7407-2.1308-5.8763-.2774-1.299-.34599-1.7951-.40111-2.9012l-.04346-.87229-1.1673-1.5493c-1.127-1.4959-1.5168-1.9747-1.6075-1.9747-.02361 0-.2241.11442-.44552.25426-1.3807.87196-2.6021 1.2597-3.9639 1.2583-1.6095-.0017-3.0587-.61993-4.4619-1.9035-.8904-.81447-1.7885-2.034-2.2509-3.0564-.44886-.99254-.63399-1.3327-.96403-1.7712-.46121-.61276-1.2962-1.4136-2.0359-1.9527-.34232-.24948-.62372-.49164-.62534-.53815-.00581-.1669 1.6243-.7971 2.7132-1.0489 1.2002-.27755 2.034-.36648 3.4361-.36648 2.2742 0 4.013.36522 5.6613 1.1892 2.7791 1.3891 3.9836 3.7879 3.3104 6.5929-.06898.28742-.10574.55584-.08168.59647.02406.04064.50025.4866 1.0582.99102.55795.50442 1.0859.9944 1.1731 1.0888.18758.203.3322.22231.3322.04437 0-.39255.15525-1.9152.26689-2.6177.15435-.97117.33898-1.7219.55958-2.2752l.16189-.40611-.54754-.5429c-1.9087-1.8926-2.5391-4.1978-1.851-6.7691 1.0883-4.0668 5.7018-8.35 10.698-9.932.73139-.2316 1.9473-.47706 2.0171-.40721.05575.055747.26415 1.3315.38069 2.3303.14505 1.2432.19794 3.9515.09989 5.1145-.31788 3.7704-1.3981 6.5511-3.2769 8.4355-1.2678 1.2716-2.947 2.1344-4.778 2.4549-.34197.05987-.66594.13115-.71994.1584-.11378.05743-.19611.39181-.4196 1.7043-.2856 1.6772-.38934 3.0604-.39026 5.2032-.000903 2.1168.0671 2.8934.39258 4.4833.32561 1.5905 1.1095 3.5799 1.7589 4.464.21786.29659.23374.30537.4292.23723.40076-.1397 1.4629-.71994 2.0344-1.1114 2.4507-1.6785 4.1411-4.2354 4.7049-7.1164.21263-1.0865.19576-1.0275.26345-.92054.13143.20774.0218 1.6056-.20762 2.6473-.30004 1.3624-.95075 2.8727-1.7195 3.991-.19744.28722-.34316.53756-.32383.55632.05289.05132 1.015-.98211 1.4665-1.5753 1.3545-1.7794 2.1766-3.706 2.5797-6.0458.15-.87063.23008-.85166.23008.0545 0 2.4217-.8286 4.9964-2.3199 7.2084-.3032.44974-.5276.81771-.49867.81771.108 0 1.4294-1.4309 1.9062-2.0643 1.6234-2.1561 2.7077-4.7512 3.0346-7.2622.07008-.53841.10983-.68721.18356-.68721.11744 0 .01404 2.2025-.1471 3.1332-.44575 2.5744-1.5042 5.0106-3.0512 7.0228-.15703.20425-.28551.39008-.28551.41295 0 .10078.73021-.58488 1.352-1.2695 1.2865-1.4165 2.1291-2.654 2.9674-4.358.83935-1.7062 1.4057-3.4887 1.6656-5.2426.05815-.39232.12089-.80902.13943-.92602.01854-.11699.06576-.21271.10494-.21271.10396 0 .02435 2.5487-.10631 3.4033-.46857 3.0649-1.7375 6.0575-3.6169 8.5298-.26892.35376-.47178.66037-.45081.68134.06209.06209 2.0653-1.9917 2.6007-2.6663 2.5523-3.2161 4.0756-6.7646 4.6093-10.737.20243-1.5067.32786-1.2355.27083.58538-.06922 2.2101-.38647 4.0689-1.0401 6.094-2.1326 6.6076-7.3589 11.826-13.992 13.97-1.4224.45983-3.0292.78887-4.6389.94998-.61819.06187-3.2569.07861-3.8055.02414z" fill="#c6d7b7"/>
  <path d="m21.075 42.652c-4.8737-.45303-9.2548-2.3924-12.874-5.6988-2.8572-2.6103-5.0451-6.1805-6.1392-10.018-.27741-.97301-.52461-2.2062-.65389-3.262-.12959-1.0584-.19931-3.1206-.11285-3.3379.075765-.19039.049162-.30547.2799 1.2108.67875 4.4604 2.8182 8.6733 6.0503 11.914.78536.78744 1.3793 1.3007 1.2429 1.0741-.031348-.05208-.28589-.39221-.56565-.75586-2.3963-3.1149-3.7857-7.1173-3.786-10.907-7.86e-5-.89613.076864-1.1808.15923-.58904.32218 2.3146.84169 4.0593 1.7691 5.9414.62356 1.2654 1.5803 2.7449 2.4113 3.7287.60264.71346 1.9288 2.0326 1.986 1.9754.01958-.01958-.14722-.27576-.37066-.56929-1.9604-2.5753-3.0647-5.6396-3.1863-8.8412-.026579-.70005-.016543-1.0349.031917-1.0648.045002-.02781.086503.06973.11422.26846.48676 3.4906 1.9941 6.602 4.3634 9.0065.38922.39502.72583.70006.74803.67787.0222-.0222-.10714-.24038-.28742-.48484-1.394-1.8904-2.2371-3.9657-2.5294-6.2264-.11033-.85332-.14182-2.1083-.050259-2.0033.029801.0342.1325.46721.22821.96225.41555 2.1492 1.2887 4.0649 2.6326 5.7757.40099.51049 1.4701 1.6156 1.4701 1.5196 0-.02646-.19169-.32887-.42597-.67201-.79459-1.1638-1.4525-2.6958-1.7338-4.0369-.2195-1.0467-.32472-2.6876-.1619-2.5248.01548.01548.10155.39708.19127.848.20658 1.0382.45835 1.7649.98306 2.8372.89388 1.8268 2.1958 3.2968 3.9289 4.4362 1.1589.76186 2.4512 1.2955 3.8541 1.5914 1.0602.22362 2.767.28348 3.7589.13182.37148-.0568.7019-.11965.73427-.13965.03237-.02001-.12909-.39599-.3588-.83552-.82222-1.5732-1.486-3.4131-1.8966-5.2565-.31257-1.4035-.4279-2.2573-.42934-3.1788-.0012-.76262-.0016-.76453-.21707-1.0472-.11873-.15574-.50617-.68077-.86098-1.1667-.86378-1.1831-1.6667-2.1598-1.7754-2.1598-.04872 0-.27365.1201-.49985.2669-.85842.55709-1.7999.94218-2.7959 1.1436-.72529.14665-1.918.10162-2.6223-.099-.69683-.19851-1.5897-.64787-2.2309-1.1228-1.2819-.94943-2.5135-2.5201-3.1102-3.9663-.50056-1.2133-1.4827-2.3866-2.8571-3.413-.35135-.26242-.62179-.50469-.60096-.53838.11943-.19324 1.4523-.70479 2.5264-.9696 1.2036-.29676 2.2082-.41432 3.5567-.41623 1.6512-.0023 2.8985.17835 4.2869.62104 2.0337.64843 3.6196 1.8543 4.3444 3.3032.23733.47448.4744 1.3366.52744 1.9181.04863.53313-.03908 1.4206-.20636 2.0882l-.10505.41921.25893.23528c.14241.1294.72306.65827 1.2903 1.1753.56727.517 1.045.92641 1.0616.90981s.06039-.4396.09732-.93999c.12372-1.6765.36128-2.9757.73302-4.0088l.19664-.5465-.58689-.59886c-.86991-.88766-1.2314-1.4171-1.6377-2.3987-.58396-1.4109-.5539-3.4063.07586-5.037.41574-1.0765.99575-2.102 1.7494-3.0931.53442-.70278 1.8104-2.0163 2.6401-2.7179 1.486-1.2564 3.8308-2.6017 5.5983-3.2119.6843-.23625 2.123-.60076 2.3712-.60076.29726 0 .69043 4.0584.61209 6.3181-.19752 5.697-2.069 9.4498-5.595 11.219-.59286.2975-1.833.69753-2.5612.82613-.34197.06039-.66041.14579-.70764.18976-.11602.10803-.37357 1.4063-.53266 2.6851-.6108 4.9097-.17072 9.1089 1.2552 11.977.35764.7194.77873 1.3963.89678 1.4416.054.02072.48209-.15514.95131-.3908 3.1245-1.5693 5.36-4.5024 6.0201-7.8987.05856-.3013.1251-.62146.14788-.71145.08174-.32301.13126.38744.07411 1.0633-.15782 1.8664-.82908 3.7406-1.9155 5.3482-.26854.39736-.46404.72248-.43444.72248.11276 0 1.3103-1.316 1.7749-1.9503 1.2339-1.685 2.0819-3.7475 2.4205-5.8872.18802-1.1882.27068.1088.09364 1.4693-.30152 2.317-1.1173 4.3608-2.4963 6.2537-.22946.31497-.3899.57268-.35655.57268.09174 0 1.396-1.3443 1.8098-1.8653 1.6728-2.1064 2.7798-4.5656 3.2033-7.1158.05545-.33394.11689-.7037.13652-.82169.02216-.13316.06296-.19768.10756-.17012.09386.05801.02425 1.651-.11613 2.6575-.11656.83571-.44273 2.1576-.74727 3.0286-.45802 1.3099-1.4138 3.0536-2.3414 4.2716-.19919.26155-.34698.49073-.32842.5093.05169.05169.99048-.84628 1.6013-1.5317 2.5363-2.846 4.0354-6.1834 4.569-10.172.07374-.55122.16426-.25975.1642.52872-.000131 1.4701-.17904 2.8165-.58922 4.4336-.59816 2.3581-1.6412 4.511-3.1611 6.5246-.35288.46749-.6257.86589-.60626.88532.06459.06459 2.3019-2.2318 2.8464-2.9216 2.4223-3.0685 3.9417-6.6077 4.4852-10.448.05604-.39597.11983-.79357.14175-.88356.03743-.1537.04308-.15568.0932-.03272.12737.31251.03562 2.3333-.17234 3.796-.83786 5.893-4.0439 11.144-8.941 14.645-2.8334 2.0254-6.2147 3.3408-9.809 3.816-.89094.11778-3.6957.17458-4.5768.09269z" fill="#b9cea6"/>
  <path d="m21.664 42.673c-4.0304-.23774-8.0087-1.6382-11.294-3.9756-1.4874-1.0583-3.3845-2.8637-4.4407-4.226-2.3962-3.0907-3.8787-6.5177-4.4288-10.238-.16659-1.1266-.29637-3.4222-.20784-3.6764l.065934-.18929.03573.16362c.019652.08999.097543.57595.17309 1.0799.58535 3.9046 2.3824 7.739 5.0774 10.833.80375.9229 2.3875 2.4271 2.3875 2.2676 0-.01671-.23904-.33532-.53121-.70803-2.482-3.1662-3.819-6.8001-3.9639-10.773-.045643-1.2513.03412-1.5101.17146-.55632.4795 3.33 1.8245 6.4229 3.932 9.0419.7584.94247 2.3551 2.5293 2.3551 2.3405 0-.01468-.23224-.33712-.5161-.71654-1.5658-2.0929-2.5362-4.3221-2.9833-6.8535-.14001-.79262-.26466-2.4822-.20039-2.7161l.053952-.19635.051796.22907c.028487.12599.12844.62667.22211 1.1126.41863 2.1717 1.4205 4.4014 2.8231 6.2831.52561.70511 2.149 2.414 2.223 2.34.02271-.02271-.09031-.21243-.25115-.42162-1.2148-1.5799-2.1311-3.5644-2.502-5.4185-.24671-1.2332-.38562-2.8484-.24497-2.8484.027759 0 .11902.36079.20281.80175.41942 2.2074 1.4501 4.3744 2.906 6.1095.51894.61849 1.2825 1.3659 1.3383 1.3101.01765-.01765-.14449-.27691-.36031-.57613-1.0352-1.4352-1.6736-2.9679-1.9807-4.7556-.11183-.65091-.18019-1.9823-.09753-1.8996.01655.01655.10638.39145.19964.83312.22373 1.0597.47079 1.7596.98514 2.791.56815 1.1393 1.1464 1.936 2.0902 2.8798.96276.96276 1.7481 1.5298 2.9453 2.1265 1.0155.50616 1.7514.76888 2.7816.99313.61305.13345.85673.14916 2.258.14564 1.5571-.0039 2.2288-.08086 2.2231-.25465-.0012-.036-.25703-.58086-.56854-1.2108-1.2416-2.5109-2.0288-5.4105-2.1251-7.8284l-.0394-.98896-1.092-1.4654c-.60058-.80596-1.2376-1.6237-1.4157-1.8171l-.32374-.35176-.47845.30951c-1.5069.97479-3.2287 1.4248-4.6543 1.2163-1.5139-.22136-2.6969-.86048-3.9987-2.1604-.82073-.81952-1.5835-1.8786-1.959-2.7198-.42088-.94299-.54375-1.1867-.77526-1.5378-.44968-.68192-1.733-1.9182-2.546-2.4528-.15299-.10058-.27816-.21904-.27816-.26324 0-.0442.23827-.18928.52948-.3224 1.5519-.70938 3.4763-1.0852 5.5573-1.0852 4.5691 0 7.9767 1.8164 8.9018 4.7451.2275.72021.25395 1.8966.06407 2.8501l-.14814.74395.38934.36277c1.2054 1.1231 2.1266 1.9335 2.1979 1.9335.05272 0 .08744-.1264.09887-.35997.0776-1.586.39187-3.5005.73346-4.4683.10886-.30844.19785-.58524.19775-.61512-.000131-.02988-.26627-.32743-.59149-.66123-.62627-.64279-1.1911-1.4443-1.5037-2.1337-.64101-1.4137-.68905-3.2384-.13029-4.9483 1.3777-4.2161 6.3547-8.4642 11.383-9.7164.34479-.085857.74806-.17536.89617-.19889l.26928-.042787.10474.67511c.80119 5.1643.39091 9.6397-1.1691 12.754-1.335 2.6646-3.5927 4.3585-6.5518 4.9156-.5138.09674-.76672.17401-.80367.24553-.12811.24797-.45586 2.2311-.60676 3.6713-.13631 1.301-.11491 5.2585.03381 6.2504.18196 1.2135.42282 2.281.70883 3.1416.44439 1.337 1.3469 3.0434 1.6097 3.0434.19175 0 1.5944-.73824 2.2187-1.1678 2.3994-1.6508 4.0797-4.1526 4.6734-6.9582.20655-.97606.27174-1.0096.23476-.12067-.07973 1.9168-.78397 3.9469-1.9779 5.7014-.27176.39938-.47814.7421-.45862.76162.01951.01952.31151-.24553.64888-.58898 1.9214-1.9561 3.1816-4.4585 3.6421-7.2323.1241-.74754.22296-.53105.16859.36918-.16335 2.7048-1.0281 5.0964-2.6333 7.2835-.23585.32133-.41066.6024-.38847.62459.07047.07047 1.6246-1.5586 2.1389-2.242 1.7055-2.2663 2.6069-4.4549 3.1117-7.5548.02965-.18206.04902-.20567.09756-.11893.08468.15132-.04239 2.0261-.19941 2.9421-.41983 2.4491-1.5069 4.8862-3.0978 6.9447-.21625.27982-.37334.52861-.3491.55285.08088.08088 2.0989-2.0327 2.6696-2.796 1.88-2.5145 3.0215-5.1904 3.5215-8.2551.07265-.44525.13209-.83338.1321-.8625 7e-6-.02912.03385-.03204.0752-.0065.09654.05967.03106 1.713-.11145 2.814-.42046 3.2483-1.7805 6.4675-3.8134 9.0262-.84331 1.0614-.53517.88888.8034-.44991 3.3263-3.3268 5.3377-7.2566 6.1166-11.95.10948-.65971.21809-1.2173.24135-1.2392.10039-.09424-.033 2.93-.16856 3.8218-.60807 4.0003-2.1579 7.5059-4.7018 10.635-.72767.89518-2.2128 2.3703-3.121 3.0999-2.6154 2.1012-5.9843 3.7008-9.1629 4.3506-1.8529.37882-3.9072.53069-5.7268.42336z" fill="#abc495"/>
  <path d="m21.533 42.646c-8.4834-.56008-15.844-6.0013-18.848-13.933-.86453-2.2826-1.2971-4.4824-1.3449-6.8394-.030553-1.5069.00694-1.5283.22908-.1309.5719 3.5975 2.1309 7.0796 4.498 10.046.79318.99414 2.9082 3.0895 3.0128 2.9848.017959-.017958-.20397-.32682-.49318-.68637-1.7856-2.2199-3.1184-5.0434-3.6751-7.7855-.27511-1.3552-.49756-3.9321-.34745-4.0249.039998-.02472.083939.09523.11037.30129.10433.81346.44681 2.3113.72925 3.1894.83547 2.5974 2.1926 4.902 4.0976 6.9582.6208.6701 1.4839 1.4516 1.5405 1.3949.01807-.01807-.158-.2777-.39128-.57695-1.4526-1.8634-2.5883-4.2959-3.0193-6.4672-.21819-1.099-.3125-1.9988-.28814-2.7489l.020194-.62177.21427 1.0799c.49764 2.508 1.6144 4.9026 3.1897 6.8394.55006.67628 1.9107 2.0374 1.9736 1.9744.02326-.02326-.09083-.21196-.25354-.41933-1.6412-2.0918-2.6756-4.7895-2.7795-7.2492-.021275-.50396-.023066-.90156-.00398-.88356.019087.018.099353.3567.17837.75266.41678 2.0886 1.4562 4.2546 2.8265 5.8904.55105.65778 1.4133 1.5095 1.4703 1.4524.02042-.02042-.14565-.2887-.36905-.59618-1.0954-1.5077-1.8227-3.317-2.0623-5.1302-.10812-.8184-.12606-1.5082-.03352-1.2893.03043.07199.13233.47081.22643.88626.46244 2.0415 1.5902 3.9973 3.1875 5.5277.88307.8461 1.7141 1.4332 2.7722 1.9583 2.1282 1.0562 4.2404 1.3989 6.6213 1.0742.294-.04009.5738-.09798.62176-.12865.06804-.0435.0131-.19612-.24998-.69441-.99253-1.8799-1.7238-4.0232-2.1831-6.3982-.07657-.39597-.17481-1.2501-.2183-1.898l-.07908-1.1781-.97314-1.309c-1.0873-1.4625-1.7343-2.258-1.8367-2.258-.03757 0-.22694.10683-.42083.2374-.19388.13057-.63527.3794-.98086.55295-2.7097 1.3608-5.4222.86431-7.7006-1.4095-.953-.95105-1.6168-1.9273-2.1578-3.1737-.15752-.36288-.44246-.88758-.6332-1.166-.43976-.64187-1.351-1.5525-2.168-2.1666-.34902-.26233-.61608-.5069-.59348-.54348.02261-.03658.23524-.15362.4725-.26007 1.5364-.68935 3.6272-1.1031 5.5745-1.1031 3.196 0 6.076.99472 7.6366 2.6376.57626.60666.955 1.2358 1.2181 2.0237.19288.57749.2027.65731.19964 1.6218-.0025.79784-.03145 1.1234-.13541 1.5247-.15619.60286-.23312.46912.80025 1.3912.39597.35332.93491.8476 1.1977 1.0984.26855.25635.50109.4302.5311.39705.02936-.03243.08753-.51976.12927-1.083.12408-1.6745.3936-3.0939.76263-4.0163l.17379-.43441-.51931-.50238c-.98272-.95067-1.6543-2.0475-1.9622-3.2048-.14601-.54873-.16912-.76956-.16928-1.6172-.000196-1.0456.07328-1.5124.38462-2.4437 1.3081-3.9126 5.7179-7.8682 10.478-9.3981.78361-.25188 1.93-.51221 1.9877-.45139.07917.083306.37661 2.2878.4621 3.4249.09665 1.2855.04084 4.0809-.10176 5.0971-.24766 1.7648-.72148 3.4621-1.3072 4.6824-1.3062 2.7216-3.6693 4.5479-6.5318 5.048-.93409.16321-.90916.14065-1.0768.97444-.39595 1.969-.56097 3.7718-.5635 6.1562-.0024 2.2719.144 3.5651.60686 5.3602.43483 1.6864 1.5142 3.9008 1.9014 3.9008.2112 0 1.7632-.82676 2.3674-1.2611 2.2901-1.6464 3.8185-3.9201 4.4758-6.6582.09936-.41396.20509-.78064.23494-.81484.13634-.15618-.03574 1.5206-.23861 2.3252-.41822 1.6586-1.0826 3.0422-2.127 4.4292-.11519.15299-.17429.27816-.13135.27816.12641 0 1.0199-.899 1.5612-1.5708 1.4506-1.8004 2.2455-3.5136 2.7911-6.0156l.15111-.69293.0056.61336c.01103 1.2036-.35195 2.9774-.88512 4.3252-.48622 1.2292-.93148 1.9904-2.1127 3.612-.05003.06868-.0737.14214-.0526.16324.06523.06523 1.4062-1.2824 1.9628-1.9726 1.603-1.9876 2.7005-4.3333 3.1848-6.8067.24389-1.2457.26336-1.2592.23541-.16362-.07945 3.1139-1.2535 6.2465-3.3544 8.9502-.23077.29698-.38953.53996-.35281.53996.12083 0 1.1206-.92756 1.7234-1.599 2.5573-2.8481 4.0646-6.0794 4.6733-10.018l.05057-.32724.04253.32724c.10763.82818-.14597 2.9921-.52924 4.516-.65599 2.6081-1.7382 4.7998-3.4517 6.9907-.30439.38917-.54031.72069-.52428.73673.05308.05308.9876-.79064 1.7518-1.5816 3.1278-3.2373 5.213-7.5075 5.8293-11.938.14075-1.0117.2016-.8185.16494.52359-.06901 2.5265-.56389 4.945-1.4854 7.2592-2.8841 7.2432-9.4681 12.409-17.145 13.451-.86628.11763-2.5198.23519-3.1368.22302-.23398-.0046-.79357-.03269-1.2435-.0624z" fill="#a2bd88"/>
  <path d="m20.78 42.582c-3.0316-.31288-6.0173-1.2672-8.5757-2.7409-5.9122-3.4057-9.8385-9.2602-10.733-16.004-.10296-.77612-.21448-3.3039-.14288-3.2388.020351.0185.11052.47556.20038 1.0157.76266 4.5843 2.8248 8.6243 6.0634 11.879.73155.73514 1.499 1.4007 1.553 1.3467.017958-.017958-.21154-.3361-.50999-.70699-2.4392-3.0312-3.7853-6.5096-4.0523-10.472-.090607-1.3444-.0052-1.5634.18331-.47017.64379 3.7336 2.286 6.9939 4.8876 9.7038.66559.69327 1.3985 1.3468 1.4512 1.294.016-.016-.23393-.37833-.55541-.80516-.70767-.93959-1.1352-1.618-1.5871-2.5185-.96038-1.9137-1.5374-4.0996-1.6047-6.0788-.034931-1.0271.028042-.99727.23243.11023.39834 2.1585 1.4297 4.446 2.865 6.3547.75094.99858 2.2412 2.5241 2.3548 2.4105.01773-.01773-.19085-.32838-.46351-.69033-1.5824-2.1006-2.5502-4.7003-2.6325-7.0714-.015648-.45057-.014806-.78977.00187-.75377.016678.036.10737.4144.20154.84091.44429 2.0123 1.348 3.9285 2.578 5.4666.49272.61611 1.6867 1.8176 1.7467 1.7576.02055-.02055-.17054-.32683-.42465-.68062-1.0477-1.4586-1.7141-3.0171-1.9964-4.6684-.11365-.66487-.20658-1.8176-.14162-1.7566.02534.02378.11527.34775.19984.71994.74518 3.2795 2.8588 6.0419 5.792 7.5699 2.111 1.0996 4.3561 1.518 6.5675 1.2236.80867-.10763.95911-.14564.95911-.24234 0-.03782-.24483-.55861-.54406-1.1573-1.2109-2.4228-1.9935-5.246-2.1515-7.7622l-.07387-1.1759-1.0274-1.3766c-1.1164-1.4958-1.6851-2.1947-1.7859-2.1947-.03544 0-.2456.11442-.46703.25426-.58966.3724-1.374.75266-1.9489.9448-1.4476.48386-2.9449.43166-4.3127-.15038-1.8145-.77214-3.5668-2.637-4.5215-4.812-.17381-.39597-.45538-.9261-.62571-1.1781-.40558-.6-1.4655-1.6567-2.2247-2.2178-.33267-.24591-.58982-.47144-.57143-.5012.11468-.18556 1.7543-.77428 2.7874-1.0008 1.263-.27698 1.8491-.33645 3.2975-.3346 2.3239.003 4.0404.37809 5.7373 1.2539 1.6432.84808 2.7043 2.0601 3.1426 3.5897.20898.72926.20779 2.0266-.0026 2.8761l-.14591.58904.25212.22907c.13867.12599.73182.66664 1.3181 1.2014.5863.5348 1.0895.94713 1.1182.91629.02872-.03085.08602-.49787.12735-1.0378.12903-1.6859.4097-3.1715.76852-4.0679l.16812-.42002-.65841-.67673c-1.2314-1.2657-1.8033-2.4157-1.9794-3.9802-.22124-1.9662.54107-4.22 2.1594-6.3842.57317-.76652 2.0377-2.2593 2.8842-2.94 1.6995-1.3664 3.773-2.5211 5.5959-3.1162.69972-.22842 2.1297-.58861 2.1713-.54694.05389.053886.26622 1.3772.37973 2.3665.14856 1.2948.20156 3.8365.1049 5.0312-.41078 5.0777-2.2382 8.4285-5.482 10.052-.66246.33157-1.7235.68335-2.4754.82073-.32397.05919-.65399.12046-.73336.13616-.17675.03495-.22782.19973-.44466 1.4347-.485 2.7621-.61645 6.0931-.3304 8.3725.301 2.3986.98426 4.5097 1.9451 6.0099.2257.35241.31608.44177.44673.44172.09008-3.3e-5.47873-.15941.86367-.35417 3.0864-1.5616 5.2185-4.2757 6.0182-7.661.08107-.34321.17397-.62402.20645-.62402.07022 0 .01308.69719-.12874 1.5708-.28196 1.7368-1.0918 3.5518-2.2851 5.1214-.6758.88889.74655-.39474 1.5411-1.3908 1.212-1.5194 2.1178-3.3449 2.5257-5.0901.09024-.38618.20441-.86412.25369-1.0621l.08961-.35997.0065.51169c.01326 1.0444-.33619 2.798-.81103 4.0697-.44975 1.2046-1.2175 2.5709-2.0201 3.5948-.58893.75136-.32288.60897.63387-.33926 2.2685-2.2483 3.7205-5.0067 4.3665-8.2951.07778-.39597.15721-.73466.17651-.75266.08015-.07477-.05562 1.861-.18302 2.6096-.45184 2.6547-1.4589 4.9339-3.1484 7.126-.28438.36897-.48749.67085-.45136.67085.10669 0 .9103-.71978 1.5046-1.3476 2.5432-2.6868 4.1945-5.9822 4.851-9.6805.07668-.43196.1553-.80011.17472-.81811.07046-.06531-.04304 2.2102-.14365 2.8798-.05679.37797-.22306 1.1732-.3695 1.7671-.6545 2.6547-1.7773 4.9013-3.6027 7.2085-.24604.31098-.44734.58541-.44734.60986 0 .17781 1.8308-1.563 2.6815-2.5497 2.5514-2.9592 4.3039-6.7304 4.9119-10.57.08266-.52196.17879-.97846.21362-1.0145.04083-.0422.0496.34138.02469 1.0799-.14063 4.1696-1.3856 7.973-3.7666 11.507-.89383 1.3267-2.4692 3.0808-3.7706 4.1983-3.3054 2.8385-7.3491 4.5848-11.748 5.0734-.95614.1062-3.5673.12248-4.4833.02795z" fill="#9dba82"/>
  <path d="m20.618 42.55c-4.366-.47562-8.4759-2.2503-11.75-5.0737-2.2275-1.921-4.021-4.2318-5.303-6.8327-1.1423-2.3175-1.7844-4.4427-2.0935-6.9293-.11073-.89072-.20662-2.9772-.13373-2.9099.02601.02401.1183.45652.20508.96114.64065 3.7251 2.1463 7.0761 4.4989 10.013.95966 1.1978 2.9742 3.19 3.0993 3.0649.022301-.0223-.037626-.13691-.13317-.25468-2.5658-3.1627-3.8949-6.2044-4.3277-9.9044-.088722-.75846-.13879-2.2526-.073167-2.1833.014203.015.10147.44082.19392.94626.31763 1.7365.803 3.1931 1.6129 4.8405.56951 1.1584 1.3246 2.3572 2.082 3.3052.82388 1.0313 2.5704 2.7651 2.6775 2.658.01643-.01643-.20456-.33404-.49109-.7058-1.2832-1.6649-2.0904-3.2024-2.6913-5.1264-.3611-1.1562-.66345-2.9945-.65892-4.0062.00238-.53148.079537-.44629.1903.21013.47361 2.8068 1.9437 5.7093 4.0108 7.9188.56256.60131 1.2863 1.2416 1.3412 1.1866.01739-.01739-.14468-.2632-.36016-.54626-1.5323-2.0129-2.4209-4.1183-2.7285-6.4647-.099399-.75826-.13151-1.4609-.063654-1.3931.019738.01974.10587.34561.19141.72417.52523 2.3244 1.5729 4.3278 3.2356 6.1871.44296.49533 1.1133 1.0864 1.169 1.0307.01748-.01748-.16409-.29483-.40347-.61634-1.2633-1.6967-1.9857-3.5568-2.199-5.6623-.03964-.3913-.05668-.72685-.03787-.74567.04303-.04303.05914.0093.2371.76991 1.2219 5.2228 6.1022 8.9259 11.444 8.6836.9293-.04215 1.6853-.14777 1.8189-.25411.05824-.04635-.02953-.26755-.34105-.85954-1.3312-2.5297-2.3226-6.1005-2.3226-8.3656l-1.4e-5-.82836-.38257-.51334c-.21041-.28234-.68208-.91714-1.0481-1.4107-.83887-1.131-1.3656-1.7534-1.4838-1.7534-.05062 0-.30183.13572-.55825.30159-.61464.39761-1.3979.76029-2.1235.98322-.54404.16716-.67306.18094-1.7013.18165-1.0452.000726-1.1463-.01037-1.669-.18324-1.211-.40056-2.1903-1.0451-3.2147-2.1159-.60763-.63513-1.3791-1.6991-1.6742-2.3089-.078393-.16199-.29052-.60783-.47139-.99076-.51277-1.0856-1.4593-2.1564-2.6981-3.0524-.28344-.205-.51535-.40595-.51535-.44656 0-.15688 1.345-.67702 2.4457-.94581 1.2745-.31121 2.1529-.41286 3.5756-.41377 2.6057-.0017 4.7334.54116 6.4446 1.6442 2.1307 1.3734 3.0169 3.4975 2.4777 5.9384-.0558.25258-.11506.51907-.13168.5922-.02397.10541.24136.38014 1.28 1.3253.72062.6558 1.3386 1.1924 1.3732 1.1924.03465 0 .08259-.28716.10652-.63813.12308-1.8047.39427-3.3538.7679-4.3864l.19692-.54422-.6264-.64553c-.68379-.70468-1.2464-1.5096-1.5427-2.207-1.0228-2.4076-.44358-5.2675 1.6414-8.104.59131-.80445 2.293-2.5302 3.1313-3.1754 1.9143-1.4736 4.0859-2.6035 6.0276-3.1361.9753-.26755 1.1698-.31854 1.3778-.36118.17121-.035099.17449-.028736.27676.53672.19497 1.078.30182 2.0787.3808 3.5666.33598 6.3289-1.4049 10.923-4.9334 13.02-.92567.54993-2.4293 1.0777-3.4247 1.2021-.19474.02433-.39775.07781-.45114.11884-.20487.15746-.62964 2.9139-.75765 4.9167-.28809 4.507.35166 8.0363 1.9411 10.708.17344.29157.36173.55496.41843.5853.12833.06868.88346-.25127 1.6405-.69508 2.0555-1.205 3.7552-3.1016 4.6878-5.2306.30341-.69264.43067-1.0658.68079-1.9962l.18474-.68721-.03057.68721c-.05051 1.1355-.43222 2.5546-1.0179 3.7846-.3145.66043-.95223 1.6881-1.3631 2.1966-.2259.27958-.26678.40809-.10016.31484.26985-.15102 1.406-1.3669 1.9312-2.0668 1.1903-1.5861 2.0407-3.456 2.3848-5.2438.1457-.75699.22086-.89572.22344-.41241.0049.91462-.36273 2.8239-.75359 3.9139-.42844 1.1948-1.0993 2.422-1.9424 3.5529-.28942.38825-.51279.71933-.49638.73574.05501.05501.93126-.73135 1.4326-1.2857 1.966-2.1736 3.2297-4.6153 3.8237-7.3881.24111-1.1255.28254-1.2367.28899-.77596.0028.20317-.02507.6744-.06203 1.0472-.30765 3.1033-1.44 5.8762-3.4381 8.419-.20586.26199-.35848.49216-.33914.5115.05496.05496.86996-.67353 1.5463-1.3822 2.4687-2.5867 4.0963-5.727 4.7588-9.1814.24659-1.2859.29674-1.3201.25821-.17614-.08609 2.556-.81015 5.2202-2.0712 7.6212-.59098 1.1252-1.3417 2.2365-2.3348 3.456-.58837.72257.36029-.01976 1.5072-1.1794 3.1873-3.2226 5.317-7.4501 5.9837-11.878.06098-.40497.13948-.7363.17444-.7363.08354 0 .0081 1.7555-.1197 2.7864-.27576 2.224-.73994 3.9732-1.5792 5.951-3.0574 7.2049-9.8306 12.201-17.655 13.022-1.1648.12232-3.4163.12065-4.5549-.0034z" fill="#95b578"/>
  <path d="m21.435 42.616c-.10799-.0149-.52032-.05949-.91629-.0991-3.6485-.36498-7.4596-1.8613-10.459-4.1064-5.1415-3.849-8.2314-9.5126-8.6826-15.915-.036782-.52196-.067168-1.0595-.067524-1.1944-.00113-.42987.10478-.26427.18838.29452.24433 1.6332.93913 3.9566 1.6448 5.5002 1.051 2.299 2.3909 4.2812 4.1067 6.0754.79513.83146 1.8314 1.7597 1.9644 1.7597.10231 0 .038063-.09264-.61278-.88356-2.1138-2.5687-3.5078-5.9347-3.9169-9.4574-.096321-.82944-.13962-1.9567-.072579-1.8897.016602.0166.10518.41478.19683.88484.59138 3.033 1.8455 5.7407 3.7695 8.1388.86799 1.0818 2.6831 2.8253 2.6783 2.5726-.000524-.02903-.21132-.31786-.46837-.64183-1.9375-2.4419-3.1106-5.3417-3.3924-8.3861-.07566-.81741-.068612-1.2326.017077-1.0059.020406.054.11589.46632.2122.91629.2452 1.1457.62024 2.2304 1.1541 3.3379.54196 1.1243.87505 1.6777 1.6019 2.6613.76429 1.0343 2.4351 2.7395 2.5609 2.6137.01699-.01699-.21822-.36405-.52269-.77125-1.6089-2.1518-2.4694-4.3984-2.7027-7.0562-.054712-.62342.044566-.54736.19659.15061.39886 1.8313 1.3718 3.8629 2.5698 5.366.70331.88244 1.7966 1.9549 1.8938 1.8578.02043-.02043-.18638-.34059-.45958-.71147-1.1169-1.5162-1.8117-3.1567-2.1013-4.9612-.05487-.34197-.09779-.76902-.09537-.94901.0041-.30472.0191-.27319.21801.45814.41445 1.5238 1.0201 2.7968 1.8994 3.9924.52954.72002 1.7759 1.939 2.5246 2.4692 1.2045.85297 2.8535 1.5664 4.3524 1.8829.95244.20115 2.6971.24947 3.6979.10242.41396-.06083.78139-.13891.81649-.17351.04131-.04071-.01215-.1951-.15152-.43759-1.4076-2.4492-2.5573-6.4459-2.5646-8.9158l-.0022-.75266-1.1065-1.4814c-.60857-.81476-1.263-1.6468-1.4543-1.8489l-.34782-.36752-.35997.23397c-1.4468.94037-2.9485 1.3964-4.338 1.3173-1.6075-.09151-2.9893-.76146-4.3412-2.1047-1.0017-.99531-1.6274-1.9047-2.1848-3.176-.17042-.38862-.46255-.92745-.64917-1.1974-.39428-.57035-1.5158-1.682-2.2506-2.2307-.38826-.28996-.49371-.40106-.44098-.4646.1228-.14796 1.446-.63551 2.3237-.85618 1.1936-.3001 2.3405-.4364 3.6671-.43581 3.2808.0014 5.9965.95534 7.6286 2.6795.42301.44689.58534.68121.84357 1.2178.17587.36542.37047.87057.43244 1.1225.14859.60419.14566 1.7895-.0061 2.4543-.19796.86739-.20667.79929.14386 1.1253 1.3227 1.23 2.2865 2.0817 2.3558 2.0817.10026 0 .13539-.21324.18871-1.1454.08035-1.4047.42635-3.2319.76014-4.0142.06655-.15597.121-.32986.121-.38642 0-.05656-.17998-.26571-.39994-.46477-.90712-.8209-1.7327-2.1444-2.0273-3.2503-.19822-.74396-.24299-2.0904-.09576-2.8798.6345-3.4018 3.6312-6.9796 7.7589-9.2634 1.1529-.63791 2.3977-1.1477 3.5152-1.4396.42444-.11086.84534-.22699.93534-.25807.08999-.031076.241-.073274.33557-.093775l.17194-.037273.13862.89915c.49812 3.2309.49868 6.2747.0017 8.8512-.50513 2.6184-1.4752 4.6316-2.9347 6.0902-1.2778 1.277-2.7912 2.0554-4.7178 2.4267-.41302.0796-.78586.17118-.82854.20352-.15003.11369-.44794 1.7519-.65178 3.584-.14355 1.2902-.16581 5.0424-.03611 6.0868.23252 1.8723.76007 3.7985 1.389 5.0715.39519.79994.81192 1.4633.95338 1.5175.14283.05481 1.6926-.72625 2.3426-1.1806 2.2762-1.5912 3.843-3.8151 4.5519-6.4607.10788-.40265.21594-.7503.24014-.77255.07829-.07199-.04086 1.0482-.17984 1.6909-.37491 1.7336-1.0833 3.227-2.291 4.8294-.11511.15274-.19282.29417-.1727.31429.068.068.83421-.62614 1.3969-1.2655 1.4936-1.6972 2.6827-4.036 3.0766-6.0514.23726-1.2139.28077-.356.05228 1.0308-.36418 2.2104-1.187 4.1368-2.5262 5.9144-.28838.38278-.53989.73621-.55891.7854-.1568.40543 1.7345-1.4636 2.4629-2.4339 1.4803-1.9719 2.4633-4.1485 2.9248-6.4764.06263-.31587.12844-.55973.14626-.54191.06037.06037.0095 1.0471-.09119 1.7707-.38484 2.7642-1.5468 5.4255-3.3367 7.6424-.7755.96051-.4729.8177.70886-.33452.94684-.92318 1.5336-1.5937 2.1566-2.4647 1.5598-2.1805 2.5782-4.525 3.1201-7.1828.27638-1.3555.33067-1.2709.20375.3175-.2981 3.7309-1.6608 7.1376-4.0365 10.091-.8759 1.0889-.80964 1.1278.27591.16221 3.6445-3.2418 6.1376-7.8614 6.9095-12.803.1345-.86108.20399-.4358.12732.77924-.19945 3.1609-.92325 5.8329-2.3304 8.603-1.8811 3.703-4.7568 6.7378-8.4265 8.8927-2.3855 1.4008-5.1189 2.3217-8.0941 2.7268-.71117.09684-3.7669.18633-4.2215.12362z" fill="#87ab66"/>
  <path d="m21.631 42.613c-1.8154-.14682-3.2097-.39179-4.7506-.83464-5.6845-1.6337-10.514-5.6427-13.208-10.964-1.3748-2.7157-2.1853-5.7713-2.2673-8.5487l-.03094-1.0472.22524 1.0799c.43313 2.0767 1.0116 3.783 1.8637 5.4977 1.1682 2.3506 2.4548 4.0968 4.4368 6.0213.96502.93706 1.4593 1.3403 1.4593 1.1905 0-.03325-.25216-.36626-.56036-.74-2.1908-2.6567-3.5829-5.8418-4.0445-9.2534-.11937-.88218-.20567-2.1762-.14105-2.1147.026071.0248.11654.39295.20105.81811.69264 3.4847 2.3683 6.6723 4.8762 9.2761.6041.6272 1.4883 1.4125 1.5904 1.4125.10131 0 .01232-.14366-.42839-.69164-1.0471-1.3019-1.981-2.9347-2.5373-4.436-.50452-1.3616-.92583-3.4068-.91386-4.4363l.00561-.48247.1478.65449c.4635 2.0525 1.1531 3.6983 2.2498 5.3691.62996.95973 1.0668 1.4974 1.9317 2.3776.75353.76691 1.2065 1.1596 1.2674 1.0988.02274-.02274-.18532-.33567-.46236-.69539-.6558-.85152-1.0883-1.5541-1.5523-2.5215-.68203-1.4219-1.1333-3.0528-1.2043-4.3524l-.033961-.62176.19172.68721c.75895 2.7204 1.9081 4.6901 3.7897 6.4958.55145.52921.73218.65724.73218.51867 0-.0297-.13682-.22851-.30404-.44178-.97196-1.2396-1.7192-2.7173-2.084-4.1213-.17182-.66131-.3944-2.047-.33788-2.1035.0191-.0191.08229.13778.14042.34863.61317 2.2242 1.5678 3.9035 3.0541 5.3726 2.2053 2.1798 4.885 3.2909 7.9334 3.2896 1.0576-.000458 2.2219-.12542 2.3485-.25206.04645-.04645-.10825-.42144-.49513-1.2001-.30948-.62292-.712-1.5369-.89448-2.0311-.78421-2.1238-1.3107-4.6797-1.3107-6.363v-.53913l-1.1744-1.5647c-.64593-.86057-1.2923-1.6972-1.4363-1.8592-.25291-.28443-.26747-.29116-.42501-.19635-1.4017.84356-1.851 1.0522-2.8527 1.325-.73548.20025-2.0626.19804-2.8119-.0047-2.125-.57485-4.144-2.397-5.2128-4.7044-.41103-.88735-.59505-1.2376-.86965-1.6555-.33238-.50572-1.4337-1.5929-2.1565-2.1286-.71437-.52956-.72955-.48332.28943-.88172.82693-.32331 1.6318-.54146 2.7039-.73282 1.1067-.19754 3.582-.21569 4.658-.03416 3.285.55421 5.5545 1.9816 6.4146 4.0345.29891.71337.40991 1.4197.36561 2.3263-.02115.43292-.08371.94912-.13901 1.1471-.18129.64899-.21059.59867.96144 1.6512.58495.52533 1.165 1.0608 1.2891 1.19.12405.12917.26339.23486.30964.23486.11039 0 .1285-.10944.21625-1.3065.11719-1.5986.39838-3.0352.77992-3.9847l.14058-.34982-.60054-.61104c-.71936-.73194-1.0873-1.2389-1.4711-2.0272-.45686-.93828-.56815-1.4554-.57048-2.6507-.0014-.72247.0297-1.1527.10808-1.4947.46622-2.0346 1.509-3.8092 3.3474-5.6965 1.7801-1.8275 3.8748-3.2495 6.1719-4.1896.76622-.31361 1.8845-.66794 2.4172-.76592.13657-.025119.26304-.066243.28104-.091387.018-.025144.12484-.063616.23742-.085494.2025-.03935.20507-.036473.23969.26787.01925.1692.09485.71997.16801 1.2239.26767 1.8439.3563 4.5083.20464 6.1522-.20968 2.2729-.8296 4.5691-1.6168 5.9886-1.4798 2.6685-3.6154 4.1285-6.8578 4.6885l-.32724.05652-.1121.44887c-.37987 1.521-.57845 3.3989-.62172 5.8793-.05692 3.2629.21159 5.2435.99705 7.3543.39234 1.0544 1.1433 2.437 1.414 2.6035.14197.0873.64059-.11742 1.548-.63556 2.5998-1.4846 4.5562-3.9571 5.323-6.7275.11292-.40794.22902-.78578.25799-.83964.08259-.15353-.0031.68638-.14184 1.3906-.33907 1.7209-1.054 3.2696-2.2206 4.8107-.17832.23555-.32421.45334-.32421.48397 0 .13245.15673.02308.69396-.48427 1.8396-1.7373 3.1423-3.9642 3.7997-6.4958l.22095-.85084-.03122.62456c-.11278 2.2563-1.2101 5.0149-2.7912 7.0166-.76231.96512-.53994.91893.52062-.10814 2.2881-2.2158 3.7012-4.743 4.4684-7.9912.14452-.61187.15594-.63544.17541-.36198.05808.81569-.39717 3.1049-.89078 4.4793-.52964 1.4747-1.5238 3.2224-2.5618 4.5038-.86745 1.0707-.45305.87099.84477-.40721 2.7508-2.7092 4.5945-6.1803 5.2409-9.8664.04576-.26098.104-.4745.12943-.4745.09964 0-.07981 1.9986-.27033 3.0107-.5796 3.0791-1.9384 5.951-3.9732 8.3973-.26355.31686-.4689.60697-.45632.64469.03458.10373.64589-.40294 1.5473-1.2824 3.3753-3.2934 5.4504-7.2699 6.3035-12.079l.08707-.49087.02099.45814c.0289.63077-.09524 1.974-.28726 3.1083-1.3686 8.0849-7.2728 14.717-15.18 17.052-.99254.2931-2.4385.58729-3.5351.71924-.8285.09969-3.2053.17446-3.8606.12146z" fill="#80a65d"/>
  <path d="m21.893 42.609c-2.5991-.16034-4.7023-.61696-6.9376-1.5062-4.0756-1.6213-7.5283-4.4096-9.954-8.0387-2.1778-3.2581-3.4627-7.1276-3.5951-10.826l-.0318-.88867.22862 1.0472c.81707 3.7425 2.154 6.5841 4.4496 9.4574 1.022 1.2792 3.0843 3.2703 3.3095 3.1952.039971-.01332-.18282-.33273-.49509-.70979-1.5683-1.8937-2.8399-4.2707-3.5326-6.604-.37695-1.2696-.69405-3.2233-.68028-4.1915.00682-.47923.0087-.4847.068197-.1983.69948 3.3669 1.8113 5.8281 3.734 8.2657.87118 1.1045 2.932 3.0781 2.932 2.8078 0-.03308-.22342-.33663-.4965-.67455-1.5001-1.8563-2.6328-4.1619-3.1314-6.3739-.19006-.84317-.36651-2.1206-.35983-2.605.00435-.31589.016406-.2887.1683.37968.52965 2.3307 1.688 4.7259 3.1706 6.5564.22813.28166.71041.80812 1.0717 1.1699 1.206 1.2076 1.5795 1.3583.76128.30718-1.5983-2.0533-2.6375-4.6214-2.7872-6.8881l-.036743-.55632.2253.78539c.32095 1.1188.52415 1.6589.96045 2.5525.4198.85985 1.0423 1.8324 1.6319 2.5495.52812.64234 1.7253 1.8028 1.8598 1.8028.13502 0 .12973-.0093-.39217-.68721-1.2323-1.6008-2.1122-3.7638-2.2231-5.465-.02508-.38468-.02078-.40348.04485-.19635.34424 1.0864.57232 1.6988.84101 2.258 1.5642 3.2555 4.6958 5.6169 8.301 6.2596 1.1915.2124 3.0993.1874 4.1186-.05395.20702-.04902.18587-.20959-.08953-.67948-.37871-.64617-.96958-1.997-1.3334-3.0484-.65364-1.8889-1.0731-3.9216-1.1519-5.582l-.04481-.94445-.94903-1.2808c-1.1457-1.5463-1.8195-2.3607-1.9531-2.3607-.05459 0-.19302.07011-.3076.15581-.63697.47635-1.8148 1.011-2.708 1.2293-.72628.17746-1.9282.19278-2.5881.03297-1.1931-.28892-2.2728-.90294-3.2652-1.857-1.0558-1.0149-1.7295-1.9713-2.2958-3.2589-.39404-.89597-.73708-1.416-1.3999-2.1222-.456-.48587-1.5799-1.4485-1.9059-1.6324-.1687-.09517-.069492-.16973.62312-.46833 1.7315-.74648 4.485-1.1309 6.5902-.92016 4.0556.40608 6.8321 2.1822 7.5281 4.8159.22215.84063.19079 2.096-.07597 3.0411l-.10096.35768.31872.29681c1.419 1.3214 2.3945 2.1692 2.465 2.1422.05863-.0225.10747-.34531.16185-1.0697.13103-1.7455.40445-3.2085.77079-4.1242l.17033-.42576-.5844-.59992c-.69838-.71694-1.031-1.153-1.3813-1.8107-1.613-3.029-.41142-7.0253 3.1388-10.439 2.2129-2.1279 5.0457-3.7597 7.7131-4.4429.46729-.11969.83399-.23325.8149-.25234-.01909-.019093.06558-.046423.18816-.060734.2008-.023443.22334-.009602.22759.13977.0026.091186.05192.43788.10962.77043.43095 2.4838.47121 5.9601.09494 8.1981-.30466 1.8121-.70861 3.093-1.3888 4.4039-.90846 1.7508-2.2825 3.1128-3.9391 3.9049-.69307.33138-1.8159.68546-2.5852.81521-.38384.06474-.65048.14357-.69682.20601-.10114.1363-.38648 1.6617-.54482 2.9126-.17049 1.3468-.28463 3.7886-.23235 4.9705.13978 3.1601.77754 5.675 1.9289 7.6065.35607.59731.47169.74203.60569.75811.23308.02797 1.7108-.73863 2.4655-1.279 1.1496-.82321 2.2166-1.9347 2.9691-3.0932.66784-1.0281.97178-1.7232 1.5454-3.5342.12715-.40147.02453.68164-.12422 1.311-.39789 1.6835-1.0413 3.0542-2.0858 4.4435-.25504.33921-.46371.64213-.46371.67316 0 .21756 1.3245-1.0319 2.0264-1.9117 1.182-1.4814 2.0922-3.3159 2.5329-5.105.22129-.89842.27837-.73602.12192.34689-.35034 2.425-1.2018 4.4116-2.7623 6.4446-.74948.97646-.42575.84936.73304-.28781 2.1419-2.1019 3.6187-4.8042 4.3234-7.9108.15168-.66869.19298-.47642.0971.45207-.30852 2.9876-1.5037 5.8509-3.468 8.3083-.25466.31859-.46302.60741-.46302.64183 0 .26102 1.9937-1.6384 2.8274-2.6937 1.8909-2.3935 2.985-4.6801 3.6918-7.7155l.2227-.95647-.0327.78539c-.07882 1.8934-.60608 4.0842-1.4595 6.0645-.6385 1.4816-1.5315 2.9373-2.6626 4.3405-1.0152 1.2594-.58635 1.0378 1.0023-.51794 1.0469-1.0252 1.6998-1.7714 2.4516-2.802 1.9424-2.6628 3.32-5.9594 3.8425-9.1958.04214-.26098.09316-.47451.11339-.47451.02022 0 .01685.39689-.0075.88198-.33266 6.6287-3.6406 12.652-9.0861 16.545-2.6774 1.9139-5.9962 3.2451-9.248 3.7094-1.5211.21722-3.0443.29675-4.2542.22212z" fill="#7aa356"/>
  <path d="m21.107 42.549c-.10799-.01464-.47614-.05848-.81811-.09742-7.0881-.80711-13.452-5.3157-16.656-11.801-1.3777-2.7884-2.0766-5.4595-2.2196-8.4833l-.032499-.68722.097281.42542c.36815 1.61.59052 2.4748.79049 3.0745 1.2035 3.6091 3.3562 6.8964 6.141 9.3779.64345.57336 1.0145.8326 1.0145.70886 0-.03451-.16448-.26352-.3655-.50891-2.5422-3.1032-3.8592-6.1174-4.3163-9.8786-.057396-.47224-.095111-.98766-.083811-1.1454.018151-.25332.038187-.2036.17198.4268.72952 3.4375 2.4986 6.6927 5.0117 9.2223.72319.72791 1.3839 1.2887 1.5183 1.2887.13087 0 .05545-.1299-.35571-.61273-2.033-2.3873-3.3445-5.6093-3.5736-8.7792l-.037846-.52359.25608.98174c.83891 3.2162 2.5235 5.993 4.8688 8.0258.70491.61097.7739.50602.16745-.25475-1.0062-1.2622-1.8161-2.7574-2.3065-4.258-.30691-.93906-.56457-2.1783-.55931-2.6901.00277-.26964.02496-.22455.223.45323.60862 2.083 1.5162 3.7083 3.0121 5.394.47249.53244 1.297 1.2818 1.4104 1.2818.13202 0 .04964-.14774-.44656-.80087-1.2126-1.5961-2.0341-3.607-2.1995-5.3841l-.03656-.39269.13213.42542c.44345 1.4278 1.0225 2.6296 1.7818 3.6979.58145.8181 1.7862 2.022 2.601 2.5993 2.0884 1.4796 4.6809 2.2527 7.0998 2.1172.95419-.05346 1.7947-.18438 1.8597-.2897.02727-.04413-.19592-.56539-.516-1.2051-1.2731-2.5444-2.1578-5.8343-2.1642-8.0481-.0015-.50846-.03142-.85099-.08181-.93549-.04372-.07332-.55936-.77543-1.1459-1.5602-1.1068-1.481-1.6059-2.0698-1.7547-2.0698-.04785 0-.27208.12021-.49827.26714-2.9208 1.8972-5.8873 1.6382-8.3921-.73277-.96167-.9103-1.7383-2.0321-2.2811-3.2951-.51152-1.1902-1.4387-2.2983-2.7809-3.3238-.33413-.25527-.58283-.48881-.55267-.51897.13399-.13399 1.4316-.60742 2.2074-.80534 1.3538-.3454 2.2367-.45229 3.7306-.45162 1.4571.000655 2.2202.09368 3.5317.43052 1.7038.43761 3.003 1.1292 3.9436 2.0993.8357.86191 1.3036 1.8023 1.4605 2.9352.10444.75437.04955 1.3498-.24428 2.6499-.03447.15251-.10726.07805 1.5841 1.6205.57595.52525 1.0959.95556 1.1554.95626.09132.0011.11523-.10873.15296-.70231.11209-1.7636.46392-3.7128.81231-4.5004.07552-.17072.1373-.359.1373-.41841s-.1744-.26153-.38755-.44916c-.88438-.77847-1.6696-2.0018-2.0052-3.1241-.23613-.78952-.29781-2.2198-.13118-3.0421.70393-3.474 3.6286-6.9251 7.828-9.2368 1.2606-.69396 3.2885-1.4503 4.2916-1.6008.17277-.025908.26694-.065698.22168-.093668-.04781-.02955.0021-.060475.12711-.07883.15089-.022146.19704-.007406.173.055252-.01804.047001.01041.32924.06321.62721.52602 2.9683.52175 6.7082-.01052 9.2339-.88744 4.211-2.9259 6.7919-6.2612 7.9271-.54588.18581-1.608.42745-1.8862.42913-.09341.000589-.21654.05262-.27361.11569-.17932.19815-.53272 2.2339-.71294 4.1068-.12728 1.3228-.10828 4.7224.03202 5.7268.27789 1.9894.73308 3.6168 1.3821 4.9414.39934.81502.82564 1.5003.96712 1.5545.12959.04973.95486-.31696 1.699-.75489 2.5168-1.4812 4.4308-3.9375 5.1997-6.6729.09854-.35055.19222-.62431.20818-.60835.05656.05656-.12736 1.1252-.31885 1.8527-.40954 1.5558-.98909 2.7132-2.0641 4.1221-.23322.30565-.41023.56952-.39336.58639.08556.08556.35178-.11321.9667-.72182.37253-.3687.84377-.87569 1.0472-1.1266 1.1964-1.4759 2.1424-3.366 2.595-5.1845.09175-.3687.17769-.65948.19098-.64619.04073.04074-.10786 1.1468-.25162 1.8729-.38361 1.9376-1.3631 4.0116-2.6428 5.5959-.20353.25198-.39817.50968-.43255.57268-.24449.44808.88048-.4679 1.7139-1.3955 1.8837-2.0965 2.9806-4.1311 3.7201-6.9001.18967-.7102.19234-.71518.1972-.36837.01116.79588-.34258 2.5164-.78893 3.8372-.47423 1.4033-1.62 3.4576-2.5736 4.6142-.55161.66906-.6679.85084-.54432.85084.14808 0 .98482-.74494 1.8366-1.6351 2.3296-2.4346 3.9286-5.4448 4.6628-8.7781.09829-.44625.19336-.82609.21127-.84409.0179-.018.01226.2618-.01255.62176-.25681 3.7266-1.6594 7.3208-3.969 10.171-.78855.97308-.79415.9808-.76792 1.0595.07132.21396 2.1489-1.7309 3.1787-2.9757 2.2931-2.7718 3.958-6.24 4.5976-9.5778.07439-.38821.16052-.80892.1914-.93491l.05614-.22907.0068.19963c.02817.83145-.2986 3.3109-.6101 4.6292-.21751.92055-.73504 2.4645-1.1456 3.4177-2.7324 6.3438-8.4134 11.039-15.156 12.527-1.488.32828-2.3379.41286-4.3524.43311-1.0619.01067-2.0191.0074-2.1271-.0072z" fill="#729c4b"/>
  <path d="m21.238 42.548c-3.1311-.31285-5.6567-1.0353-8.1811-2.3401-5.8527-3.0252-9.9266-8.43-11.254-14.931-.17911-.87696-.36497-2.4449-.35849-3.0242.00393-.35107.020803-.30644.22781.60258.26158 1.1487.39867 1.6264.76067 2.6507.75334 2.1317 2.0489 4.4519 3.4905 6.2511 1.2061 1.5052 3.567 3.7259 3.567 3.3551 0-.04596-.25998-.39491-.57774-.77545-2.5008-2.9949-3.9384-6.5529-4.229-10.467-.035743-.48133-.031551-.47172.21584.49488.8155 3.1863 2.0457 5.5661 4.1153 7.9607.78339.90642 2.1881 2.2126 2.3795 2.2126.14179 0 .02974-.19914-.40509-.71994-1.4471-1.7332-2.5998-4.0262-3.1375-6.2411-.21637-.8913-.39191-1.9707-.3847-2.3655.00397-.21729.030596-.16036.15662.33485.51201 2.012 1.4597 4.0011 2.6937 5.6537.7411.99254 2.5382 2.8143 2.7762 2.8143.13926 0 .04122-.18889-.3397-.65449-1.1459-1.4007-1.9638-2.9592-2.5141-4.7908-.15235-.50711-.42654-1.9781-.41692-2.2368.00596-.16045-.03087-.25922.37752 1.0124.45156 1.406 1.1317 2.7057 2.0635 3.9435.67121.89156 2.0525 2.2681 2.276 2.2681.13432 0 .02154-.20391-.42876-.77517-1.1368-1.4422-2.0649-3.5867-2.2279-5.148l-.04099-.39269.22154.62177c.72358 2.0307 1.5585 3.3566 2.9674 4.7123.90562.87146 1.7271 1.4551 2.8041 1.9921 1.0341.51568 1.7548.76971 2.8404 1.0012.76135.16236.93546.17536 2.2646.16908 1.5107-.0071 2.2201-.09445 2.3421-.28823.04926-.0783-.000459-.2162-.20282-.56272-1.3256-2.2698-2.4979-6.3975-2.4989-8.7987l-.000302-.7604-.317-.41768c-.17435-.22973-.65593-.87419-1.0702-1.4321-.81347-1.0957-1.4745-1.898-1.5636-1.898-.03066 0-.26537.13561-.52159.30135-.62732.40581-1.5389.82993-2.2544 1.0489-.53583.16399-.68364.1805-1.6362.18274l-1.0472.0025-.74231-.25408c-1.2458-.42646-2.4313-1.2706-3.3916-2.4151-.75243-.89676-1.0516-1.3869-1.7513-2.8695-.36689-.7774-.68245-1.2273-1.3391-1.9092-.35207-.3656-1.5-1.3302-1.7525-1.4726-.17563-.09906-.076528-.1694.66604-.47269.70563-.28821 1.8018-.5851 2.7803-.75304.83638-.14354 3.0536-.19842 3.9336-.09735 3.9701.45592 6.5871 2.1898 7.2567 4.808.16452.64332.1781 1.8178.02882 2.493-.21888.9899-.31777.78714.93146 1.91.60657.5452 1.2044 1.0969 1.3284 1.226.41482.43163.48866.31467.55034-.87166.08105-1.559.26761-2.5328.84358-4.4035l.07426-.24119-.65052-.67578c-.95405-.9911-1.4298-1.7701-1.7707-2.8997-.15989-.52974-.17834-.69446-.1833-1.6362-.0057-1.0917.05501-1.4979.36711-2.4543 1.2932-3.9633 5.9835-8.0561 10.831-9.4514.4381-.1261.94166-.24852 1.119-.27205l.32248-.042779.03796.2526c.34482 2.2944.43936 3.429.43928 5.2717-.000196 4.4193-1.0691 7.8125-3.1369 9.9578-.74454.77246-1.4353 1.2826-2.3196 1.713-.88427.43037-1.5449.64958-2.4955.82805-.91995.17272-.87592.15722-.94185.33156-.10327.27305-.3995 2.0324-.543 3.225-.11854.9851-.14255 1.548-.14656 3.4361-.0052 2.4543.03591 2.9796.36134 4.6142.33643 1.6898 1.0334 3.5029 1.7467 4.5437.379.55301.34619.55158 1.3367.05789 2.8047-1.3979 4.8522-3.7576 5.8387-6.7287.27238-.8204.30914-.62839.07625.39824-.39888 1.7583-1.1583 3.3433-2.2523 4.7011-.32196.3996-.41256.59468-.27618.59468.10808 0 .8029-.61316 1.3279-1.1718 1.5217-1.6194 2.6312-3.6007 3.2226-5.7549.30973-1.1283.13039.33002-.20391 1.6581-.44207 1.7562-1.3546 3.5572-2.5501 5.0327-.39511.48767-.50064.69409-.35488.69409.1027 0 .90281-.71722 1.5413-1.3816 1.9041-1.9814 3.2857-4.5085 3.9249-7.1789.06287-.26268.12882-.4631.14655-.44536.01773.01773-.0023.33574-.04452.70668-.33393 2.9339-1.5906 5.8388-3.5329 8.1668-.48066.5761-.52573.65608-.36968.65608.19106 0 1.4654-1.1586 2.2571-2.052 2.0782-2.3454 3.4275-4.8935 4.1986-7.929.2231-.87818.24985-.94584.25362-.64148.0023.18714-.04108.68579-.09644 1.1081-.43681 3.3322-1.9014 6.661-4.0825 9.2791-.91599 1.0995-.74331 1.1658.39311.15081 3.5104-3.1351 5.8486-7.1522 6.8653-11.795.18064-.82486.1865-.83884.19179-.45774.0071.50872-.15375 1.8983-.32566 2.8139-1.0522 5.6044-4.2167 10.502-8.8805 13.743-2.3467 1.631-5.0722 2.812-7.7952 3.3777-1.5043.31249-2.3397.39626-4.1659.41773-.97192.01143-1.8849.009-2.0289-.0054zm12.075-42.266c0-.013913.0868-.038036.19289-.053606.10609-.015571.17798-.004187.15976.025296-.03243.052474-.35265.078181-.35265.02831z" fill="#689b44"/>
  <path d="m20.684 42.488c-4.0299-.45977-7.5454-1.845-10.698-4.2151-2.743-2.0624-4.7917-4.5399-6.3773-7.7123-1.1336-2.268-1.8555-4.8106-2.1044-7.4116-.11593-1.2118-.058244-1.2635.18811-.16845.74947 3.3313 2.2181 6.3183 4.4487 9.0484.88496 1.0831 3.0469 3.1627 3.2879 3.1627.13315 0 .046944-.18805-.24069-.52502-2.2923-2.6855-3.6952-5.6365-4.2777-8.9978-.07485-.43196-.15078-1.0505-.16873-1.3744l-.032636-.58904.22535.85084c1.0115 3.819 2.8688 6.8847 5.6963 9.4023.35746.31828.70623.5787.77505.5787.12215 0 .12226-.0045.0046-.18803-.06631-.10341-.32128-.43475-.56659-.7363-1.2417-1.5263-2.2787-3.5077-2.8281-5.4036-.20742-.71576-.47122-2.0936-.51771-2.7041l-.037388-.49087.19068.68721c.78636 2.834 2.1692 5.239 4.1603 7.2353.53991.54131 1.1784 1.0768 1.2839 1.0768.13823 0 .03064-.19756-.40988-.75266-1.3329-1.6796-2.2537-3.6223-2.6362-5.5618-.28034-1.4216-.26099-1.5361.08302-.4913.53325 1.6195 1.3042 3.0637 2.3006 4.3095.6398.79997 1.9172 2.0381 2.1028 2.0381.13487 0 .13509-.0025.01614-.18749-.06631-.10312-.30644-.43208-.53363-.73101-1.0328-1.359-1.6977-2.828-2.0397-4.5061-.18562-.91083-.16282-.92968.13066-.10802 1.405 3.9335 4.5681 6.7132 8.6052 7.562.95259.20029 2.6988.24851 3.6979.10212.41396-.06066.79255-.14948.84129-.19738.07433-.07304-.0072-.28103-.50506-1.2887-1.3108-2.653-2.1688-5.9215-2.1688-8.2615v-.61823l-.38234-.51334c-.21029-.28234-.72258-.96985-1.1384-1.5278s-.90416-1.1764-1.0851-1.3744l-.32907-.35997-.1851.10533c-.1018.05793-.39126.23299-.64324.38902-.58105.3598-1.4136.71885-2.1271.91742-.79079.22006-2.1501.22337-2.9125.0071-2.172-.61623-4.3018-2.6454-5.301-5.0504-.39767-.9572-.7144-1.4123-1.5988-2.297-.45276-.45293-1.0388-.98133-1.3024-1.1742l-.47923-.35073.22614-.11602c1.5105-.77492 3.9225-1.2243 6.1634-1.1482 1.942.06592 3.4716.40572 4.9257 1.0942 1.7449.82616 2.8679 2.0196 3.3552 3.5656.20605.65372.25069 1.837.09753 2.5852-.22726 1.1103-.3619.85208 1.1706 2.2455.73998.67281 1.3899 1.2233 1.4443 1.2233.12503 0 .14973-.12696.1974-1.0145.08208-1.5282.34272-3.0181.69648-3.9812.10803-.29411.21178-.58177.23056-.63925.02225-.0681-.09541-.22771-.33774-.45814-1.5663-1.4895-2.2764-3.0204-2.2739-4.9023.0012-.89488.16616-1.853.44853-2.6047.20897-.55632.74369-1.6052 1.1151-2.1874.32465-.50886 1.1359-1.5372 1.4477-1.835l.18884-.1804 9.8093.033564.02084.78539c.06489 2.4457-.60057 5.3901-1.6567 7.3303-1.3518 2.4833-3.551 4.0406-6.3816 4.519-.34197.0578-.66221.14434-.71163.19233-.15322.14875-.46518 1.8963-.66612 3.7316-.11624 1.0617-.15612 4.4095-.06443 5.4091.25567 2.7875.93939 5.0216 2.0851 6.8135.13234.20697.29041.39247.35127.41224.13307.04321.81374-.24256 1.5099-.63391 2.5104-1.4112 4.3662-3.6572 5.29-6.4023.27908-.8293.32451-.76186.12466.18502-.26756 1.2676-.8454 2.7179-1.4828 3.7217-.13184.20761-.45969.66562-.72856 1.0178-.26887.35218-.47243.65676-.45235.67683.09204.09204.36621-.09982.96786-.6773 1.7702-1.6991 2.9403-3.6607 3.7197-6.2358l.12876-.42542-.03602.35997c-.01981.19798-.10848.71064-.19704 1.1392-.4163 2.0147-1.2578 3.7953-2.6092 5.5215-.30243.38628-.55064.72441-.55158.75141-.01341.38569 1.8971-1.4225 2.8525-2.6998 1.236-1.6524 2.1514-3.523 2.6502-5.416.11621-.44101.2229-.79022.2371-.77602.06434.06434-.21115 1.7923-.40806 2.5596-.61316 2.3892-1.6483 4.4192-3.2002 6.2759-.23739.28402-.43162.54173-.43162.57268 0 .24726.58132-.19808 1.6703-1.2796 2.3581-2.3419 4.0249-5.2701 4.8825-8.5776l.25509-.9838-.03539.55632c-.05661.88991-.21873 1.8578-.48784 2.9125-.70387 2.7586-1.9911 5.2279-3.8841 7.451-.39506.46394-.47603.63197-.30452.63197.12416 0 1.2444-1.0025 2.094-1.874 1.5836-1.6243 2.699-3.1649 3.737-5.1618.80829-1.5549 1.5393-3.5695 1.9119-5.2686.09076-.41396.18092-.81157.20034-.88356.06746-.25003-.03286 1.2477-.13152 1.9635-.91117 6.6108-4.734 12.328-10.52 15.732-2.336 1.3745-5.1207 2.3204-8.0272 2.7266-1.0649.14881-3.9643.18452-5.0378.06205z" fill="#669841"/>
  <path d="m21.402 42.549c-.12599-.01472-.52359-.05837-.88356-.09699-4.7777-.51265-9.2879-2.6681-12.726-6.0816-3.7053-3.679-5.8939-8.4146-6.322-13.679-.024882-.30597-.029325-.54124-.00987-.52282.019451.01843.113.37185.20788.78539.87346 3.807 2.6146 7.1038 5.3027 10.04 1.0228 1.1174 2.4244 2.314 2.5561 2.1823.049217-.04922.011319-.10107-.8258-1.1299-2.0806-2.5572-3.4443-5.7539-3.8949-9.1301-.14576-1.0921-.11013-1.2449.099246-.42542.90496 3.5419 2.5752 6.4377 5.1596 8.9457.90316.87644 1.3154 1.1996 1.4098 1.1052.07393-.07393.07096-.07839-.62482-.93818-1.4672-1.8131-2.5237-3.9844-3.0241-6.2156-.26011-1.1598-.46927-2.8069-.23782-1.8728.18407.74281.70736 2.1955 1.0493 2.913.71362 1.4972 1.5095 2.6997 2.5922 3.9167.90843 1.021 1.9918 1.9028 1.9904 1.6199-.00013-.027-.21816-.32176-.48449-.65503-1.5218-1.9043-2.624-4.4088-2.8152-6.3971-.036166-.37608-.025666-.35721.24812.4458.51732 1.5173 1.3956 3.119 2.3574 4.2989.66141.81146 1.8811 1.9638 2.0786 1.9638.12529 0 .03847-.1869-.25888-.55726-1.0665-1.3284-1.8228-2.7866-2.2009-4.2433-.08549-.32941-.17395-.74619-.19658-.92618-.037-.29426-.01433-.25797.22488.35997 1.5791 4.0793 4.9186 6.7961 9.1302 7.4277 1.3875.20809 4.0251.04802 4.0251-.24427 0-.042-.26247-.60781-.58328-1.2574-1.2401-2.511-2.0406-5.4688-2.1436-7.9205l-.04131-.98353-.43566-.58904c-1.8173-2.4571-2.346-3.1088-2.522-3.1088-.04628 0-.25685.11521-.46794.25602-2.4491 1.6338-5.031 1.7172-7.2593.23452-1.3709-.91217-2.7525-2.5969-3.3508-4.0861-.52616-1.3096-1.2857-2.2472-2.7876-3.4414-.31169-.24781-.54464-.47027-.51767-.49435.14618-.13052 1.4681-.59986 2.1836-.77526 2.4815-.60833 4.7646-.60855 7.1454-.000687.80247.20489 1.2558.37298 1.9773.73312.8667.43265 1.3348.75788 1.8971 1.3181.71919.71645 1.1666 1.4948 1.414 2.46.1823.71123.10053 2.1854-.173 3.1191-.04874.16637-.15789.05292 1.4385 1.495.78082.70536 1.2826 1.1126 1.3709 1.1126.13031 0 .14218-.04415.18479-.68722.12348-1.8638.32374-3.0429.72049-4.2421l.26666-.80601-.59445-.58546c-.8946-.88108-1.4901-1.8338-1.8253-2.9201-.16428-.5325-.17799-.66375-.17977-1.7218-.0018-1.049.01017-1.1701.14192-1.4399.07912-.16199.14493-.2577.14624-.21271.0019.06484 1.2516.08181 6.0237.08181h6.0213v.1717c0 .26435-.41595 1.4468-.78177 2.2223-1.292 2.739-3.6017 4.5048-6.5485 5.0064-.47751.08128-.78006.1648-.82759.22846-.15143.20279-.54322 2.6675-.67359 4.2374-.10414 1.2541-.08701 4.2961.03009 5.3444.13518 1.2101.44397 2.696.75542 3.6349.45419 1.3693 1.4179 3.1743 1.6948 3.1743.07213 0 .37465-.11319.67228-.25154 2.8701-1.3341 5.1107-3.8349 6.0889-6.7962.1107-.33512.20885-.60174.2181-.59248.04004.04005-.17222 1.0707-.33576 1.6302-.44425 1.5201-1.1007 2.7722-2.1172 4.0385-.31325.39023-.41004.59706-.27942.59706.22307 0 1.7537-1.5237 2.3998-2.3889.94731-1.2686 1.7099-2.7881 2.1515-4.2869.18354-.62299.21759-.49503.07836.29452-.39673 2.2498-1.3622 4.3477-2.8266 6.1417-.23034.2822-.41881.5399-.41881.57268 0 .35714 1.33-.8177 2.4516-2.1657 1.3432-1.6142 2.3952-3.6184 3.0061-5.7268.24927-.86028.29329-.77608.13687.2618-.11724.77787-.46672 2.1374-.74869 2.9125-.52676 1.448-1.5885 3.2841-2.6432 4.5712-.6707.81845-.68546 1.0356-.03545.52177.86761-.68581 2.1112-1.9971 2.941-3.1011 1.4628-1.9463 2.6312-4.3945 3.1368-6.5732.21374-.92101.2697-1.0338.2272-.45814-.06642.89993-.23258 1.8545-.51934 2.9838-.65272 2.5703-1.8695 4.9492-3.6313 7.0994-.36107.44066-.65649.82619-.65649.85674 0 .12995.2163.03539.57013-.24924.46013-.37014 1.5942-1.4585 2.1715-2.0841 2.4816-2.6888 4.4147-6.4392 5.18-10.049.0798-.37647.1586-.69922.1751-.71722.03868-.04218-.02899.72892-.15507 1.7671-.43497 3.5816-1.7821 6.9869-3.9293 9.9321-.71966.98714-1.0486 1.373-2.0134 2.3621-3.4469 3.5333-7.6695 5.6432-12.667 6.3293-.71443.09808-3.7197.1838-4.2542.12134z" fill="#64953d"/>
  <path d="m21.5 42.548c-5.2299-.41197-9.8964-2.4889-13.505-6.0109-2.539-2.4778-4.2513-5.1647-5.4103-8.4899-.51292-1.4716-.94861-3.5612-1.0438-5.0062l-.038132-.57883.25565.98174c.81513 3.1302 2.1875 5.8858 4.1723 8.3775 1.006 1.2629 3.3728 3.519 3.5662 3.3994.10968-.06779.060371-.15367-.4192-.73014-1.6628-1.9988-2.6527-3.7439-3.4492-6.0806-.42048-1.2336-.86345-3.3494-.84437-4.0331.00506-.18142.020126-.15956.10121.14683.88367 3.339 2.4845 6.2016 4.7786 8.5451.73622.75207 1.6371 1.534 1.7673 1.534.17094 0 .08474-.22292-.22582-.58396-1.899-2.2077-3.1541-4.929-3.5793-7.7608-.13599-.90564-.11935-.9485.088972-.22907.78095 2.697 2.2278 5.1257 4.1749 7.0082.69825.67507 1.1357 1.042 1.2422 1.042.17801 0 .08036-.21138-.3261-.70586-1.4583-1.7741-2.4804-3.9925-2.8261-6.1336-.046493-.28798-.075609-.53281-.064704-.54408.010906-.01127.12987.31271.26435.71994.45084 1.3652 1.1115 2.6177 2.0252 3.8394.82503 1.1032 2.113 2.366 2.4132 2.366.05967 0 .10849-.01884.10849-.04187s-.22122-.33048-.4916-.68322c-.88489-1.1544-1.4231-2.1253-1.8522-3.3409-.19317-.5473-.49894-1.8178-.4494-1.8674.01397-.01397.11938.23733.23424.55843 1.3337 3.7283 4.485 6.4572 8.489 7.3511.57431.12821.82904.14423 2.2511.14151 1.8109-.0035 2.3736-.07951 2.4087-.32557.01088-.07622-.07437-.29711-.18944-.49087-.54554-.91858-1.3125-2.8006-1.7219-4.2252-.48937-1.7031-.7209-3.0211-.79382-4.519l-.04531-.93072-.59253-.80368c-1.705-2.3126-2.1598-2.8653-2.3576-2.8653-.07187 0-.28098.09899-.46469.21997-1.4928.9831-3.1522 1.4557-4.5163 1.2862-1.4992-.1863-2.778-.8538-3.974-2.0744-.97957-.99971-1.7483-2.1079-2.0804-2.9988-.08046-.21592-.23257-.55243-.33802-.7478-.10545-.19538-.19173-.39434-.19173-.44214 0-.07171.99217-.08399 5.6725-.07019l5.6725.01672.14888.29452c.37477.74136.48702 2.1081.25803 3.1416-.21589.97435-.29118.79275.69315 1.6718.48056.42918 1.1001.99434 1.3768 1.2559.2767.26158.52704.47515.55632.4746.16979-.0032.21026-.16406.27975-1.112.13025-1.7766.41831-3.2762.81846-4.261.0912-.22446.16583-.42236.16583-.43979 0-.01743-.20616-.23062-.45814-.47377-.25198-.24314-.45814-.47414-.45814-.51334 0-.0505 1.0213-.07127 3.5054-.07127 2.2621 0 3.4914.02265 3.4659.06386-.02171.03512-.28035.2121-.57476.39328-.75968.46751-2.0209.94821-2.9316 1.1173-.41185.07648-.81279.1511-.89099.16583-.21908.04127-.29814.34978-.57717 2.2521-.25755 1.7559-.319 2.6695-.32134 4.7778-.0024 2.1477.05854 2.8465.39143 4.4903.31399 1.5505.7736 2.8467 1.4131 3.9853.44959.8005.61844 1.0145.8006 1.0145.21496 0 1.4728-.63472 2.1662-1.0931 1.3439-.88843 2.5014-2.0522 3.3391-3.3574.39252-.61155 1.0182-1.9024 1.2372-2.5525.20238-.60077.21087-.51958.032.30601-.36451 1.6824-1.1366 3.2701-2.2963 4.7221-.36235.45367-.41703.60049-.22362.60049.14164 0 1.1651-.9438 1.7203-1.5863 1.2417-1.4372 2.0712-2.8831 2.6755-4.6641.26871-.79188.29606-.58411.06031.45814-.45862 2.0276-1.4151 3.9856-2.7138 5.5557-.38145.46115-.48576.69468-.31027.69468.13356 0 1.2036-.96482 1.8199-1.6409 1.6727-1.835 2.9167-4.0525 3.5679-6.3595.09894-.35055.18993-.62733.2022-.61506.05816.05816-.20236 1.5405-.40837 2.3236-.57826 2.1981-1.516 4.0664-2.9073 5.7923-.81837 1.0152-.88937 1.1753-.40884.92214.30058-.15838 2.2852-2.123 2.7741-2.7461 1.6779-2.1387 2.8455-4.4541 3.5308-7.0023l.19383-.7207-.03798.52359c-.05403.7448-.2005 1.5622-.46914 2.618-.69666 2.738-2.0649 5.3238-3.9636 7.4906-.28796.32863-.39987.59234-.25137.59234.13234 0 1.1271-.85542 1.9376-1.6661 2.9171-2.918 4.7747-6.2145 5.8287-10.344.24117-.94485.27181-.85459.12288.36192-.5069 4.1404-2.0193 7.7501-4.5916 10.959-3.4703 4.3293-8.4409 7.1004-14.092 7.8566-.72121.0965-3.4026.17702-4.0906.12283z" fill="#619238"/>
  <path d="m21.696 42.545c-1.6503-.13322-2.809-.30974-3.9885-.60764-6.8584-1.7321-12.395-6.6701-14.891-13.28-.54663-1.448-1.0252-3.3995-1.1774-4.8012-.10639-.97974-.073547-1.0631.12355-.31346.87214 3.317 2.4386 6.3036 4.6413 8.8488 1.085 1.2538 2.8369 2.8665 3.1139 2.8665.12857 0-.011966-.28629-.30658-.62455-1.9822-2.2759-3.5025-5.2785-4.0718-8.0422-.28282-1.3728-.46637-2.9171-.22858-1.9232.16772.70107.65116 2.0938 1.0019 2.8864.85331 1.9282 1.9677 3.612 3.476 5.252 1.0105 1.0988 2.195 2.0363 2.195 1.7374 0-.03276-.12517-.21438-.27816-.40359-.76931-.95147-.94665-1.188-1.3229-1.7642-.87532-1.3406-1.644-3.0503-1.9984-4.445-.1521-.59852-.395-1.8636-.38952-2.0286.00186-.05605.1626.3546.3572.91255.5975 1.7132 1.6965 3.7103 2.6991 4.9048.7931.94491 2.2756 2.36 2.4724 2.36.19362 0 .08624-.22462-.38699-.80955-1.2929-1.598-2.2598-3.6171-2.6511-5.536-.19769-.96932-.16754-.98989.14828-.1012.66394 1.8683 1.6609 3.4587 3.1048 4.9533.67922.70303 1.2188 1.1315 1.3347 1.0598.09507-.05876.02842-.17174-.5259-.8914-.99834-1.2961-1.6855-2.7097-2.0443-4.2054-.18232-.76007-.15089-.79946.10447-.1309.30651.80249.67229 1.4954 1.261 2.3889.60341.91574 1.8838 2.2269 2.8276 2.8957 1.313.93034 3.0895 1.67 4.6973 1.9557 1.3331.23692 4.0147.14358 4.308-.14995.07274-.0728-.008-.27804-.48524-1.2327-.68893-1.3783-1.1683-2.6611-1.553-4.156-.4375-1.7001-.56216-2.4713-.60114-3.719l-.0344-1.1011-.27685-.37151c-.15227-.20433-.6088-.82802-1.0145-1.386-.96615-1.3287-1.5587-2.0289-1.7169-2.0289-.06877 0-.21879.07031-.33338.15625-.85102.63824-2.5209 1.3041-3.5208 1.4039-1.3369.13342-2.7109-.25201-3.9557-1.1096-.25379-.17485-.54646-.40665-.65037-.51512l-.18894-.19721h8.7096l.25525.18802c.14039.10341.74121.63302 1.3352 1.1769.59395.54388 1.1297.98941 1.1906.99006.06087.000654.13374-.03563.16193-.08062.02819-.045.08391-.54054.12383-1.1012.03992-.56066.09396-1.054.12009-1.0963.06908-.11177 1.7159-.10716 1.7586.0049.01715.045.0073.2574-.02196.47201-.24376 1.7899-.2418 5.3201.0039 6.9401.18883 1.2453.42596 2.2753.7308 3.1743.28594.84325.98412 2.2886 1.3394 2.7728.21771.2967.24911.31595.45972.28177.32341-.05248 1.4526-.63655 2.2074-1.1418 1.9855-1.329 3.602-3.3981 4.3946-5.6252.19154-.5382.20563-.42887.03561.27636-.37321 1.5481-1.1054 3.0841-2.0156 4.2287-.43305.54452-.60608.78812-.60608.85328 0 .30141 1.0712-.56863 1.9375-1.5736 1.0501-1.2182 1.8802-2.6237 2.4855-4.2079.37058-.97.39538-.91407.11893.26822-.23219.99303-.50681 1.7664-.94662 2.6657-.40273.8235-1.1759 2.0387-1.6597 2.6087-.15284.18006-.33008.40808-.39388.50671-.10556.16318-.10646.18298-.01006.21997.15198.05832.47394-.20189 1.4189-1.1467.91448-.9144 1.3668-1.4623 2.0219-2.4491.83321-1.2551 1.4684-2.5978 1.94-4.1011.24751-.78892.27372-.70751.09752.30297-.43902 2.5177-1.6949 5.1978-3.3696 7.1909-.51106.60823-.5839.75266-.37957.75266.30567 0 2.2159-1.8656 3.1798-3.1056 1.5144-1.948 2.6639-4.2525 3.3153-6.6463.15978-.58714.18201-.6348.15267-.32724-.12433 1.3034-.5071 2.9889-.97457 4.2914-.71749 1.9991-2.0838 4.3292-3.3644 5.7373-.3772.41479-.49385.6137-.39551.67448.10286.06357.47449-.20535 1.2418-.89862 3.0304-2.7379 5.2369-6.2716 6.3672-10.197.16065-.55795.30669-1.0734.32453-1.1454.07556-.30491.04135.33518-.05497 1.0286-.41396 2.98-1.4236 5.8261-2.9465 8.3059-3.3493 5.4538-8.946 9.1372-15.244 10.033-1.4047.19972-3.2217.28038-4.3196.19175z" fill="#609036"/>
  <path d="m21.762 42.549c-2.218-.16884-3.7257-.45741-5.6346-1.0784-5.4407-1.7701-10.157-5.9491-12.601-11.165-.76463-1.632-1.4615-3.8413-1.7259-5.4714-.20205-1.2458-.10245-1.2758.28482-.08592.64662 1.9868 1.4112 3.5681 2.601 5.3791.88787 1.3515 1.5413 2.143 2.8335 3.4325 1.2357 1.2331 1.8391 1.7365 2.0052 1.6727.13956-.05355.074707-.16049-.51412-.84778-2.0808-2.4287-3.5047-5.5279-4.0348-8.7815-.041052-.25198-.084954-.50968-.097558-.57268-.012605-.06299-.00212-.11454.023301-.11454.02542 0 .14277.31661.26078.70358.8469 2.7771 2.6866 5.7593 4.7943 7.7721 1.0016.95642 1.5122 1.3447 1.594 1.2123.05746-.09297-.03169-.23268-.52302-.81964-1.6082-1.9212-2.7909-4.4338-3.273-6.9533-.16105-.84164-.10646-.8141.22585.1139.85709 2.3935 1.957 4.1217 3.7951 5.9628 1.0545 1.0562 1.3188 1.2581 1.461 1.1159.04733-.04733-.08263-.25474-.42445-.67735-1.3137-1.6242-2.25-3.5233-2.6719-5.4196-.18183-.81722-.1484-.89608.09538-.22499.45115 1.242 1.2099 2.6145 2.06 3.7265.62766.82101 2.114 2.258 2.3355 2.258.18618 0 .08826-.2138-.34701-.75767-.9375-1.1714-1.7523-2.7626-2.0837-4.069-.19203-.757-.17521-.92051.03491-.33932.08369.2315.31393.73015.51165 1.1081 1.1209 2.1429 2.8511 3.8553 4.985 4.9342 2.2263 1.1255 4.5607 1.5019 6.9332 1.1178.30483-.04935.593-.12849.64039-.17588.07125-.07125-.01275-.28422-.48532-1.2305-1.3291-2.6613-2.1747-5.932-2.1749-8.4121l-5.5e-5-.59215-.4643-.61866c-.71506-.95278-.81136-.85317.80491-.83268l1.3938.01767.0116 1.0799c.02834 2.637.09599 3.4144.45286 5.2032.23547 1.1803.60475 2.2611 1.1405 3.3379.57276 1.1512.84868 1.5381 1.097 1.5381.22789 0 1.5163-.64774 2.2068-1.1094 1.9586-1.3097 3.3907-3.0752 4.3291-5.3373.28161-.67882.27719-.50652-.01287.50126-.39029 1.356-1.1438 2.7855-2.084 3.9537-.20088.24957-.3656.49057-.36606.53557-.0018.18257.28214.06063.70107-.30102 1.5029-1.2974 2.9218-3.3189 3.6132-5.1476.47033-1.244.51091-1.2437.20426.0016-.51137 2.0767-1.3707 3.7647-2.7809 5.4629-.32557.39203-.36823.52406-.16934.52406.26745 0 1.8762-1.5628 2.6949-2.618 1.1248-1.4497 2.0307-3.1503 2.6147-4.9087.21712-.65374.23915-.52116.06374.38371-.47655 2.4583-1.6658 4.9428-3.3095 6.9139-.47981.57536-.55268.70707-.43233.78144.10223.06318.84202-.54456 1.7022-1.3984 2.1909-2.1747 3.6714-4.6294 4.7598-7.8914l.15285-.45814-.03244.42542c-.0356.46687-.26082 1.5197-.53205 2.4871-.65151 2.3238-2.14 5.0258-3.7781 6.8583-.6193.6928-.41842.83707.32297.23197.68003-.55502 2.4223-2.3253 2.9843-3.0324 1.3341-1.6784 2.3894-3.4377 3.18-5.3014.2919-.68814.86788-2.359.86788-2.5176 0-.04639.04418-.121.09817-.16582.08287-.06877.09817-.05565.09817.08416 0 .27381-.37738 2.2432-.55272 2.8845-.69467 2.5405-1.9268 5.0411-3.5467 7.1979-3.5074 4.6699-8.8123 7.7131-14.619 8.3863-.86853.1007-3.0556.17569-3.6979.1268z" fill="#608d34"/>
  <path d="m21.86 42.542c-.23398-.01128-.83775-.06621-1.3417-.12207-8.2854-.91833-15.312-6.6066-17.928-14.514-.30587-.9245-.30477-.96074.029222-.96074h.26353l.27801.57268c1.1312 2.3301 2.5181 4.274 4.3323 6.0718 1.3226 1.3107 2.1275 1.9095 2.1275 1.5829 0-.04655-.14949-.26008-.33219-.47451-1.176-1.3802-1.9009-2.4769-2.6801-4.055-.55446-1.1229-1.1822-2.8108-1.2854-3.4561-.03818-.23876-.031503-.25206.11604-.23121.10322.01459.19366.10016.26548.2512 1.3517 2.8423 2.2119 4.1168 3.981 5.898 1.0278 1.0348 1.6383 1.5631 1.8064 1.5631.19 0 .08052-.26822-.28568-.69985-1.1488-1.354-2.0251-2.826-2.6776-4.4974-.44444-1.1384-.81081-2.6174-.61902-2.4989.030771.01902.12301.21956.20498.44564.19075.52612.83576 1.8216 1.2638 2.5382.58844.9852 1.4195 2.0352 2.3363 2.9519.90398.90385 1.377 1.2838 1.502 1.2064.13353-.08252.06526-.21647-.40635-.79732-1.2495-1.5389-2.2962-3.652-2.632-5.3136-.11924-.58996-.1046-.7721.02589-.32219.23257.80184 1.179 2.5678 1.8722 3.4934 1.0826 1.4455 2.7149 2.9054 2.7149 2.428 0-.04617-.15921-.27576-.3538-.51019-1.0462-1.2605-2.1172-3.3809-2.2948-4.5436-.03216-.21056.0034-.1585.18166.266 1.2507 2.9782 3.8356 5.3702 6.9175 6.4013 1.0963.36678 1.6204.47597 2.7652.57608 1.4071.12304 3.3215-.07689 3.3742-.35239.0118-.06164-.09492-.31198-.23714-.55632-.70685-1.2143-1.4779-3.2526-1.9454-5.143-.29033-1.1739-.5297-2.6095-.4552-2.73.02309-.03736.37325-.06516.82055-.06516.91438 0 .79799-.14828.95036 1.2108.2797 2.4948.88155 4.4547 1.8752 6.1065.22634.37625.47555.71351.55379.74948.11631.05346.28154-.0016.90578-.30175 2.4099-1.1588 4.3906-3.1253 5.4502-5.4111.52112-1.1242.47822-1.0467.43334-.78307-.08476.49786-.52964 1.7064-.88243 2.3971-.42206.82636-.76556 1.3594-1.302 2.0207-.42838.52801-.50106.67566-.35934.73004.15062.0578.5217-.22339 1.231-.93278 1.4019-1.4021 2.402-2.9181 3.1171-4.7248.11809-.29837.22407-.53313.2355-.52169.02827.02827-.32664 1.4504-.45356 1.8174-.48951 1.4155-1.4532 3.0934-2.4085 4.1932-.31214.35938-.41088.64941-.2211.64941.26851 0 1.9295-1.6149 2.76-2.6834.84015-1.0809 1.7384-2.6379 2.2186-3.8456.41996-1.0562.48267-.83056.1284.46194-.56338 2.0554-1.5579 3.9512-3.0119 5.7417-.30545.37612-.54544.71365-.53332.75008.05672.1704.27258.06784.80649-.38316 1.1354-.95908 2.4494-2.415 3.2377-3.5874.59391-.88327.75843-1.1698 1.4023-2.4427.46996-.92898.62606-1.1825.73826-1.199.07826-.0115.14228.01276.14228.05392s-.10133.43344-.22518.87175c-.63642 2.2523-2.0089 4.7625-3.6289 6.637-.44309.5127-.53592.68634-.40892.76484.10201.06305.61635-.33283 1.457-1.1214 2.1035-1.9733 3.3723-3.6516 4.7499-6.2835l.48914-.93441h.25607c.16136 0 .25598.03026.25581.08181-.000589.17708-.5946 1.891-.9074 2.6179-.42759.99376-1.1132 2.2638-1.7459 3.2342-4.1352 6.3421-11.391 10.03-19.01 9.6627z" fill="#5d8c31"/>
  <path d="m20.561 42.422c-3.4307-.39363-6.5633-1.5219-9.3677-3.3742-1.3191-.87122-2.1671-1.563-3.2772-2.6737-1.2852-1.2859-1.8466-1.9603-2.7542-3.309l-.39636-.58904 1.5393-.03706.98729.97866c1.5922 1.5783 2.1636 2.0316 2.3394 1.8558.089511-.08951-.00592-.25172-.42715-.72599-.56119-.63187-1.4813-1.9061-1.4813-2.0515 0-.02895.27199-.05264.60442-.05264h.60442l.75365.74456c.91528.90424 1.6807 1.5462 1.8436 1.5462.24409 0 .11999-.29103-.37676-.88356-.27161-.32397-.61226-.76575-.757-.98174l-.26317-.39269 1.007-.03846.53355.51128c.84479.80954 1.3491 1.2058 1.5059 1.1833.25259-.0362.18394-.22183-.28792-.77852-.25658-.3027-.50893-.63136-.56079-.73035l-.09429-.17998h.83629l.67389.62314c.666.61585.92313.76914 1.0602.63205.08123-.08123-.01122-.24144-.45075-.78107-.15604-.19157-.28371-.37662-.28371-.41122 0-.0346.14099-.0629.3133-.0629.29752 0 .34121.02489.8672.49407 1.5105 1.3474 3.4817 2.3211 5.5169 2.7253 1.1515.22866 3.6921.19968 4.5108-.05146.178-.0546.13798-.30654-.11807-.74342-.26908-.45911-.85542-1.7394-.98294-2.1463l-.08718-.27816h1.3475l.25027.56167c.28038.62924.88599 1.6844 1.0957 1.909.07561.08099.19987.14726.27613.14726.20939 0 1.6252-.72221 2.2996-1.173.32766-.21904.87147-.63375 1.2085-.92158.5806-.49588.62916-.52333.92595-.52333.17227 0 .31322.02548.31322.05662 0 .06593-.19684.33168-.50356.67987-.21386.24276-.27618.46236-.15285.53858.11525.07123.44464-.15443 1.0489-.71855l.5961-.55652h.85139l-.11283.191c-.06206.10505-.31406.43317-.56002.72916-.42553.5121-.52588.72515-.38309.8134.13701.08468.40769-.12449 1.495-1.1552l.61006-.57833h.5228c.39952 0 .51178.01929.47608.08181-.13396.23459-.64988.9283-1.0327 1.3886-.2385.28675-.43364.57483-.43364.64018 0 .38387.49522.04241 1.9073-1.3151l.82743-.79544h.59609c.32785 0 .59609.02615.59609.0581 0 .14032-1.0171 1.5182-1.5757 2.1345-.39679.43785-.49234.68711-.26339.68711.21334 0 .90964-.57843 2.1075-1.7508l1.1536-1.129h.72886c.43685 0 .72886.02593.72886.06473 0 .07679-.90026 1.4118-1.2363 1.8333-2.4186 3.0338-5.3753 5.2607-8.8428 6.6603-1.5616.63028-3.1679 1.0649-4.876 1.3194-1.4736.21953-4.0729.26706-5.5206.10095z" fill="#5b892c"/>
  <path d="m20.7 42.424c-4.0279-.45947-7.5092-1.8422-10.686-4.2445-.64282-.48609-1.0472-.83348-1.0472-.89962 0-.03532 5.6579-.05935 13.973-.05935 8.0797 0 13.973.02447 13.973.05802 0 .05169-.43978.42316-1.2108 1.0227-.14399.11197-.48269.35325-.75266.53618-2.7973 1.8953-5.7819 3.0344-9.2334 3.5239-1.0428.1479-3.9507.18418-5.0167.06258z" fill="#598629"/>
 </g>
</svg>
