<?xml version="1.0" encoding="UTF-8"?>
<!-- Created with Inkscape (http://www.inkscape.org/) -->
<svg width="46.142" height="43" version="1.1" viewBox="0 0 46.142 43" xmlns="http://www.w3.org/2000/svg" xmlns:cc="http://creativecommons.org/ns#" xmlns:dc="http://purl.org/dc/elements/1.1/" xmlns:rdf="http://www.w3.org/1999/02/22-rdf-syntax-ns#">
 <metadata>
  <rdf:RDF>
   <cc:Work rdf:about="">
    <dc:format>image/svg+xml</dc:format>
    <dc:type rdf:resource="http://purl.org/dc/dcmitype/StillImage"/>
    <dc:title/>
   </cc:Work>
  </rdf:RDF>
 </metadata>
 <g stroke-width=".06545">
  <path d="m-.0002242 21.677v-21.5h46.142v43h-46.142z" fill="#fefefe"/>
  <path d="m21.729 42.804c-5.3743-.25909-10.766-2.7334-14.517-6.6619-3.3292-3.487-5.374-7.8223-5.9392-12.592-.12032-1.0154-.18988-3.2075-.11445-3.6072.042957-.22767.084133-.29452.18141-.29452.11389 0 .13662.09665.23938 1.018.47658 4.273 2.2485 8.3138 5.081 11.587.32422.37466.78585.87265 1.0258 1.1066l.43636.42542-.60928-.91629c-1.578-2.3731-2.5705-4.9737-2.9725-7.7885-.14095-.98682-.1699-3.5782-.041422-3.7073.14004-.14075.20464.01433.2769.66478.45101 4.0599 2.1754 7.8082 4.9075 10.667.51242.53627.519.51956.064453-.16362-1.6591-2.4936-2.6145-5.6518-2.6145-8.6425 0-.8408.043939-1.0767.20052-1.0767.092594 0 .12715.06839.15711.31088.28644 2.3191.73449 3.9097 1.5698 5.573.61382 1.2222 1.5802 2.6304 2.3849 3.4754l.40515.42542-.32468-.53108c-1.2828-2.0982-1.9235-4.2088-2.0165-6.6426-.041173-1.0775-.011302-1.3675.14088-1.3675.13736 0 .15413.052.23417.72583.29487 2.4827 1.3419 4.8858 3.0035 6.8936.19542.23612.36647.41815.38012.4045.01365-.01365-.06456-.17007-.17379-.3476-.31718-.51549-.82841-1.6364-1.0459-2.2932-.27043-.81667-.44343-1.7065-.53462-2.7497-.09226-1.0555-.04541-1.5862.14003-1.5862.0694 0 .12619.01492.12619.03316 0 .16073.22635 1.4836.32469 1.8976.7461 3.1411 2.9215 5.8611 5.8603 7.3274 1.5645.78064 2.7328 1.0731 4.5112 1.1294 1.1482.03633 2.4167-.05564 2.494-.18083.01832-.02963-.11311-.32816-.29206-.66339-1.2739-2.3864-2.251-5.8433-2.3423-8.2872l-.037456-1.0018-.30893-.40536c-.16991-.22294-.64873-.86322-1.064-1.4228-.41531-.55961-.88483-1.1608-1.0434-1.3359l-.28828-.31842-.62208.37123c-.70494.42067-1.5097.76573-2.2613.9696-.75239.20408-2.1258.20646-2.9211.0051-1.1245-.28481-2.2341-.9268-3.2304-1.8691-.98741-.9339-1.93-2.2863-2.376-3.4091-.113-.28447-.3383-.72257-.50066-.97356-.40712-.62934-1.4679-1.7003-2.2896-2.3114-.43253-.3217-.67895-.54776-.66714-.61201.047182-.25672 1.8484-.94383 3.1879-1.2161 1.1955-.24301 2.0954-.31283 3.5588-.27613 1.0506.02635 1.506.06822 2.2162.20379 2.2105.42193 3.8698 1.2276 5.0301 2.4425.78638.82338 1.2009 1.5765 1.4095 2.5607.13766.64954.12059 1.7969-.03834 2.5767l-.13335.65437.31309.27221c.1722.14972.689.61827 1.1484 1.0412.45944.42297.86033.76903.89087.76903.03053 0 .07605-.33134.10114-.73631.09219-1.4878.36296-3.0108.70178-3.9472l.19109-.52811-.54382-.55214c-.83561-.84839-1.4635-1.823-1.7732-2.7522-.36944-1.1087-.40433-2.7278-.08462-3.9271.50872-1.9083 1.6537-3.757 3.4452-5.5626 1.5267-1.5387 3.0415-2.6257 5.007-3.5929 1.7639-.86797 2.6037-1.1335 4.0628-1.2845.39224-.040592.39866-.038594.47298.14723.04144.10361.13362.60072.20485 1.1047.68045 4.8144.21994 9.2275-1.2741 12.209-.69832 1.3938-1.8857 2.7759-3.0497 3.5499-1.0482.697-2.5173 1.2659-3.8339 1.4846-.33826.0562-.48094.10927-.504.18746-.01769.05999-.10507.49196-.19418.95992-.37852 1.9879-.53191 4.0562-.4781 6.4468.05226 2.3218.2634 3.7027.83716 5.4753.26072.80543 1.0364 2.4458 1.3248 2.8017l.15719.19398.7444-.36398c1.8038-.88199 3.2871-2.1827 4.3938-3.8528.96325-1.4537 1.4836-2.8155 1.7453-4.5683.06612-.44271.13716-.82186.15787-.84257.02071-.02071.0831-.02021.13865.0011.13899.05333.13832 1.5091-.0011 2.4482-.19598 1.3199-.7582 2.9306-1.3999 4.0108-.1458.24543-.2651.46505-.2651.48805 0 .11113.78699-.87139 1.2532-1.5646 1.1568-1.72 1.8849-3.6853 2.1466-5.7942.0763-.61501.15559-.76274.30251-.56367.18108.24535.08711 2.0779-.17471 3.4072-.33135 1.6823-.86893 2.9958-1.9822 4.8433-.20418.33884.66367-.62275 1.1814-1.309 1.5909-2.1088 2.6929-4.8286 2.9701-7.3304.09716-.87697.11456-.94902.22914-.94902.19604 0 .24204.3261.20109 1.4258-.04929 1.3238-.18041 2.2519-.49667 3.5157-.40132 1.6036-1.1306 3.2821-2.0261 4.6633-.21589.33298-.37089.60541-.34444.60541.06441 0 .79977-.81694 1.355-1.5053 2.0579-2.5514 3.5192-6.0471 3.8319-9.1667.07839-.78203.14308-1.0435.25817-1.0435.13693 0 .19612.35287.19557 1.166-.0026 3.8314-1.2047 7.6822-3.3321 10.675-.46219.65008-.45658.66697.05626.16941 1.3829-1.3417 2.9516-3.5162 3.9058-5.4141 1.1815-2.3501 1.9846-5.1284 2.2231-7.6911.0451-.48463.15956-.69682.30007-.55632.12726.12726.02628 3.4899-.13707 4.564-.70551 4.6392-2.7872 8.7941-6.0745 12.124-1.7426 1.7655-3.5896 3.102-5.8093 4.2041-3.4 1.688-7.0158 2.4332-10.897 2.2461z" fill="#f1f5ed"/>
  <path d="m20.552 42.684c-7.4458-.84569-13.898-5.3926-17.18-12.107-1.4951-3.0587-2.1929-6.079-2.1935-9.4941-.0001701-.88809.021701-1.2119.087961-1.3025.13215-.18072.16597-.07175.27743.89375.54616 4.7309 2.5909 9.0488 5.9296 12.522.7367.76632 1.0175.97392.64053.47356-2.3397-3.1055-3.6457-6.9389-3.6848-10.816-.011044-1.0947.028064-1.4726.1524-1.4726.07865 0 .09075.06125.26336 1.3331.4064 2.9945 1.6039 5.9262 3.3981 8.319.60549.80753 1.7941 2.167 1.983 2.2681.06412.03431-.08612-.2407-.33385-.61114-1.821-2.7229-2.7306-5.6877-2.6779-8.7279.015181-.87554.033858-1.0431.11626-1.0431.07536 0 .11686.1521.17859.6545.37299 3.0356 1.6255 5.9432 3.5384 8.2139.28808.34197.63541.72486.77186.85084.24749.22853.24779.22861.12484.03273-.62262-.9919-.82039-1.3391-1.1185-1.9635-.8487-1.7778-1.259-3.5325-1.2887-5.5108-.00998-.66562.00897-.95226.066787-1.0101.044397-.04442.099473-.06201.12239-.03909.022918.02292.097203.42279.16508.8886.38695 2.6556 1.4347 4.9183 3.224 6.9621.18027.20592.34023.36193.35546.3467.01523-.01523-.09024-.21443-.23438-.44267-1.077-1.7053-1.7117-3.8825-1.7158-5.8854-.0013-.62908.03126-.83984.12962-.83984.08137 0 .12279.15771.22874.87091.27228 1.8329.98428 3.5326 2.1313 5.0879.5417.73447 1.6545 1.8232 2.4206 2.3682.71537.50893 2.0619 1.1998 2.9023 1.4892 1.4764.50834 3.3888.70393 4.9083.50201.42767-.05683.79119-.11694.80782-.13358.01664-.01664-.10329-.27541-.2665-.57505-1.3164-2.4169-2.302-5.8862-2.4351-8.572l-.04427-.89323-1.0962-1.463c-.60292-.80463-1.2127-1.5932-1.355-1.7525l-.25876-.28951-.29009.19606c-.8303.56117-1.9501 1.0482-2.8235 1.2281-.29544.06084-.82757.10389-1.2842.10389-1.7246 0-3.2064-.65997-4.6714-2.0806-1.0337-1.0024-1.7921-2.0949-2.2991-3.3119-.13334-.32009-.38032-.79132-.54886-1.0472-.3935-.59742-1.5173-1.7209-2.2929-2.2923-.36208-.26674-.60541-.49192-.60541-.56026 0-.20399 1.5631-.82999 2.7816-1.114 1.1162-.26017 1.9902-.35217 3.3707-.35481 1.7894-.0034 2.9994.16891 4.3851.62453 2.6031.85588 4.1696 2.3266 4.7668 4.4752.15806.56863.13701 2.1082-.03825 2.7974l-.12884.50666 2.4361 2.2125.04475-.46755c.15485-1.6177.2109-2.06.35688-2.816.08954-.46373.26036-1.1161.37962-1.4498l.21682-.60664-.45773-.44825c-.97173-.95162-1.6896-2.1351-1.9966-3.2915-.21546-.81168-.24105-2.2107-.056331-3.08.64282-3.025 3.2155-6.2766 6.7675-8.5532 1.3593-.87119 3.1481-1.6899 4.4643-2.0434.73904-.19843 1.6099-.30601 1.7223-.21276.21865.18147.50035 2.6491.5479 4.7996.06925 3.1324-.26686 5.4525-1.0982 7.5804-.92395 2.3651-2.4893 4.1623-4.5012 5.1682-.55741.27867-1.8092.68983-2.4958.81976-.30598.0579-.61928.1183-.69623.13422-.12416.02568-.15888.13034-.30838.92947-.88527 4.732-.68722 9.5481.52134 12.677.4615 1.195 1.1377 2.3929 1.3508 2.3929.23289 0 1.7809-.84726 2.4069-1.3174 1.1858-.89048 1.9333-1.6721 2.7168-2.841.93915-1.401 1.5118-2.8983 1.7699-4.6276.10422-.69838.17858-.87496.29635-.70366.10898.15851.01976 1.8994-.13917 2.7156-.26094 1.3401-.7521 2.6442-1.4053 3.7312-.41867.69675-.41543.68648-.13392.42482.34692-.32246 1.0836-1.2838 1.5014-1.9591.95041-1.5364 1.5224-3.0756 1.8065-4.8608.18494-1.1623.18885-1.1783.28021-1.148.13634.04523.17104.5679.10496 1.5808-.15944 2.4436-.83566 4.5081-2.1321 6.5091-.19508.3011-.34171.56043-.32584.5763.04926.04926 1.0741-1.1309 1.5894-1.8302 1.534-2.082 2.546-4.6096 2.8749-7.1802.10659-.83316.1756-1.0299.29822-.8503.09962.14594.02512 2.5911-.10169 3.3374-.1422.8369-.43554 1.9791-.72279 2.8143-.32037.93158-1.1005 2.4956-1.6813 3.3707-.26282.39597-.50388.76412-.53569.81812-.12178.2067.84564-.78144 1.3456-1.3744 2.2668-2.6885 3.7126-5.9983 4.1455-9.4902.11154-.89963.16627-1.0688.30191-.93316.09251.09251.08471 2.1264-.01148 2.9932-.35973 3.2415-1.4787 6.1932-3.3364 8.8015-.60867.85455-.46931.80764.42881-.14437 3.2209-3.4141 5.1922-7.4869 5.7893-11.961.16624-1.2455.20913-1.4561.30276-1.4867.12243-.04.15377.22813.15465 1.3231.004 4.9834-1.6724 9.7439-4.817 13.679-.74002.92603-2.3441 2.5295-3.2651 3.2637-3.1521 2.5131-6.6378 4.0332-10.621 4.6315-1.1877.17843-4.2189.22737-5.4465.08795z" fill="#ecf1e7"/>
  <path d="m21.075 42.716c-3.2797-.28387-6.4487-1.3131-9.3428-3.0343-2.9725-1.7679-5.6832-4.4785-7.4509-7.4508-2.0606-3.4647-3.103-7.2427-3.103-11.246 0-1.4094.1944-1.6783.32747-.4529.15928 1.4668.54539 3.2399.98959 4.5445.79053 2.3218 2.0976 4.7118 3.6076 6.5965.55085.68755 2.2719 2.4971 2.3248 2.4443.016093-.01609-.10152-.20041-.26135-.4096-1.8405-2.4088-3.0614-5.3157-3.5544-8.4634-.1278-.81581-.20412-3.5801-.10295-3.7287.03605-.05295.083975-.07785.1065-.05532.022524.02252.098885.47818.16969 1.0126.45705 3.4495 1.737 6.4574 3.8981 9.1608.57659.72126 1.629 1.8391 1.6828 1.7874.02132-.02049-.09802-.22523-.26519-.45497-1.7837-2.4513-2.8016-5.4942-2.8785-8.6053-.028608-1.1565.01005-1.5271.1452-1.392.024275.02427.10061.43576.16964.9144.47862 3.319 1.8943 6.2942 4.0482 8.508l.59242.60889-.42884-.67116c-1.1321-1.7717-1.8414-3.6697-2.0926-5.599-.11696-.89841-.13587-2.4378-.030747-2.5028.038392-.02373.083314-.02963.099827-.01312.016512.01651.087199.41959.15708.89573.33197 2.2618 1.1831 4.2908 2.5571 6.0958.78387 1.0297 1.4128 1.5792.82982.72497-.31232-.45763-.87047-1.6265-1.1173-2.3399-.28998-.838-.47125-1.6844-.57012-2.662-.1554-1.5365.06643-2.3861.26189-1.003.36091 2.5538 1.4825 4.7494 3.3497 6.5569 2.0678 2.0018 4.8109 3.1038 7.7223 3.1023.79715-.000393 2.0413-.12938 2.133-.22109.02055-.02055-.15606-.41353-.39247-.87329-1.2803-2.4899-2.1655-5.6438-2.2645-8.0681l-.0441-1.0799-.73515-.98175c-1.167-1.5584-1.627-2.1461-1.8382-2.3482l-.19684-.18839-.41509.26215c-1.4583.92102-2.755 1.3037-4.2071 1.2417-1.7118-.073111-3.3212-.87649-4.7184-2.3553-.89911-.95165-1.4847-1.8629-2.1759-3.3859-.13887-.30598-.38674-.73304-.55082-.94902-.45347-.59689-1.3164-1.4326-2.045-1.9804-.35997-.27065-.66375-.53081-.67507-.57814-.02539-.10622.52919-.39054 1.3623-.69841 2.3997-.8868 5.6548-1.0428 8.3121-.39847 1.6398.39765 3.0684 1.1306 4.0489 2.0774.77816.75145 1.2933 1.6231 1.5516 2.6252.17154.66562.15948 1.9002-.0265 2.7129-.07785.3402-.11947.6376-.09249.66089.39822.34388 1.5359 1.3711 1.9129 1.7272l.48944.46225.04636-.32725c.0255-.17999.07963-.71006.12029-1.1779.12075-1.3895.35798-2.5732.69012-3.4437l.16515-.43281-.57773-.58381c-2.1795-2.2025-2.6486-4.8953-1.3837-7.9431.9589-2.3105 3.2405-4.8827 5.8719-6.6198 1.8023-1.1898 4.1741-2.2409 5.4381-2.4102.2374-.031784.5649-.077675.72778-.10198.26768-.039945.30349-.029377.37257.10994.23502.474.54157 3.5065.54157 5.3574 0 4.6586-1.1533 8.2361-3.366 10.441-1.298 1.2935-2.8122 2.0759-4.7887 2.4744-.40872.0824-.75938.16607-.77924.18593-.06819.06819-.36223 1.7041-.49027 2.7276-.60778 4.8587-.15404 9.0526 1.2933 11.954.2564.51404.77549 1.3417.84147 1.3417.02372 0 .37038-.15929.77035-.35398 2.6231-1.2768 4.7058-3.6072 5.6587-6.3316.19046-.54456.4683-1.7312.57883-2.4722.06394-.4287.19021-.50585.25624-.15657.06569.34749-.07955 2.0274-.2366 2.7367-.28776 1.2995-.80813 2.5835-1.4956 3.6903-.18745.30177-.32785.56164-.31201.57748.05856.05856 1.1104-1.2146 1.58-1.9123 1.143-1.6984 1.8245-3.5003 2.1543-5.6957.05236-.34853.11322-.65172.13525-.67375.21438-.21438.19667 1.8496-.02601 3.0323-.36057 1.9151-1.0372 3.6178-2.0222 5.0893-.47239.70563-.46428.7179.09701.14672 2.2051-2.2439 3.7516-5.5054 4.1466-8.7449.07799-.63955.14459-.84938.23925-.75376.09698.09797.04602 2.3272-.07126 3.1173-.36042 2.4282-1.2896 4.7627-2.7054 6.7968-.26201.37646-.37498.58461-.29368.5411.15377-.08229 1.1902-1.2062 1.7306-1.8767 1.0082-1.2508 2.1121-3.1778 2.7537-4.8067.51455-1.3064.9787-3.2232 1.1269-4.6537.05246-.50648.12494-.66777.23222-.51678.10197.14352.02738 2.7549-.10282 3.5997-.47222 3.0642-1.5902 5.8105-3.352 8.2342-.26977.3711-.47722.688-.461.70422.01622.01622.41005-.36104.87518-.83836 3.3609-3.4489 5.3684-7.6114 5.9843-12.408.1245-.96961.19252-1.2128.30707-1.0978.08055.08086.05125 2.7558-.03842 3.5079-.53928 4.5234-2.1761 8.3872-4.9632 11.715-1.9147 2.2865-4.2193 4.1064-6.9255 5.4687-2.2596 1.1376-4.5497 1.84-7.0358 2.1581-.97215.12439-3.6029.17792-4.5815.09322z" fill="#e2ebdb"/>
  <path d="m21.271 42.716c-4.6575-.40435-8.8396-2.1131-12.305-5.0275-1.3472-1.1332-2.3596-2.2059-3.4361-3.6409-.87934-1.1722-1.4324-2.0732-2.0899-3.4044-1.1253-2.2785-1.7986-4.5559-2.1075-7.128-.12842-1.0695-.15822-3.5297-.044138-3.6443.098386-.09888.11591-.02507.24998 1.053.41665 3.3503 1.5895 6.4684 3.5083 9.3266.9023 1.3441 2.3035 2.9933 3.1696 3.7306.4154.35363.41467.32306-.00546-.22907-1.8908-2.4849-3.1273-5.4591-3.6035-8.6681-.108-.72774-.20094-3.0614-.13274-3.3331.064722-.25787.15887-.20837.20097.10568.25063 1.8693.45166 2.8.88708 4.107.87563 2.6283 2.2586 4.8995 4.2149 6.9221.39238.40568.72654.72448.74258.70844.01604-.01604-.17518-.31841-.42494-.67193-.60803-.86064-.85253-1.2795-1.3533-2.3185-.99188-2.0578-1.4858-4.1468-1.5019-6.3522-.0075-1.028.021289-1.3235.11935-1.2255.016282.01628.090339.42587.16457.9102.51113 3.3349 1.7759 5.9936 4.0393 8.4911.26947.29734.54399.56954.61003.60489.06605.03535-.10167-.26684-.37269-.67152-1.4211-2.1219-2.2484-4.8106-2.2445-7.2945.0008901-.56726.063199-.89396.15305-.80244.016648.01696.079783.36953.1403.7835.35243 2.4109 1.3499 4.6896 2.8504 6.5122.40934.4972 1.1357 1.2151.96021.94902-1.2747-1.9325-1.8815-3.6054-2.0738-5.7164-.06983-.76665-.03749-1.4176.07043-1.4176.0649 0 .08739.09007.22064.88357.59397 3.5371 2.8201 6.5491 6.0226 8.1486.98484.49188 1.7641.7695 2.77.9868.88011.19014 2.9285.24581 3.7982.10323.33676-.05521.62454-.11263.63952-.1276.01497-.01497-.10988-.27104-.27746-.56904-1.2735-2.2645-2.336-5.9543-2.4287-8.4342l-.03756-1.0048-.84746-1.1485c-1.2964-1.7568-1.798-2.3724-1.9333-2.3724-.04889 0-.21354.08576-.3659.19059-.44687.30746-1.5372.82946-2.1043 1.0075-1.8333.57553-3.6425.31567-5.286-.75923-1.5753-1.0303-2.8948-2.661-3.6452-4.5049-.40248-.98895-1.4266-2.1718-2.7313-3.1547-.44725-.33692-.65665-.53467-.63259-.59738.046045-.11999 1.2582-.63193 2.0131-.8502 1.3578-.39261 2.6457-.56842 4.1641-.56842 4.1556 0 7.476 1.5448 8.6753 4.0361.37327.77543.50592 1.4824.47229 2.5172-.01798.5531-.07419 1.0642-.1503 1.3664l-.12158.48287.25817.23099c.14199.12704.70748.64068 1.2566 1.1414.60546.55207 1.0093.87649 1.0259.82421.01508-.04742.04688-.43965.07066-.87162.0805-1.462.41454-3.271.7473-4.0469.0746-.17397.13565-.35134.13565-.39414 0-.04281-.25144-.32753-.55875-.63271-.90831-.90202-1.5021-1.8682-1.8377-2.9904-.1379-.46107-.17841-.75699-.20418-1.4915-.04971-1.4168.19132-2.4699.89875-3.927 1.1132-2.2927 3.0992-4.4388 5.6976-6.1569 1.7801-1.177 4.0821-2.1865 5.4515-2.3905 1.0336-.15399.92952-.15893 1.011.047963.08646.21945.30727 1.7478.41478 2.8708.10051 1.0499.09904 3.8663-.0025 4.8433-.5056 4.8632-2.3045 8.0417-5.4607 9.6486-.72816.37073-1.6433.67547-2.6319.87638l-.71631.14558-.07751.23634c-.11204.34162-.39833 2.0985-.51569 3.1648-.14293 1.2985-.19765 4.3664-.09877 5.5373.23063 2.7311.90484 4.9803 2.024 6.7525.27594.43693.27018.43648 1.0173.0802 3.3357-1.5907 5.7102-4.8088 6.2539-8.4758.08965-.60461.1238-.71995.21315-.71995.12155 0 .01631 2.0945-.14141 2.8143-.35689 1.6289-.80225 2.6677-1.866 4.3524-.21134.33473.51139-.39198 1.0089-1.0145 1.461-1.828 2.3613-3.8839 2.7497-6.2792.07261-.4478.15943-.84159.19294-.8751.1963-.1963.15786 1.6032-.06097 2.8542-.34167 1.9533-.96756 3.5279-2.07 5.2076-.51815.7895-.45967.79939.24618.0416 2.1929-2.3543 3.6005-5.2885 4.0188-8.3776.05849-.43197.13053-.8443.16007-.9163.04991-.12164.05885-.11786.12628.05335.09017.22897.09153.88743.0039 1.9101-.26069 3.044-1.3332 5.8695-3.1365 8.263-.36398.4831-.10764.30276.57068-.40149 2.8121-2.9196 4.4924-6.3848 5.052-10.418.12311-.88736.1567-1.0108.2495-.9169.07729.07821.0443 2.4248-.04378 3.1137-.42136 3.2957-1.6089 6.2689-3.5486 8.8848-.2469.33298-.42553.60541-.39694.60541.06822 0 1.7245-1.6882 2.1512-2.1926.95829-1.1329 1.9791-2.6992 2.7007-4.1439 1.1425-2.2873 1.8013-4.4652 2.1319-7.048.12172-.95082.14924-1.0549.25178-.9523.09858.09862.0889 2.1826-.01492 3.2103-.43003 4.2573-2.045 8.2495-4.6599 11.519-1.1155 1.3948-2.8651 3.0562-4.3304 4.1119-2.9001 2.0895-6.5085 3.4863-10.096 3.9079-1.0513.12356-3.3005.17328-4.2215.09331z" fill="#dce6d3"/>
  <path d="m21.86 42.745c-1.5173-.10358-2.8584-.29859-4.0512-.5891-3.9682-.96644-7.5738-3.034-10.446-5.99-1.6055-1.6524-2.8287-3.3725-3.846-5.4084-1.45-2.9019-2.168-5.7446-2.302-9.1136-.039069-.98227.013093-1.669.12678-1.669.035997 0 .11687.41233.17971.91629.5774 4.6304 2.6121 8.8815 5.894 12.314.58738.61442 1.3025 1.256 1.1927 1.07-.031885-.054-.22632-.32073-.43208-.59274-1.7588-2.3251-2.9959-5.1951-3.4564-8.0184-.29068-1.7822-.36066-4.2791-.11252-4.0152.014101.015.08772.45433.1636.97629.47827 3.29 1.7151 6.2465 3.6552 8.7375.74814.96058 2.1769 2.4641 2.1769 2.2908 0-.02154-.1903-.30418-.42288-.62809-1.8895-2.6314-2.9055-5.689-2.9374-8.8398-.00922-.91091.020789-1.1911.11724-1.0947.016189.01619.076653.35244.13436.74722.40747 2.7873 1.3767 5.157 2.9841 7.2955.54801.7291 1.7185 2.0289 1.8271 2.0289.02938 0-.18703-.36095-.48091-.80212-1.2419-1.8643-1.9709-3.8947-2.1994-6.1261-.10807-1.0555-.079055-1.9075.064968-1.9075.028908 0 .071958.16935.095668.37634.088065.7688.36169 1.9733.62104 2.7339.46609 1.3668 1.3227 2.9547 2.1176 3.9256.93293 1.1393 1.5333 1.7003 1.0393.97105-1.0039-1.4819-1.7058-3.3161-1.9112-4.9945-.08673-.70865-.08903-1.8998-.0037-1.8998.074 0 .09382.07709.23118.899.66598 3.9851 3.5932 7.3999 7.4496 8.6903 1.2797.42822 2.9775.67703 4.036.59146.72012-.05822 1.6128-.17743 1.6911-.22584.04171-.02578-.15268-.48674-.50058-1.187-.86219-1.7355-1.4279-3.4213-1.8441-5.4954-.22329-1.1127-.32752-1.9959-.32991-2.7954l-.0017-.57526-1.0618-1.4176c-.58401-.77968-1.2095-1.5862-1.3899-1.7922l-.32806-.37465-.45734.29498c-.87617.56511-1.7963.95633-2.7481 1.1684-.63744.14205-1.9263.11151-2.5853-.06126-1.1389-.29859-2.1964-.91807-3.1926-1.8703-1.0289-.98347-1.9439-2.2792-2.3384-3.3116-.44589-1.1669-1.4771-2.3872-2.8764-3.4039-.30759-.22348-.55925-.44664-.55925-.49592 0-.21387 1.7458-.8866 2.9512-1.1372 3.1263-.65002 6.5006-.32126 8.857.86294 1.7324.87061 2.8129 2.0519 3.3102 3.6189.20693.65208.24991 1.8186.09768 2.6507-.06256.34198-.1272.69682-.14366.78855-.0263.14663.11798.30081 1.1944 1.2763.67337.61022 1.2428 1.1095 1.2654 1.1095.0226 0 .06249-.29452.08865-.6545.12687-1.7458.36437-3.1118.7189-4.1347l.2081-.60046-.62179-.64781c-1.3487-1.4051-1.9343-2.7007-2.0045-4.4344-.10023-2.4759 1.0942-5.0342 3.5058-7.5088 2.0992-2.154 4.6877-3.7866 7.3743-4.651.62107-.19983 1.7256-.43924 2.0264-.43924.12469 0 .19629.28321.35579 1.4072.21014 1.4808.28739 2.5905.28705 4.1233-.0013 6.0633-1.9031 10.16-5.5724 12.005-.71281.35839-1.6949.68344-2.6102.86388-.52535.10358-.74427.17452-.7663.24833-.07.23448-.29757 1.4586-.3903 2.0995-.22976 1.588-.26591 2.2223-.26475 4.6469.0011 2.2075.0157 2.5465.14567 3.3707.28063 1.7795.67233 3.1087 1.2922 4.3851.46191.95116.79653 1.4726.94499 1.4726.06477 0 .45547-.17128.86822-.38063 3.2522-1.6495 5.5372-4.771 6.0696-8.2914.09887-.65376.12945-.76304.2011-.71876.09497.05869.0744 1.2799-.03445 2.0457-.1688 1.1874-.46071 2.1575-.98183 3.2629-.29692.62981-.46544.92121-1.0729 1.8553-.34619.53232.78592-.65775 1.3928-1.4641 1.325-1.7605 2.1418-3.7757 2.5297-6.2409.1424-.90508.30112-.42892.22977.68931-.16312 2.5566-.92781 4.8547-2.2867 6.8722-.54853.81439-.48502.8582.18959.13077 2.2151-2.3886 3.5887-5.1483 4.0866-8.2104.0751-.46196.15227-.93646.17148-1.0545.01921-.11799.05878-.19979.08793-.18177.10625.06566.1316.63827.07167 1.6188-.17714 2.8986-1.018 5.4251-2.5882 7.7768-.30044.44997-.60931.89912-.68637.99811-.316.40596.02489.13453.69869-.55632 2.819-2.8904 4.5627-6.502 5.09-10.543.05089-.38996.10971-.72621.13072-.74722.25068-.25068.18706 2.2265-.10102 3.9335-.50007 2.9632-1.7203 5.7863-3.5267 8.1593-.21556.28317-.39192.53434-.39192.55818 0 .10148.99262-.84911 1.6488-1.579 2.0533-2.284 3.5021-4.7333 4.4684-7.5545.50051-1.4612.77375-2.6944 1.0628-4.7967.02867-.20854.08159-.37762.11759-.37575.11312.0059.06956 2.9296-.05708 3.831-.28847 2.0534-.76555 3.8327-1.4917 5.5632-3.0873 7.3577-9.9566 12.458-17.849 13.251-.75438.07584-2.7228.13244-3.2809.09435z" fill="#d5e2ca"/>
  <path d="m20.453 42.615c-4.0208-.45658-7.9298-2.0894-11.111-4.6413-4.2698-3.4251-7.0702-8.3174-7.9045-13.809-.1427-.93935-.26065-3.8224-.16642-4.068.07435-.19375.15256.01079.20215.52864.11416 1.1923.53202 3.1031.9554 4.3689.90044 2.692 2.3231 5.1926 4.1714 7.3321.62034.71806 2.0296 2.1127 2.082 2.0603.01725-.01725-.15839-.27732-.39031-.57793-1.0171-1.3184-2.136-3.3348-2.6953-4.8571-.56997-1.5515-.94664-3.3374-1.0844-5.1414-.096407-1.2627-.051249-2.2438.096406-2.0945.014833.015.075586.3807.13501.81267.44509 3.2357 1.6667 6.2071 3.5893 8.7302.73771.96816 2.3355 2.6561 2.3355 2.4672 0-.02164-.18517-.29682-.41149-.6115-1.618-2.2497-2.5436-4.5661-2.8913-7.235-.10999-.84441-.13949-2.7957-.040721-2.6932.032936.0342.13827.53151.23407 1.1051.43771 2.6208 1.3831 4.8262 2.9746 6.939.47532.631 1.7619 2.03 1.8166 1.9753.01454-.01454-.19894-.36121-.47439-.77036-.97068-1.4418-1.74-3.2864-2.055-4.9274-.22834-1.1895-.31767-3.2678-.13191-3.0692.027339.02924.097775.36241.15652.74038.35888 2.3089 1.2899 4.4467 2.7222 6.2504.46782.58915 1.1698 1.3417 1.2514 1.3417.02963 0-.1254-.27243-.3445-.60541-.9724-1.4778-1.5694-3.0602-1.7957-4.76-.10691-.80296-.12426-1.8995-.03005-1.8995.07207 0 .07479.01068.26252 1.0312.19054 1.0358.45398 1.8038.98212 2.8631 1.7633 3.5368 5.0507 5.7896 9.0322 6.19 1.0025.10079 2.9778-.02391 3.1633-.1997.02994-.02838-.10794-.35696-.3064-.73019-1.2849-2.4164-2.1769-5.5186-2.3593-8.2053l-.07999-1.1781-.73292-.98175c-1.1313-1.5153-1.6219-2.1433-1.8302-2.3427l-.19106-.18285-.54976.34114c-2.9968 1.8596-5.9212 1.5633-8.4623-.85762-.94766-.90282-1.8343-2.1819-2.3094-3.3315-.12823-.3103-.36504-.77034-.52624-1.0223-.35902-.56118-1.6945-1.8937-2.392-2.3866-.27835-.19672-.50609-.39744-.50609-.44604 0-.11489.81063-.4874 1.6813-.77262 2.943-.96405 6.714-.88413 9.4013.19926 1.1285.45496 1.8209.88829 2.5545 1.5988.79245.7675 1.251 1.5194 1.5237 2.4982.17079.61322.15738 2.1901-.02463 2.8956l-.13169.51047 1.0483.96215c1.1748 1.0783 1.4858 1.3481 1.5136 1.3133.01049-.01315.05331-.4585.09516-.98967.13567-1.7222.41582-3.1845.78271-4.0857l.13807-.33913-.46173-.44626c-.64668-.62501-1.2005-1.3819-1.5717-2.148-.39924-.82394-.5739-1.5053-.62078-2.4216-.10254-2.0045.66623-4.0557 2.3537-6.2803.54045-.71245 2.0206-2.1907 2.8444-2.8407 2.2505-1.7757 4.9441-3.0803 7.1291-3.4527.49766-.08483.63382-.08961.67456-.023681.05346.086498.27888 1.4673.39506 2.4199.1111.911.15429 4.1172.06853 5.0872-.3799 4.2967-1.7675 7.3285-4.1892 9.1532-1.003.75573-2.4645 1.387-3.7746 1.6303-.32109.05964-.64901.12134-.72871.13712-.1715.03395-.20815.15158-.43679 1.4018-.36674 2.0054-.53013 4.5494-.43313 6.7441.11921 2.6973.56566 4.6695 1.4735 6.5094.53023 1.0746.78349 1.4726.93696 1.4726.06554 0 .3821-.12815.70346-.28478 1.9335-.94236 3.4078-2.242 4.591-4.0472.89416-1.3642 1.4033-2.756 1.7499-4.7837.07134-.4173.16655-.20082.16655.37866 0 1.3315-.39181 3.1145-.96824 4.4064-.27104.60741-.82718 1.5775-1.241 2.1647-.2456.34848.17351.0057.63915-.52271 1.8161-2.061 2.8766-4.2954 3.3064-6.9667.05756-.35774.1175-.66327.13319-.67896.15507-.15507.15045 1.2571-.0077 2.3442-.30453 2.0938-1.0258 3.9397-2.2333 5.7158-.2631.38697-.45214.70358-.42007.70358.11365 0 1.3329-1.3428 1.8769-2.067 1.5178-2.0208 2.5103-4.3272 2.9039-6.7484.07497-.46114.15258-.938.17249-1.0597.02555-.15625.05662-.2008.10576-.15165.04321.04321.06624.40516.06076.9551-.03181 3.1945-1.1419 6.4601-3.0727 9.0389-.21561.28798-.3792.53683-.36352.55301.05902.06091 1.4345-1.3691 2.0428-2.1238 2.2185-2.7524 3.4606-5.7577 3.9697-9.6047.02263-.17099.06667-.31088.09787-.31088.11474 0 .14267.73266.07063 1.8527-.24488 3.807-1.4223 7.0539-3.6386 10.034-.30994.41679-.54732.77401-.52751.79382.05919.05919 1.9313-1.8653 2.4702-2.5393 1.8453-2.3079 3.1395-4.7487 3.9373-7.4255.35053-1.1761.53166-2.018.72212-3.3563.0783-.55017.17147-1.0067.20705-1.0145.09603-.02103.11761 1.7364.03358 2.7347-.31619 3.7566-1.4938 7.1583-3.5457 10.243-.86392 1.2986-1.6168 2.217-2.7384 3.3406-3.539 3.5454-7.9394 5.6615-12.992 6.2475-1.0612.1231-3.7373.11997-4.8437-.0057z" fill="#cfddc3"/>
  <path d="m21.14 42.675c-.12599-.01251-.59723-.0695-1.0472-.12664-7.1666-.91013-13.486-5.4682-16.688-12.036-.99544-2.0422-1.6808-4.3206-1.9983-6.6431-.13154-.96229-.21217-3.6928-.11089-3.7554.080762-.04991.085711-.02625.27786 1.3284.52968 3.7344 2.2643 7.6013 4.7307 10.546.67989.81169 2.3759 2.53 2.4369 2.469.017634-.017634-.22837-.38226-.54668-.81027-2.3408-3.1476-3.4928-6.3976-3.7122-10.473-.043728-.81226.00599-1.4525.10509-1.3534.030538.03054.10233.39354.15953.80668.48504 3.503 1.9447 6.7684 4.2121 9.4232.51633.60454 1.304 1.4171 1.6081 1.659.29915.23796.28994.21982-.30681-.60409-1.4563-2.0107-2.3664-4.1686-2.805-6.6509-.16352-.92545-.25856-3.1743-.13415-3.1743.040781 0 .074149.02661.074149.05914s.075107.50402.1669 1.0478c.41547 2.4609 1.3929 4.7493 2.8849 6.754.45165.60687 1.911 2.1861 1.9678 2.1293.01414-.01414-.22932-.40486-.54101-.86828-1.3325-1.9811-2.0893-4.187-2.245-6.5436-.057248-.86635-.024424-1.4544.072437-1.2976.023502.03803.089803.36166.14733.71918.36991 2.2988 1.3039 4.3929 2.7863 6.2468.43403.54283 1.3054 1.449 1.3054 1.3575 0-.02522-.19126-.32992-.42502-.67711-1.0236-1.5203-1.659-3.2577-1.8644-5.0983-.12823-1.1491-.03947-2.0222.12151-1.1953.03689.18947.11597.59405.17574.89906.21272 1.0856.75822 2.4398 1.397 3.468 1.9946 3.2108 5.389 5.1968 9.1363 5.3455 1.0078.04 2.464-.09045 2.6071-.23355.0433-.0433-.0054-.19237-.14503-.44382-.91764-1.6527-1.6748-3.7407-2.1309-5.8764-.2774-1.299-.346-1.7952-.40111-2.9012l-.04346-.8723-1.1673-1.5493c-1.1271-1.4959-1.5168-1.9748-1.6075-1.9748-.02361 0-.2241.11442-.44553.25426-1.3807.87197-2.6022 1.2597-3.964 1.2583-1.6095-.0017-3.0587-.61994-4.4619-1.9035-.89041-.81448-1.7885-2.034-2.2509-3.0564-.44886-.99255-.63399-1.3327-.96404-1.7712-.46121-.61276-1.2962-1.4136-2.0359-1.9527-.34232-.24948-.62373-.49165-.62535-.53815-.00581-.1669 1.6244-.7971 2.7132-1.0489 1.2003-.27756 2.034-.36648 3.4361-.36648 2.2742 0 4.013.36523 5.6614 1.1892 2.7792 1.3891 3.9836 3.7879 3.3104 6.5929-.06898.28742-.10574.55584-.08168.59648.02406.04064.50026.4866 1.0582.99103.55796.50443 1.0859.99441 1.1731 1.0888.18758.203.3322.22232.3322.04437 0-.39255.15525-1.9153.26689-2.6177.15435-.97118.33898-1.7219.55958-2.2753l.16189-.40611-.54755-.54291c-1.9088-1.8926-2.5391-4.1979-1.851-6.7692 1.0884-4.0668 5.7019-8.3501 10.698-9.9321.7314-.2316 1.9473-.47707 2.0172-.40722.05575.055748.26416 1.3315.38069 2.3303.14505 1.2432.19795 3.9515.09989 5.1145-.31788 3.7704-1.3981 6.5511-3.2769 8.4356-1.2678 1.2716-2.947 2.1344-4.778 2.4549-.34197.05987-.66595.13115-.71995.1584-.11379.05743-.19611.39181-.4196 1.7043-.2856 1.6772-.38934 3.0604-.39026 5.2032-.000903 2.1168.0671 2.8934.39258 4.4833.32561 1.5905 1.1095 3.5799 1.7589 4.464.21786.2966.23374.30537.42921.23723.40076-.1397 1.4629-.71995 2.0345-1.1114 2.4507-1.6785 4.1412-4.2354 4.705-7.1165.21263-1.0865.19576-1.0276.26345-.92055.13143.20775.0218 1.6056-.20762 2.6473-.30005 1.3624-.95076 2.8728-1.7195 3.9911-.19744.28722-.34316.53757-.32383.55632.05289.05132 1.015-.98212 1.4665-1.5753 1.3546-1.7794 2.1766-3.706 2.5798-6.0459.15-.87064.23008-.85167.23008.0545 0 2.4217-.82861 4.9964-2.3199 7.2085-.3032.44974-.5276.81772-.49868.81772.108 0 1.4294-1.431 1.9062-2.0643 1.6234-2.1561 2.7077-4.7512 3.0346-7.2623.07008-.53841.10983-.68722.18356-.68722.11744 0 .01404 2.2025-.1471 3.1332-.44576 2.5745-1.5042 5.0107-3.0512 7.0229-.15703.20425-.28551.39008-.28551.41296 0 .10078.73022-.58488 1.352-1.2695 1.2865-1.4165 2.1291-2.654 2.9674-4.3581.83936-1.7062 1.4057-3.4887 1.6656-5.2426.05815-.39232.12089-.80903.13943-.92602.01854-.11699.06576-.21271.10494-.21271.10396 0 .02435 2.5487-.10631 3.4034-.46858 3.065-1.7375 6.0575-3.6169 8.5299-.26892.35377-.47178.66038-.45081.68135.06209.06209 2.0654-1.9917 2.6007-2.6663 2.5523-3.2161 4.0756-6.7647 4.6093-10.737.20243-1.5067.32787-1.2356.27083.58539-.06922 2.2101-.38647 4.0689-1.0401 6.094-2.1327 6.6077-7.359 11.826-13.993 13.97-1.4224.45984-3.0292.78888-4.6389.94999-.6182.06187-3.257.07861-3.8055.02414z" fill="#c6d7b7"/>
  <path d="m21.075 42.652c-4.8738-.45303-9.2549-2.3924-12.874-5.6989-2.8573-2.6103-5.0451-6.1805-6.1393-10.018-.27741-.97302-.52461-2.2062-.65389-3.262-.1296-1.0584-.19932-3.1206-.11285-3.3379.075766-.1904.049162-.30548.2799 1.2108.67876 4.4604 2.8183 8.6734 6.0504 11.914.78536.78744 1.3793 1.3008 1.2429 1.0742-.031348-.052081-.28589-.39222-.56566-.75587-2.3964-3.1149-3.7857-7.1174-3.786-10.907-7.86e-5-.89614.076865-1.1808.15923-.58905.32218 2.3146.8417 4.0594 1.7691 5.9414.62357 1.2654 1.5804 2.745 2.4114 3.7288.60264.71347 1.9288 2.0326 1.986 1.9754.01958-.01958-.14722-.27576-.37067-.5693-1.9604-2.5753-3.0648-5.6396-3.1863-8.8413-.026579-.70006-.016543-1.0349.031917-1.0648.045002-.02781.086504.06973.11422.26847.48676 3.4906 1.9942 6.6021 4.3634 9.0066.38922.39503.72584.70007.74804.67787.0222-.0222-.10714-.24038-.28742-.48485-1.3941-1.8904-2.2371-3.9657-2.5294-6.2264-.11033-.85332-.14182-2.1084-.050259-2.0033.029801.0342.1325.46721.22822.96226.41555 2.1492 1.2887 4.0649 2.6326 5.7758.40099.5105 1.4701 1.6156 1.4701 1.5196 0-.02646-.19169-.32887-.42598-.67202-.7946-1.1638-1.4526-2.6958-1.7338-4.0369-.2195-1.0467-.32472-2.6876-.1619-2.5248.01548.01548.10155.39708.19127.848.20658 1.0382.45836 1.7649.98307 2.8372.89389 1.8268 2.1958 3.2968 3.9289 4.4362 1.1589.76186 2.4512 1.2955 3.8542 1.5914 1.0602.22363 2.7671.28348 3.7589.13182.37148-.0568.70191-.11965.73428-.13965.03237-.02001-.12909-.39599-.3588-.83552-.82223-1.5733-1.4861-3.4131-1.8966-5.2566-.31258-1.4035-.4279-2.2574-.42935-3.1788-.0012-.76263-.0016-.76454-.21707-1.0472-.11873-.15574-.50618-.68078-.86099-1.1667-.86379-1.1831-1.6667-2.1598-1.7754-2.1598-.04872 0-.27365.1201-.49985.2669-.85842.55709-1.7999.94219-2.7959 1.1436-.7253.14665-1.918.10162-2.6223-.099-.69684-.19851-1.5897-.64788-2.2309-1.1228-1.2819-.94944-2.5136-2.5201-3.1102-3.9663-.50056-1.2133-1.4827-2.3866-2.8572-3.4131-.35136-.26242-.62179-.50469-.60097-.53839.11943-.19324 1.4523-.70479 2.5264-.96961 1.2036-.29676 2.2082-.41433 3.5567-.41624 1.6512-.0023 2.8985.17835 4.287.62105 2.0338.64843 3.6197 1.8543 4.3444 3.3033.23733.47449.4744 1.3367.52744 1.9182.04863.53313-.03908 1.4206-.20637 2.0882l-.10505.41922.25893.23528c.14241.1294.72306.65828 1.2903 1.1753.56728.517 1.045.92642 1.0616.90982s.06039-.4396.09732-.94c.12372-1.6765.36128-2.9757.73303-4.0089l.19665-.5465-.5869-.59887c-.86992-.88767-1.2314-1.4171-1.6377-2.3987-.58396-1.4109-.55391-3.4064.07586-5.037.41574-1.0765.99576-2.102 1.7494-3.0931.53442-.70279 1.8104-2.0163 2.6402-2.7179 1.486-1.2564 3.8309-2.6017 5.5983-3.2119.68431-.23625 2.1231-.60077 2.3713-.60077.29726 0 .69044 4.0585.6121 6.3181-.19753 5.6971-2.069 9.4499-5.595 11.219-.59286.2975-1.8331.69753-2.5612.82614-.34198.06039-.66041.14579-.70764.18976-.11602.10803-.37358 1.4064-.53267 2.6851-.6108 4.9097-.17072 9.109 1.2552 11.977.35765.71941.77874 1.3963.89679 1.4416.054.02072.4821-.15514.95132-.39081 3.1245-1.5693 5.36-4.5025 6.0201-7.8988.05856-.30131.1251-.62146.14788-.71146.08174-.32301.13126.38744.07411 1.0633-.15782 1.8664-.82909 3.7406-1.9155 5.3483-.26854.39737-.46404.72248-.43444.72248.11276 0 1.3104-1.316 1.7749-1.9504 1.2339-1.685 2.0819-3.7476 2.4205-5.8872.18802-1.1882.27068.10881.09364 1.4693-.30153 2.3171-1.1174 4.3608-2.4964 6.2538-.22946.31498-.38991.57268-.35656.57268.09174 0 1.396-1.3443 1.8098-1.8653 1.6728-2.1064 2.7798-4.5656 3.2033-7.1159.05545-.33394.11689-.70371.13652-.8217.02216-.13316.06296-.19768.10756-.17012.09386.05801.02425 1.651-.11613 2.6575-.11656.83572-.44274 2.1576-.74727 3.0286-.45802 1.3099-1.4138 3.0536-2.3415 4.2716-.19919.26155-.34698.49074-.32842.5093.05169.05169.99049-.84629 1.6013-1.5317 2.5364-2.846 4.0355-6.1834 4.569-10.172.07374-.55122.16426-.25975.1642.52873-.000131 1.4701-.17904 2.8165-.58922 4.4336-.59816 2.3582-1.6412 4.5111-3.1612 6.5247-.35288.4675-.6257.86589-.60627.88533.06459.06459 2.3019-2.2318 2.8464-2.9216 2.4223-3.0685 3.9418-6.6078 4.4853-10.448.05604-.39597.11983-.79358.14175-.88357.03743-.1537.04308-.15568.0932-.03272.12737.31252.03562 2.3334-.17234 3.7961-.83786 5.8931-4.044 11.144-8.9411 14.645-2.8334 2.0254-6.2147 3.3408-9.8091 3.816-.89095.11778-3.6957.17458-4.5768.09269z" fill="#b9cea6"/>
  <path d="m21.664 42.673c-4.0304-.23774-8.0088-1.6382-11.294-3.9757-1.4875-1.0584-3.3845-2.8637-4.4408-4.2261-2.3962-3.0907-3.8787-6.5178-4.4289-10.238-.16659-1.1266-.29637-3.4223-.20784-3.6764l.065935-.18929.03573.16362c.019652.08999.097544.57596.17309 1.0799.58535 3.9047 2.3824 7.7391 5.0774 10.834.80376.92291 2.3875 2.4271 2.3875 2.2676 0-.01671-.23904-.33533-.53121-.70804-2.482-3.1662-3.8191-6.8001-3.964-10.773-.045643-1.2513.03412-1.5101.17146-.55632.4795 3.33 1.8245 6.4229 3.9321 9.042.75841.94248 2.3552 2.5293 2.3552 2.3405 0-.01468-.23225-.33712-.5161-.71654-1.5658-2.093-2.5362-4.3222-2.9833-6.8535-.14001-.79263-.26467-2.4822-.20039-2.7162l.053952-.19635.051797.22908c.028487.12599.12844.62668.22212 1.1126.41863 2.1718 1.4205 4.4015 2.8232 6.2832.52561.70511 2.1491 2.414 2.223 2.34.02271-.02271-.09031-.21243-.25115-.42162-1.2148-1.5799-2.1311-3.5644-2.5021-5.4186-.24672-1.2332-.38563-2.8485-.24497-2.8485.027759 0 .11902.36079.20281.80176.41943 2.2075 1.4501 4.3744 2.906 6.1096.51894.6185 1.2825 1.3659 1.3383 1.3101.01765-.01765-.14449-.27691-.36031-.57614-1.0352-1.4352-1.6736-2.9679-1.9807-4.7557-.11183-.65091-.18019-1.9823-.09753-1.8996.01655.01655.10638.39146.19964.83313.22374 1.0597.47079 1.7596.98515 2.7911.56815 1.1393 1.1464 1.936 2.0903 2.8799.96277.96277 1.7481 1.5298 2.9453 2.1265 1.0155.50616 1.7514.76889 2.7816.99314.61306.13345.85674.14916 2.258.14564 1.5571-.0039 2.2289-.08086 2.2231-.25466-.0012-.036-.25704-.58087-.56854-1.2108-1.2417-2.511-2.0288-5.4106-2.1251-7.8285l-.0394-.98897-1.092-1.4654c-.60058-.80597-1.2377-1.6237-1.4157-1.8172l-.32374-.35177-.47845.30951c-1.5069.9748-3.2288 1.4248-4.6544 1.2163-1.5139-.22136-2.6969-.86049-3.9987-2.1604-.82074-.81953-1.5835-1.8786-1.959-2.7198-.42088-.943-.54376-1.1867-.77526-1.5378-.44969-.68192-1.733-1.9183-2.5461-2.4528-.15299-.10058-.27816-.21904-.27816-.26325 0-.0442.23827-.18928.52949-.32241 1.5519-.70939 3.4763-1.0852 5.5573-1.0852 4.5692 0 7.9768 1.8164 8.9019 4.7451.2275.72021.25395 1.8966.06407 2.8502l-.14814.74396.38935.36278c1.2054 1.1231 2.1266 1.9336 2.198 1.9336.05272 0 .08744-.1264.09887-.35997.0776-1.586.39187-3.5005.73347-4.4683.10887-.30844.19785-.58525.19775-.61512-.000131-.02988-.26627-.32744-.59149-.66124-.62627-.6428-1.1911-1.4443-1.5037-2.1338-.64101-1.4137-.68906-3.2384-.13029-4.9483 1.3778-4.2161 6.3547-8.4642 11.384-9.7165.34479-.085858.74807-.17536.89618-.19889l.26929-.042787.10474.67511c.80119 5.1643.39092 9.6398-1.1691 12.754-1.335 2.6647-3.5928 4.3586-6.5519 4.9157-.51381.09674-.76673.17401-.80368.24554-.12811.24798-.45586 2.2311-.60676 3.6714-.13631 1.301-.11491 5.2586.03381 6.2504.18196 1.2135.42282 2.2811.70884 3.1416.44439 1.337 1.3469 3.0434 1.6097 3.0434.19175 0 1.5944-.73825 2.2187-1.1678 2.3995-1.6508 4.0798-4.1526 4.6735-6.9582.20655-.97606.27174-1.0096.23477-.12067-.07973 1.9168-.78398 3.9469-1.9779 5.7015-.27176.39938-.47814.74211-.45862.76163.01951.01952.31151-.24553.64888-.58899 1.9214-1.9561 3.1816-4.4585 3.6421-7.2324.1241-.74755.22296-.53106.1686.36918-.16335 2.7048-1.0281 5.0965-2.6334 7.2836-.23585.32134-.41067.6024-.38847.6246.07047.07047 1.6246-1.5586 2.1389-2.2421 1.7055-2.2664 2.6069-4.4549 3.1118-7.5549.02965-.18207.04902-.20568.09756-.11894.08468.15132-.04239 2.0262-.19941 2.9421-.41983 2.4491-1.5069 4.8862-3.0978 6.9448-.21625.27983-.37335.52861-.3491.55286.08088.08088 2.0989-2.0327 2.6696-2.796 1.88-2.5146 3.0215-5.1904 3.5216-8.2552.07265-.44526.13209-.83338.1321-.86251 7e-6-.02912.03385-.03204.0752-.0065.09654.05967.03106 1.7131-.11145 2.814-.42046 3.2483-1.7805 6.4676-3.8134 9.0263-.84332 1.0615-.53517.88889.8034-.44992 3.3263-3.3269 5.3377-7.2566 6.1167-11.95.10948-.65972.21809-1.2174.24135-1.2392.10039-.09424-.033 2.93-.16856 3.8218-.60808 4.0003-2.1579 7.506-4.7018 10.636-.72768.89519-2.2128 2.3703-3.121 3.0999-2.6154 2.1012-5.9843 3.7008-9.163 4.3507-1.8529.37883-3.9072.53069-5.7268.42336z" fill="#abc495"/>
  <path d="m21.533 42.646c-8.4835-.56009-15.844-6.0013-18.848-13.933-.86454-2.2826-1.2971-4.4824-1.3449-6.8395-.030553-1.5069.00694-1.5283.22909-.1309.5719 3.5975 2.1309 7.0797 4.4981 10.047.79319.99415 2.9082 3.0895 3.0128 2.9849.017959-.01796-.20398-.32683-.49319-.68638-1.7857-2.2199-3.1185-5.0434-3.6751-7.7856-.27511-1.3552-.49757-3.9322-.34745-4.025.039998-.02472.08394.09523.11037.30129.10433.81347.44681 2.3113.72926 3.1894.83548 2.5975 2.1926 4.902 4.0976 6.9583.62081.6701 1.4839 1.4516 1.5405 1.3949.01807-.01807-.158-.2777-.39128-.57695-1.4526-1.8634-2.5883-4.2959-3.0194-6.4673-.21819-1.099-.3125-1.9988-.28814-2.7489l.020194-.62177.21428 1.0799c.49764 2.508 1.6144 4.9027 3.1898 6.8395.55007.67629 1.9107 2.0374 1.9737 1.9745.02326-.02326-.09083-.21196-.25354-.41933-1.6413-2.0918-2.6756-4.7896-2.7795-7.2492-.021275-.50396-.023066-.90157-.00398-.88357.019087.018.099354.3567.17837.75267.41679 2.0886 1.4562 4.2547 2.8266 5.8905.55105.65779 1.4133 1.5095 1.4704 1.4525.02042-.02042-.14565-.2887-.36905-.59618-1.0954-1.5077-1.8228-3.317-2.0623-5.1302-.10812-.81841-.12606-1.5082-.03352-1.2893.03043.07199.13233.47082.22644.88627.46244 2.0416 1.5902 3.9973 3.1876 5.5278.88308.84611 1.7142 1.4332 2.7723 1.9583 2.1282 1.0562 4.2405 1.3989 6.6214 1.0742.29401-.04009.57381-.09798.62177-.12865.06804-.0435.0131-.19613-.24998-.69442-.99254-1.8799-1.7238-4.0232-2.1831-6.3982-.07657-.39597-.17481-1.2501-.21831-1.898l-.07908-1.1781-.97315-1.309c-1.0873-1.4625-1.7344-2.258-1.8367-2.258-.03757 0-.22695.10683-.42083.2374s-.63528.3794-.98087.55295c-2.7098 1.3608-5.4222.86432-7.7007-1.4095-.95301-.95106-1.6168-1.9273-2.1578-3.1737-.15752-.36289-.44246-.88758-.6332-1.166-.43977-.64188-1.351-1.5525-2.168-2.1666-.34902-.26233-.61609-.5069-.59348-.54348.02261-.03658.23524-.15362.47251-.26007 1.5365-.68936 3.6272-1.1031 5.5746-1.1031 3.196 0 6.0761.99473 7.6366 2.6376.57627.60666.95501 1.2359 1.2181 2.0237.19288.57749.2027.65731.19964 1.6219-.0025.79785-.03145 1.1234-.13541 1.5247-.15619.60287-.23312.46913.80025 1.3912.39597.35332.93492.84761 1.1977 1.0984.26855.25635.5011.4302.53111.39706.02936-.03243.08753-.51976.12927-1.083.12408-1.6745.3936-3.0939.76264-4.0163l.17379-.43442-.51932-.50238c-.98273-.95068-1.6543-2.0476-1.9623-3.2048-.14601-.54874-.16912-.76957-.16928-1.6173-.000196-1.0456.07328-1.5125.38463-2.4437 1.3081-3.9127 5.718-7.8682 10.478-9.3982.78362-.25189 1.93-.51221 1.9878-.4514.07917.083307.37661 2.2878.4621 3.4249.09665 1.2855.04084 4.081-.10176 5.0972-.24766 1.7648-.72149 3.4621-1.3072 4.6824-1.3063 2.7216-3.6694 4.5479-6.5318 5.0481-.9341.16321-.90916.14065-1.0768.97445-.39596 1.969-.56097 3.7719-.5635 6.1563-.0024 2.2719.144 3.5651.60687 5.3603.43483 1.6865 1.5142 3.9009 1.9014 3.9009.2112 0 1.7632-.82676 2.3674-1.2611 2.2901-1.6464 3.8186-3.9202 4.4758-6.6583.09936-.41397.20509-.78065.23494-.81485.13634-.15618-.03574 1.5207-.23861 2.3252-.41823 1.6586-1.0827 3.0422-2.127 4.4292-.11519.15299-.1743.27816-.13135.27816.12641 0 1.0199-.89901 1.5612-1.5708 1.4506-1.8004 2.2455-3.5136 2.7911-6.0156l.15111-.69294.0056.61337c.01103 1.2037-.35196 2.9775-.88513 4.3253-.48623 1.2292-.93149 1.9904-2.1127 3.6121-.05003.06868-.0737.14214-.0526.16324.06523.06523 1.4062-1.2825 1.9628-1.9726 1.603-1.9876 2.7005-4.3333 3.1848-6.8068.2439-1.2457.26336-1.2592.23541-.16362-.07945 3.114-1.2535 6.2465-3.3544 8.9502-.23077.29698-.38953.53996-.35282.53996.12083 0 1.1206-.92757 1.7235-1.599 2.5573-2.8482 4.0647-6.0795 4.6734-10.018l.05057-.32725.04253.32725c.10763.82819-.14597 2.9922-.52924 4.516-.65599 2.6082-1.7382 4.7999-3.4518 6.9907-.30439.38917-.54032.7207-.52428.73673.05308.05308.98762-.79065 1.7518-1.5816 3.1278-3.2373 5.213-7.5076 5.8294-11.938.14075-1.0117.2016-.81851.16494.5236-.06901 2.5265-.56389 4.9451-1.4854 7.2593-2.8842 7.2433-9.4682 12.409-17.145 13.451-.86629.11763-2.5198.23519-3.1368.22302-.23398-.0046-.79358-.03269-1.2435-.0624z" fill="#a2bd88"/>
  <path d="m20.78 42.582c-3.0316-.31288-6.0174-1.2672-8.5758-2.7409-5.9123-3.4058-9.8386-9.2603-10.733-16.004-.10296-.77613-.21448-3.3039-.14288-3.2388.020351.0185.11052.47556.20038 1.0157.76267 4.5844 2.8248 8.6243 6.0634 11.879.73156.73514 1.499 1.4007 1.553 1.3468.017959-.01796-.21154-.33611-.50999-.707-2.4392-3.0312-3.7853-6.5096-4.0523-10.472-.090608-1.3444-.0052-1.5635.18332-.47018.64379 3.7336 2.286 6.994 4.8877 9.7039.6656.69328 1.3985 1.3468 1.4513 1.294.016-.016-.23393-.37833-.55541-.80517-.70768-.9396-1.1352-1.6181-1.5871-2.5185-.96039-1.9137-1.5374-4.0996-1.6047-6.0788-.034931-1.0271.028042-.99728.23243.11024.39834 2.1585 1.4297 4.446 2.865 6.3547.75095.99859 2.2412 2.5242 2.3548 2.4106.01773-.01773-.19085-.32838-.46351-.69034-1.5824-2.1006-2.5502-4.7004-2.6326-7.0714-.015648-.45058-.014806-.78978.00187-.75378.016678.036.10737.41441.20154.84092.4443 2.0123 1.348 3.9285 2.578 5.4667.49272.61612 1.6867 1.8176 1.7467 1.7576.02055-.02055-.17055-.32683-.42466-.68062-1.0477-1.4586-1.7142-3.0172-1.9964-4.6684-.11365-.66488-.20658-1.8176-.14162-1.7566.02534.02378.11527.34776.19984.71995.74519 3.2796 2.8588 6.042 5.792 7.57 2.111 1.0997 4.3562 1.518 6.5676 1.2237.80867-.10763.95912-.14564.95912-.24235 0-.03782-.24483-.55861-.54406-1.1573-1.2109-2.4228-1.9935-5.2461-2.1515-7.7622l-.07387-1.1759-1.0274-1.3766c-1.1164-1.4958-1.6851-2.1948-1.7859-2.1948-.03544 0-.2456.11442-.46703.25426-.58966.37241-1.374.75267-1.9489.94481-1.4477.48387-2.9449.43166-4.3127-.15038-1.8145-.77214-3.5668-2.637-4.5215-4.812-.17381-.39597-.45539-.92611-.62572-1.1781-.40558-.6-1.4655-1.6567-2.2247-2.2179-.33268-.24591-.58982-.47145-.57143-.5012.11468-.18556 1.7543-.77428 2.7875-1.0008 1.263-.27698 1.8491-.33645 3.2976-.3346 2.324.003 4.0404.37809 5.7374 1.2539 1.6432.84808 2.7043 2.0601 3.1426 3.5897.20898.72926.20779 2.0266-.0026 2.8761l-.14591.58905.25212.22907c.13867.12599.73183.66665 1.3181 1.2015.58631.53481 1.0895.94714 1.1182.91629.02872-.03085.08602-.49787.12735-1.0378.12903-1.6859.4097-3.1716.76853-4.0679l.16812-.42003-.65841-.67674c-1.2314-1.2657-1.8033-2.4157-1.9794-3.9802-.22125-1.9662.54107-4.22 2.1594-6.3843.57317-.76653 2.0377-2.2594 2.8843-2.94 1.6995-1.3664 3.7731-2.5211 5.5959-3.1162.69973-.22843 2.1297-.58862 2.1714-.54695.05389.053887.26623 1.3772.37973 2.3665.14856 1.2949.20156 3.8365.1049 5.0313-.41079 5.0778-2.2382 8.4286-5.482 10.052-.66246.33157-1.7235.68336-2.4754.82074-.32398.05919-.65399.12046-.73337.13616-.17675.03495-.22782.19973-.44466 1.4347-.485 2.7621-.61646 6.0931-.33041 8.3726.301 2.3986.98427 4.5097 1.9451 6.01.22571.35241.31608.44177.44673.44172.09008-3.3e-5.47874-.15941.86368-.35417 3.0864-1.5616 5.2186-4.2757 6.0183-7.6611.08107-.34321.17398-.62402.20645-.62402.07022 0 .01308.6972-.12874 1.5708-.28196 1.7369-1.0918 3.5518-2.2851 5.1214-.67581.8889.74656-.39474 1.5411-1.3908 1.2121-1.5195 2.1179-3.345 2.5257-5.0901.09024-.38618.20441-.86413.25369-1.0621l.08961-.35997.0065.51169c.01326 1.0444-.3362 2.798-.81104 4.0698-.44975 1.2046-1.2176 2.5709-2.0201 3.5948-.58893.75136-.32289.60897.63388-.33926 2.2685-2.2483 3.7206-5.0067 4.3666-8.2952.07778-.39597.15722-.73467.17651-.75267.08015-.07477-.05562 1.861-.18303 2.6096-.45184 2.6547-1.4589 4.934-3.1484 7.1261-.28439.36897-.4875.67086-.45136.67086.10669 0 .91031-.71978 1.5046-1.3476 2.5432-2.6868 4.1946-5.9823 4.8511-9.6806.07668-.43197.1553-.80012.17472-.81812.07046-.06531-.04304 2.2102-.14365 2.8798-.05679.37797-.22307 1.1732-.3695 1.7671-.65451 2.6548-1.7773 4.9013-3.6028 7.2086-.24604.31098-.44735.58542-.44735.60987 0 .17782 1.8308-1.563 2.6815-2.5497 2.5514-2.9593 4.3039-6.7305 4.912-10.57.08266-.52196.17879-.97847.21362-1.0145.04083-.0422.0496.34138.02469 1.0799-.14063 4.1697-1.3856 7.9731-3.7667 11.507-.89384 1.3267-2.4692 3.0808-3.7706 4.1984-3.3055 2.8386-7.3492 4.5848-11.748 5.0735-.95615.1062-3.5673.12248-4.4833.02795z" fill="#9dba82"/>
  <path d="m20.618 42.55c-4.3661-.47563-8.476-2.2503-11.75-5.0737-2.2276-1.921-4.0211-4.2319-5.3031-6.8328-1.1423-2.3175-1.7844-4.4428-2.0935-6.9293-.11074-.89073-.20662-2.9772-.13373-2.9099.02601.02401.1183.45652.20508.96115.64066 3.7252 2.1464 7.0762 4.4989 10.013.95967 1.1978 2.9742 3.19 3.0993 3.0649.022301-.0223-.037626-.13691-.13317-.25468-2.5658-3.1627-3.8949-6.2045-4.3277-9.9045-.088723-.75847-.1388-2.2526-.073168-2.1833.014203.015.10147.44082.19392.94627.31763 1.7365.80301 3.1932 1.6129 4.8406.56952 1.1584 1.3247 2.3572 2.082 3.3052.82389 1.0313 2.5705 2.7651 2.6776 2.658.01643-.01643-.20456-.33405-.49109-.7058-1.2832-1.6649-2.0904-3.2025-2.6913-5.1265-.3611-1.1562-.66345-2.9945-.65892-4.0062.00238-.53149.079538-.44629.1903.21013.47362 2.8068 1.9438 5.7094 4.0108 7.9188.56256.60131 1.2863 1.2416 1.3412 1.1866.01739-.01739-.14468-.26321-.36016-.54626-1.5323-2.0129-2.4209-4.1183-2.7285-6.4648-.0994-.75827-.13151-1.4609-.063655-1.3931.019738.01974.10587.34562.19141.72417.52523 2.3245 1.5729 4.3279 3.2357 6.1872.44296.49533 1.1133 1.0864 1.169 1.0307.01748-.01748-.16409-.29483-.40348-.61635-1.2633-1.6967-1.9857-3.5568-2.199-5.6623-.03964-.3913-.05668-.72686-.03787-.74568.04303-.04303.05914.0093.2371.76992 1.2219 5.2229 6.1022 8.926 11.444 8.6837.92931-.04215 1.6853-.14777 1.8189-.25411.05824-.04635-.02953-.26755-.34105-.85955-1.3312-2.5298-2.3226-6.1006-2.3226-8.3657l-1.4e-5-.82837-.38257-.51335c-.21042-.28234-.68209-.91715-1.0482-1.4107-.83888-1.131-1.3656-1.7534-1.4838-1.7534-.05062 0-.30183.13572-.55825.30159-.61465.39761-1.3979.7603-2.1235.98323-.54404.16716-.67307.18094-1.7013.18166-1.0453.000726-1.1463-.01037-1.669-.18324-1.211-.40056-2.1903-1.0451-3.2148-2.1159-.60763-.63513-1.3791-1.6991-1.6743-2.3089-.078394-.16199-.29052-.60784-.47139-.99078-.51277-1.0856-1.4593-2.1564-2.6981-3.0524-.28345-.205-.51535-.40596-.51535-.44656 0-.15688 1.345-.67703 2.4458-.94582 1.2745-.31121 2.1529-.41286 3.5756-.41378 2.6057-.0017 4.7334.54117 6.4447 1.6442 2.1307 1.3734 3.0169 3.4976 2.4777 5.9385-.0558.25258-.11506.51907-.13168.59221-.02397.10541.24136.38014 1.28 1.3254.72062.65581 1.3386 1.1924 1.3732 1.1924.03465 0 .08259-.28716.10652-.63813.12308-1.8047.39427-3.3538.76791-4.3864l.19692-.54422-.6264-.64554c-.68379-.70468-1.2464-1.5096-1.5427-2.207-1.0228-2.4076-.44358-5.2676 1.6414-8.1041.59132-.80446 2.2931-2.5302 3.1313-3.1755 1.9143-1.4736 4.0859-2.6035 6.0276-3.1362.97531-.26756 1.1698-.31854 1.3778-.36119.17121-.0351.1745-.028737.27676.53672.19498 1.0781.30182 2.0788.3808 3.5666.33598 6.329-1.405 10.923-4.9334 13.02-.92568.54994-2.4293 1.0777-3.4247 1.2021-.19474.02433-.39775.07781-.45114.11884-.20487.15746-.62964 2.9139-.75766 4.9168-.28809 4.5071.35166 8.0364 1.9411 10.708.17344.29158.36174.55496.41843.58531.12833.06868.88347-.25127 1.6405-.69508 2.0555-1.205 3.7552-3.1016 4.6878-5.2307.30341-.69265.43068-1.0658.6808-1.9962l.18475-.68722-.03057.68722c-.05051 1.1355-.43222 2.5547-1.0179 3.7846-.3145.66044-.95224 1.6882-1.3631 2.1966-.2259.27958-.26679.40809-.10017.31484.26986-.15102 1.406-1.3669 1.9312-2.0668 1.1903-1.5861 2.0408-3.4561 2.3849-5.2438.1457-.757.22086-.89572.22344-.41241.0049.91463-.36274 2.8239-.7536 3.914-.42844 1.1949-1.0993 2.422-1.9424 3.553-.28942.38825-.51279.71934-.49638.73574.05501.05501.93126-.73136 1.4326-1.2857 1.966-2.1736 3.2297-4.6154 3.8238-7.3882.24112-1.1255.28255-1.2367.28899-.77597.0028.20317-.02507.67441-.06203 1.0472-.30766 3.1033-1.4401 5.8762-3.4382 8.419-.20587.26199-.35848.49217-.33915.5115.05496.05496.86996-.67354 1.5463-1.3822 2.4687-2.5867 4.0964-5.7271 4.7588-9.1815.24659-1.2859.29674-1.3201.25822-.17614-.08609 2.556-.81016 5.2203-2.0713 7.6213-.59098 1.1252-1.3417 2.2365-2.3348 3.456-.58838.72258.3603-.01976 1.5072-1.1794 3.1873-3.2227 5.3171-7.4502 5.9838-11.878.06098-.40497.13948-.73631.17444-.73631.08354 0 .0081 1.7555-.1197 2.7864-.27577 2.2241-.73995 3.9733-1.5792 5.9511-3.0575 7.205-9.8307 12.201-17.656 13.023-1.1648.12232-3.4163.12065-4.555-.0034z" fill="#95b578"/>
  <path d="m21.435 42.616c-.10799-.0149-.52032-.05949-.9163-.099101-3.6485-.36498-7.4596-1.8613-10.459-4.1064-5.1416-3.849-8.2314-9.5127-8.6826-15.915-.036782-.52196-.067169-1.0595-.067525-1.1945-.00113-.42987.10479-.26428.18838.29452.24434 1.6332.93914 3.9567 1.6448 5.5002 1.051 2.299 2.3909 4.2813 4.1067 6.0754.79514.83146 1.8314 1.7597 1.9645 1.7597.10231 0 .038063-.09264-.61278-.88357-2.1138-2.5688-3.5079-5.9347-3.917-9.4575-.096322-.82945-.13962-1.9567-.07258-1.8897.016602.0166.10518.41478.19683.88485.59138 3.033 1.8455 5.7408 3.7695 8.1388.868 1.0818 2.6831 2.8253 2.6783 2.5726-.000524-.02903-.21132-.31786-.46838-.64183-1.9376-2.4419-3.1106-5.3417-3.3924-8.3862-.075661-.81742-.068613-1.2326.017077-1.0059.020406.054.1159.46633.2122.9163.2452 1.1457.62025 2.2304 1.1541 3.3379.54196 1.1243.87506 1.6777 1.6019 2.6613.76429 1.0343 2.4351 2.7395 2.561 2.6137.01699-.01699-.21822-.36405-.5227-.77125-1.609-2.1518-2.4695-4.3984-2.7027-7.0563-.054713-.62343.044566-.54737.19659.15061.39886 1.8313 1.3718 3.8629 2.5698 5.366.70332.88244 1.7967 1.955 1.8938 1.8578.02043-.02043-.18638-.3406-.45958-.71147-1.1169-1.5162-1.8117-3.1568-2.1013-4.9613-.05487-.34197-.09779-.76903-.09537-.94902.0041-.30473.0191-.2732.21802.45815.41446 1.5238 1.0201 2.7968 1.8994 3.9924.52955.72003 1.7759 1.939 2.5246 2.4693 1.2045.85298 2.8535 1.5664 4.3524 1.8829.95245.20116 2.6971.24948 3.6979.10242.41397-.06083.78139-.13891.8165-.17351.04131-.04071-.01215-.1951-.15152-.4376-1.4077-2.4492-2.5573-6.4459-2.5647-8.9159l-.0022-.75267-1.1065-1.4814c-.60857-.81477-1.263-1.6468-1.4543-1.8489l-.34783-.36753-.35997.23397c-1.4468.94038-2.9485 1.3964-4.338 1.3173-1.6075-.09151-2.9894-.76147-4.3412-2.1047-1.0018-.99532-1.6274-1.9047-2.1849-3.176-.17042-.38862-.46255-.92746-.64917-1.1974-.39428-.57035-1.5159-1.6821-2.2506-2.2308-.38826-.28996-.49372-.40107-.44099-.4646.1228-.14796 1.446-.63552 2.3237-.85619 1.1936-.3001 2.3405-.4364 3.6672-.43582 3.2808.0014 5.9965.95535 7.6286 2.6796.42302.44689.58534.68122.84358 1.2178.17587.36542.37047.87058.43244 1.1226.14859.60419.14566 1.7896-.0061 2.4544-.19796.8674-.20667.7993.14386 1.1253 1.3227 1.2301 2.2865 2.0818 2.3558 2.0818.10026 0 .13539-.21325.18871-1.1454.08035-1.4047.42635-3.2319.76014-4.0142.06655-.15597.121-.32987.121-.38643 0-.05656-.17998-.26571-.39995-.46477-.90713-.8209-1.7327-2.1445-2.0273-3.2503-.19822-.74397-.243-2.0904-.09576-2.8798.63451-3.4018 3.6312-6.9796 7.759-9.2635 1.1529-.63791 2.3978-1.1477 3.5152-1.4396.42445-.11086.84535-.227.93534-.25807.08999-.031076.241-.073275.33557-.093776l.17195-.037274.13862.89916c.49812 3.231.49869 6.2748.0017 8.8513-.50513 2.6185-1.4752 4.6316-2.9347 6.0902-1.2778 1.277-2.7912 2.0554-4.7179 2.4267-.41302.0796-.78587.17118-.82855.20352-.15003.11369-.44795 1.7519-.65179 3.5841-.14355 1.2902-.16581 5.0425-.03611 6.0868.23252 1.8723.76008 3.7985 1.389 5.0715.3952.79994.81193 1.4633.95339 1.5176.14283.05481 1.6926-.72626 2.3426-1.1806 2.2762-1.5912 3.8431-3.8151 4.5519-6.4607.10788-.40266.21595-.75031.24014-.77256.07829-.07199-.04086 1.0483-.17984 1.6909-.37491 1.7337-1.0833 3.227-2.291 4.8295-.11511.15274-.19282.29417-.1727.3143.068.068.83422-.62614 1.3969-1.2655 1.4936-1.6972 2.6828-4.036 3.0767-6.0514.23726-1.2139.28078-.356.05228 1.0308-.36418 2.2104-1.187 4.1369-2.5262 5.9144-.28838.38279-.5399.73622-.55892.7854-.1568.40543 1.7345-1.4636 2.4629-2.434 1.4803-1.972 2.4633-4.1486 2.9248-6.4764.06263-.31587.12844-.55974.14626-.54192.06037.06037.0095 1.0471-.09119 1.7707-.38484 2.7642-1.5468 5.4255-3.3368 7.6425-.7755.96052-.4729.81771.70887-.33452.94685-.92319 1.5336-1.5938 2.1566-2.4647 1.5598-2.1806 2.5782-4.525 3.1201-7.1829.27639-1.3555.33068-1.2709.20376.3175-.29811 3.7309-1.6609 7.1376-4.0366 10.091-.87591 1.0889-.80964 1.1278.27591.16221 3.6445-3.2418 6.1377-7.8615 6.9095-12.803.1345-.86109.20399-.43581.12732.77924-.19945 3.161-.92326 5.833-2.3305 8.603-1.8812 3.7031-4.7569 6.7379-8.4265 8.8928-2.3855 1.4008-5.119 2.3217-8.0942 2.7269-.71117.09684-3.7669.18633-4.2215.12362z" fill="#87ab66"/>
  <path d="m21.631 42.613c-1.8154-.14682-3.2097-.3918-4.7507-.83464-5.6845-1.6337-10.514-5.6428-13.208-10.964-1.3748-2.7157-2.1853-5.7714-2.2673-8.5488l-.03094-1.0472.22524 1.0799c.43313 2.0767 1.0116 3.7831 1.8638 5.4978 1.1682 2.3506 2.4549 4.0968 4.4369 6.0214.96503.93707 1.4593 1.3403 1.4593 1.1905 0-.03325-.25216-.36626-.56036-.74001-2.1908-2.6567-3.5829-5.8418-4.0446-9.2535-.11937-.88219-.20568-2.1762-.14105-2.1148.026071.0248.11655.39295.20105.81812.69265 3.4847 2.3683 6.6724 4.8762 9.2762.60411.62721 1.4883 1.4125 1.5904 1.4125.10131 0 .01232-.14367-.4284-.69164-1.0471-1.3019-1.981-2.9347-2.5373-4.4361-.50453-1.3616-.92584-3.4069-.91387-4.4363l.00561-.48247.1478.6545c.4635 2.0526 1.1531 3.6983 2.2498 5.3691.62997.95974 1.0668 1.4974 1.9317 2.3777.75354.76692 1.2065 1.1596 1.2674 1.0988.02274-.02274-.18532-.33567-.46236-.6954-.6558-.85153-1.0883-1.5541-1.5524-2.5215-.68204-1.4219-1.1333-3.0528-1.2043-4.3524l-.033961-.62177.19172.68722c.75895 2.7204 1.9081 4.6901 3.7897 6.4959.55146.52922.73219.65725.73219.51867 0-.0297-.13682-.22851-.30405-.44178-.97197-1.2396-1.7192-2.7174-2.084-4.1214-.17182-.66131-.3944-2.047-.33789-2.1035.0191-.0191.08229.13778.14042.34864.61318 2.2242 1.5678 3.9035 3.0542 5.3727 2.2053 2.1798 4.8851 3.291 7.9334 3.2896 1.0576-.000458 2.2219-.12542 2.3485-.25206.04645-.04645-.10826-.42145-.49514-1.2002-.30949-.62292-.71201-1.5369-.89449-2.0311-.78422-2.1238-1.3107-4.6797-1.3107-6.3631v-.53913l-1.1744-1.5647c-.64593-.86058-1.2923-1.6972-1.4363-1.8592-.25291-.28443-.26747-.29116-.42501-.19635-1.4017.84357-1.851 1.0523-2.8527 1.325-.73549.20025-2.0626.19804-2.812-.0047-2.125-.57486-4.144-2.397-5.2129-4.7044-.41104-.88736-.59506-1.2377-.86965-1.6555-.33238-.50572-1.4338-1.5929-2.1565-2.1286-.71438-.52956-.72955-.48332.28943-.88172.82694-.32332 1.6319-.54147 2.7039-.73283 1.1067-.19754 3.582-.21569 4.658-.03416 3.2851.55422 5.5545 1.9816 6.4147 4.0345.29891.71338.40991 1.4197.36561 2.3264-.02115.43292-.08371.94912-.13901 1.1471-.18129.649-.21059.59867.96145 1.6513.58496.52534 1.1651 1.0608 1.2891 1.19.12405.12917.26339.23486.30964.23486.11039 0 .1285-.10944.21626-1.3065.11719-1.5986.39839-3.0353.77993-3.9847l.14058-.34983-.60054-.61105c-.71937-.73195-1.0873-1.2389-1.4711-2.0272-.45687-.93828-.56816-1.4554-.57048-2.6507-.0014-.72247.0297-1.1527.10808-1.4947.46622-2.0346 1.509-3.8092 3.3474-5.6965 1.7801-1.8275 3.8748-3.2495 6.1719-4.1897.76623-.31361 1.8845-.66794 2.4173-.76593.13657-.025119.26304-.066244.28104-.091388.018-.025144.12484-.063617.23742-.085494.2025-.03935.20507-.036474.23969.26787.01925.16921.09485.71998.16801 1.2239.26767 1.8439.3563 4.5083.20464 6.1523-.20968 2.2729-.82961 4.5691-1.6168 5.9886-1.4798 2.6685-3.6154 4.1286-6.8578 4.6886l-.32725.05652-.1121.44888c-.37987 1.521-.57846 3.399-.62173 5.8793-.05692 3.2629.21159 5.2435.99706 7.3544.39234 1.0544 1.1433 2.437 1.414 2.6035.14197.0873.6406-.11743 1.548-.63557 2.5998-1.4846 4.5562-3.9572 5.3231-6.7276.11292-.40795.22902-.78579.25799-.83965.08259-.15353-.0031.68639-.14184 1.3906-.33908 1.7209-1.054 3.2696-2.2207 4.8108-.17832.23556-.32422.45334-.32422.48397 0 .13245.15673.02308.69396-.48427 1.8397-1.7373 3.1423-3.9643 3.7997-6.4959l.22095-.85084-.03122.62457c-.11278 2.2564-1.2101 5.0149-2.7912 7.0167-.76231.96513-.53995.91894.52062-.10814 2.2881-2.2158 3.7012-4.7431 4.4684-7.9912.14452-.61188.15594-.63545.17541-.36199.05808.81569-.39717 3.1049-.89079 4.4793-.52965 1.4747-1.5238 3.2225-2.5618 4.5038-.86746 1.0708-.45306.871.84478-.40721 2.7508-2.7092 4.5946-6.1803 5.2409-9.8665.04576-.26098.10401-.47451.12943-.47451.09964 0-.07981 1.9986-.27033 3.0107-.5796 3.0791-1.9385 5.951-3.9732 8.3973-.26356.31686-.4689.60697-.45633.64469.03458.10373.64589-.40295 1.5473-1.2824 3.3753-3.2934 5.4505-7.2699 6.3036-12.079l.08707-.49087.02099.45815c.0289.63078-.09524 1.974-.28726 3.1083-1.3687 8.085-7.2728 14.718-15.18 17.053-.99255.29311-2.4385.5873-3.5351.71924-.82851.09969-3.2053.17446-3.8607.12146z" fill="#80a65d"/>
  <path d="m21.893 42.61c-2.5991-.16034-4.7023-.61696-6.9377-1.5062-4.0757-1.6213-7.5283-4.4096-9.9541-8.0387-2.1778-3.2581-3.4628-7.1277-3.5951-10.826l-.0318-.88868.22862 1.0472c.81708 3.7426 2.154 6.5842 4.4496 9.4575 1.022 1.2792 3.0843 3.2703 3.3096 3.1952.039971-.01332-.18282-.33273-.4951-.70979-1.5683-1.8937-2.8399-4.2708-3.5327-6.6041-.37695-1.2696-.69406-3.2234-.68029-4.1915.00682-.47924.0087-.48471.068198-.1983.69949 3.3669 1.8113 5.8282 3.734 8.2658.87118 1.1045 2.9321 3.0781 2.9321 2.8079 0-.03308-.22343-.33664-.4965-.67456-1.5001-1.8563-2.6328-4.1619-3.1314-6.374-.19006-.84318-.36651-2.1206-.35983-2.605.00435-.31589.016406-.28871.1683.37969.52966 2.3307 1.688 4.7259 3.1707 6.5565.22814.28166.71042.80813 1.0717 1.1699 1.206 1.2076 1.5795 1.3583.76128.30719-1.5984-2.0533-2.6375-4.6214-2.7872-6.8882l-.036743-.55632.2253.7854c.32095 1.1188.52416 1.6589.96046 2.5525.4198.85986 1.0423 1.8325 1.6319 2.5495.52813.64235 1.7253 1.8029 1.8598 1.8029.13502 0 .12973-.0093-.39218-.68722-1.2323-1.6008-2.1122-3.7638-2.2231-5.465-.02508-.38468-.02078-.40348.04485-.19635.34424 1.0864.57233 1.6988.84102 2.258 1.5642 3.2555 4.6958 5.617 8.3011 6.2596 1.1916.2124 3.0993.18741 4.1186-.05395.20703-.04902.18587-.20959-.08953-.67948-.37871-.64618-.96959-1.997-1.3334-3.0484-.65365-1.889-1.0731-3.9216-1.1519-5.582l-.044811-.94446-.94904-1.2808c-1.1458-1.5463-1.8196-2.3607-1.9531-2.3607-.05459 0-.19302.07011-.30761.15581-.63697.47635-1.8148 1.011-2.7081 1.2293-.72628.17747-1.9282.19278-2.5882.03297-1.1931-.28893-2.2728-.90295-3.2652-1.857-1.0558-1.0149-1.7295-1.9713-2.2958-3.259-.39404-.89598-.73709-1.416-1.3999-2.1223-.456-.48587-1.5799-1.4485-1.906-1.6324-.1687-.09517-.069493-.16973.62313-.46834 1.7315-.74649 4.4851-1.131 6.5903-.92017 4.0557.40608 6.8322 2.1823 7.5282 4.8159.22216.84064.1908 2.096-.07597 3.0411l-.10096.35768.31872.29682c1.419 1.3214 2.3945 2.1692 2.465 2.1422.05863-.0225.10747-.34531.16185-1.0697.13103-1.7455.40445-3.2085.7708-4.1242l.17034-.42576-.5844-.59993c-.69839-.71694-1.031-1.153-1.3813-1.8107-1.613-3.029-.41142-7.0254 3.1388-10.439 2.2129-2.1279 5.0458-3.7597 7.7132-4.4429.46729-.1197.834-.23325.8149-.25234-.01909-.019093.06558-.046424.18816-.060734.20081-.023443.22334-.009602.22759.13978.0026.091187.05192.43789.10962.77044.43095 2.4838.47121 5.9602.09494 8.1982-.30466 1.8121-.70862 3.093-1.3888 4.4039-.90847 1.7508-2.2825 3.1129-3.9391 3.905-.69308.33139-1.816.68547-2.5853.81522-.38384.06474-.65049.14357-.69682.20602-.10114.1363-.38649 1.6617-.54483 2.9126-.17049 1.3468-.28464 3.7886-.23236 4.9705.13978 3.1601.77754 5.6751 1.929 7.6066.35607.59732.47169.74204.60569.75812.23308.02797 1.7108-.73864 2.4655-1.2791 1.1497-.82322 2.2166-1.9348 2.9691-3.0932.66785-1.0281.97178-1.7232 1.5454-3.5343.12716-.40147.02453.68165-.12422 1.311-.39789 1.6835-1.0413 3.0543-2.0859 4.4435-.25504.33921-.46372.64214-.46372.67316 0 .21757 1.3245-1.0319 2.0264-1.9117 1.182-1.4814 2.0922-3.3159 2.5329-5.1051.2213-.89842.27838-.73602.12192.3469-.35034 2.425-1.2018 4.4116-2.7623 6.4447-.74949.97647-.42575.84936.73305-.28781 2.1419-2.1019 3.6188-4.8042 4.3235-7.9109.15168-.6687.19298-.47642.0971.45208-.30852 2.9877-1.5037 5.851-3.468 8.3084-.25466.31859-.46302.60742-.46302.64184 0 .26102 1.9938-1.6385 2.8274-2.6937 1.8909-2.3935 2.985-4.6802 3.6918-7.7156l.22271-.95648-.0327.7854c-.07882 1.8934-.60608 4.0843-1.4595 6.0645-.63851 1.4816-1.5316 2.9374-2.6626 4.3405-1.0152 1.2594-.58636 1.0378 1.0023-.51794 1.0469-1.0252 1.6998-1.7714 2.4516-2.802 1.9425-2.6628 3.32-5.9594 3.8426-9.1959.04214-.26098.09316-.47451.11339-.47451.02022 0 .01685.39689-.0075.88199-.33267 6.6287-3.6406 12.652-9.0862 16.545-2.6774 1.9139-5.9963 3.2451-9.2481 3.7095-1.5211.21723-3.0444.29676-4.2542.22212z" fill="#7aa356"/>
  <path d="m21.107 42.549c-.10799-.014641-.47615-.058481-.81812-.097421-7.0882-.80712-13.452-5.3158-16.656-11.801-1.3777-2.7884-2.0766-5.4596-2.2196-8.4834l-.032499-.68722.097282.42542c.36815 1.61.59053 2.4749.7905 3.0745 1.2035 3.6091 3.3562 6.8965 6.1411 9.378.64345.57336 1.0145.83261 1.0145.70887 0-.03451-.16448-.26352-.3655-.50892-2.5422-3.1032-3.8592-6.1175-4.3163-9.8787-.057397-.47225-.095112-.98766-.083812-1.1454.018151-.25333.038187-.2036.17198.42681.72953 3.4375 2.4986 6.6928 5.0118 9.2224.7232.72791 1.3839 1.2887 1.5184 1.2887.13087 0 .05545-.1299-.35571-.61274-2.033-2.3873-3.3446-5.6094-3.5737-8.7793l-.037846-.5236.25608.98174c.83892 3.2162 2.5235 5.9931 4.8689 8.0259.70492.61098.7739.50602.16746-.25476-1.0062-1.2623-1.8161-2.7574-2.3065-4.258-.30691-.93907-.56458-2.1784-.55932-2.6901.00277-.26965.02496-.22455.223.45323.60862 2.083 1.5162 3.7083 3.0121 5.394.47249.53245 1.297 1.2819 1.4104 1.2819.13202 0 .04964-.14774-.44657-.80088-1.2126-1.5961-2.0341-3.607-2.1996-5.3841l-.03656-.3927.13213.42542c.44345 1.4278 1.0225 2.6296 1.7818 3.6979.58146.81811 1.7862 2.0221 2.6011 2.5994 2.0885 1.4796 4.681 2.2527 7.0999 2.1172.9542-.05346 1.7947-.18439 1.8598-.28971.02727-.04413-.19592-.5654-.51601-1.2051-1.2731-2.5444-2.1578-5.8343-2.1642-8.0482-.0015-.50847-.03142-.851-.08181-.9355-.04372-.07332-.55936-.77543-1.1459-1.5602-1.1068-1.481-1.6059-2.0698-1.7547-2.0698-.04785 0-.27208.12021-.49828.26714-2.9208 1.8973-5.8874 1.6382-8.3922-.73278-.96168-.91031-1.7383-2.0322-2.2811-3.2951-.51153-1.1902-1.4387-2.2983-2.781-3.3238-.33413-.25528-.58284-.48881-.55268-.51897.13399-.13399 1.4316-.60742 2.2074-.80535 1.3538-.34541 2.2367-.45229 3.7306-.45162 1.4571.000655 2.2202.09368 3.5317.43052 1.7039.43762 3.003 1.1292 3.9436 2.0993.83571.86192 1.3036 1.8023 1.4605 2.9353.10444.75438.04955 1.3499-.24428 2.65-.03447.15251-.10726.07805 1.5841 1.6205.57596.52525 1.0959.95557 1.1554.95627.09132.0011.11523-.10873.15296-.70232.1121-1.7636.46393-3.7128.81232-4.5004.07552-.17072.1373-.359.1373-.41842 0-.05941-.1744-.26153-.38756-.44916-.88439-.77848-1.6696-2.0018-2.0053-3.1241-.23613-.78953-.29781-2.2198-.13118-3.0422.70394-3.4741 3.6287-6.9252 7.8281-9.2369 1.2606-.69397 3.2885-1.4504 4.2917-1.6008.17277-.025908.26694-.065698.22168-.093669-.04781-.02955.0021-.060476.12711-.078831.15089-.022146.19704-.007406.173.055253-.01804.047001.01041.32925.06321.62721.52602 2.9683.52176 6.7083-.01052 9.234-.88745 4.2111-2.9259 6.7919-6.2613 7.9272-.54589.18581-1.608.42746-1.8862.42914-.09341.000589-.21654.05262-.27361.11569-.17933.19815-.53273 2.2339-.71294 4.1068-.12729 1.3229-.10828 4.7225.03202 5.7268.2779 1.9894.73309 3.6169 1.3821 4.9414.39934.81503.82564 1.5003.96713 1.5546.12959.04973.95487-.31696 1.699-.7549 2.5168-1.4812 4.4308-3.9375 5.1997-6.673.09854-.35056.19222-.62432.20818-.60836.05656.05656-.12736 1.1252-.31885 1.8527-.40954 1.5558-.9891 2.7132-2.0641 4.1221-.23322.30565-.41023.56953-.39337.58639.08556.08556.35178-.11321.96671-.72182.37254-.36871.84378-.8757 1.0472-1.1267 1.1964-1.4759 2.1424-3.366 2.595-5.1845.09175-.3687.17769-.65949.19098-.6462.04073.04074-.10786 1.1468-.25162 1.8729-.38362 1.9376-1.3631 4.0116-2.6428 5.5959-.20353.25198-.39818.50969-.43255.57268-.24449.44808.88048-.4679 1.714-1.3956 1.8837-2.0965 2.9806-4.1311 3.7201-6.9002.18967-.7102.19234-.71519.1972-.36837.01116.79589-.34258 2.5164-.78894 3.8372-.47423 1.4033-1.62 3.4576-2.5736 4.6142-.55161.66906-.66791.85085-.54432.85085.14808 0 .98483-.74495 1.8366-1.6351 2.3297-2.4346 3.9287-5.4449 4.6629-8.7782.09829-.44626.19337-.8261.21127-.8441.0179-.018.01226.2618-.01255.62177-.25681 3.7267-1.6594 7.3208-3.9691 10.171-.78855.97308-.79416.98081-.76793 1.0595.07132.21396 2.1489-1.7309 3.1787-2.9757 2.2932-2.7718 3.958-6.2401 4.5976-9.5779.07439-.38821.16052-.80893.1914-.93492l.05614-.22907.0068.19963c.02817.83146-.2986 3.3109-.61011 4.6293-.21752.92056-.73505 2.4645-1.1456 3.4178-2.7324 6.3439-8.4135 11.04-15.156 12.527-1.488.32829-2.3379.41286-4.3524.43311-1.0619.01067-2.0191.0074-2.1271-.0072z" fill="#729c4b"/>
  <path d="m21.238 42.548c-3.1311-.31285-5.6568-1.0353-8.1812-2.3401-5.8528-3.0252-9.9267-8.4301-11.255-14.931-.17911-.87697-.36498-2.4449-.35849-3.0242.00393-.35108.020803-.30644.22781.60258.26159 1.1487.39867 1.6264.76068 2.6507.75335 2.1317 2.0489 4.4519 3.4906 6.2512 1.2061 1.5053 3.567 3.726 3.567 3.3552 0-.04596-.25999-.39491-.57775-.77546-2.5009-2.995-3.9384-6.553-4.2291-10.467-.035743-.48134-.031551-.47172.21584.49488.8155 3.1864 2.0457 5.5661 4.1154 7.9608.7834.90643 2.1881 2.2126 2.3796 2.2126.14179 0 .02974-.19914-.40509-.71995-1.4471-1.7332-2.5998-4.0262-3.1375-6.2411-.21637-.89131-.39192-1.9707-.3847-2.3655.00397-.21729.030596-.16036.15662.33485.51202 2.012 1.4597 4.0011 2.6937 5.6538.7411.99256 2.5382 2.8143 2.7762 2.8143.13926 0 .04122-.18889-.33971-.6545-1.146-1.4007-1.9638-2.9592-2.5141-4.7908-.15235-.50711-.42654-1.9782-.41693-2.2369.00596-.16045-.03087-.25922.37753 1.0124.45156 1.406 1.1317 2.7057 2.0635 3.9435.67122.89157 2.0525 2.2681 2.276 2.2681.13432 0 .02154-.20391-.42877-.77518-1.1368-1.4422-2.0649-3.5867-2.2279-5.148l-.04099-.3927.22154.62177c.72358 2.0308 1.5585 3.3566 2.9674 4.7124.90563.87147 1.7272 1.4551 2.8041 1.9922 1.0341.51569 1.7548.76972 2.8404 1.0012.76135.16236.93547.17536 2.2647.16908 1.5107-.0071 2.2202-.09445 2.3421-.28823.04926-.0783-.000459-.2162-.20283-.56272-1.3256-2.2698-2.498-6.3976-2.4989-8.7988l-.000302-.7604-.317-.41769c-.17435-.22973-.65594-.8742-1.0702-1.4322-.81348-1.0957-1.4745-1.898-1.5637-1.898-.03066 0-.26538.13561-.52159.30136-.62732.40581-1.5389.82993-2.2544 1.0489-.53584.16399-.68364.1805-1.6362.18274l-1.0472.0025-.74232-.25408c-1.2458-.42646-2.4313-1.2706-3.3916-2.4151-.75244-.89677-1.0516-1.3869-1.7513-2.8695-.36689-.77741-.68246-1.2273-1.3391-1.9092-.35207-.36561-1.5-1.3302-1.7525-1.4726-.17564-.09906-.076529-.1694.66604-.4727.70564-.28822 1.8018-.58511 2.7803-.75305.83639-.14354 3.0536-.19842 3.9336-.09735 3.9702.45593 6.5872 2.1899 7.2568 4.808.16452.64333.1781 1.8179.02882 2.493-.21889.98991-.31777.78715.93147 1.91.60658.5452 1.2044 1.0969 1.3284 1.226.41482.43163.48867.31468.55034-.87167.08105-1.559.26762-2.5329.84359-4.4035l.07426-.24119-.65052-.67579c-.95406-.99111-1.4298-1.7702-1.7707-2.8997-.15989-.52975-.17834-.69446-.1833-1.6362-.0057-1.0917.05501-1.4979.36711-2.4544 1.2932-3.9633 5.9835-8.0562 10.831-9.4515.4381-.1261.94167-.24853 1.119-.27206l.32249-.04278.03796.2526c.34482 2.2944.43937 3.429.43929 5.2718-.000196 4.4193-1.0691 7.8126-3.1369 9.9579-.74455.77246-1.4354 1.2826-2.3197 1.713-.88428.43038-1.5449.64959-2.4955.82806-.91996.17272-.87593.15723-.94186.33156-.10327.27305-.3995 2.0325-.54301 3.2251-.11854.9851-.14255 1.548-.14656 3.4361-.0052 2.4543.03591 2.9796.36135 4.6142.33644 1.6899 1.0334 3.503 1.7467 4.5438.379.55301.3462.55159 1.3367.05789 2.8047-1.398 4.8523-3.7576 5.8387-6.7288.27239-.82041.30915-.6284.07625.39824-.39888 1.7583-1.1583 3.3434-2.2523 4.7012-.32197.3996-.41256.59468-.27618.59468.10809 0 .8029-.61317 1.3279-1.1718 1.5218-1.6194 2.6312-3.6008 3.2226-5.7549.30973-1.1283.13039.33002-.20391 1.6581-.44207 1.7562-1.3547 3.5573-2.5501 5.0328-.39511.48768-.50065.69409-.35488.69409.1027 0 .90282-.71723 1.5413-1.3816 1.9041-1.9814 3.2857-4.5085 3.9249-7.179.06287-.26268.12882-.4631.14656-.44537.01773.01773-.0023.33574-.04452.70668-.33394 2.9339-1.5906 5.8388-3.5329 8.1668-.48067.57611-.52573.65609-.36968.65609.19106 0 1.4654-1.1586 2.2571-2.052 2.0782-2.3454 3.4275-4.8935 4.1987-7.9291.2231-.87819.24985-.94585.25363-.64149.0023.18714-.04108.6858-.09644 1.1081-.43681 3.3322-1.9014 6.6611-4.0825 9.2792-.916 1.0995-.74332 1.1658.39311.15081 3.5104-3.1352 5.8486-7.1522 6.8653-11.795.18065-.82487.1865-.83884.19179-.45775.0071.50873-.15376 1.8983-.32567 2.8139-1.0522 5.6045-4.2167 10.502-8.8806 13.743-2.3467 1.6311-5.0723 2.812-7.7953 3.3777-1.5043.31249-2.3397.39626-4.166.41774-.97193.01143-1.8849.009-2.0289-.0054zm12.075-42.266c0-.013913.0868-.038036.19289-.053607.10609-.015571.17798-.004187.15976.025296-.03243.052475-.35265.078182-.35265.02831z" fill="#689b44"/>
  <path d="m20.684 42.489c-4.0299-.45978-7.5454-1.845-10.698-4.2152-2.7431-2.0625-4.7917-4.54-6.3774-7.7124-1.1336-2.2681-1.8556-4.8107-2.1044-7.4117-.11593-1.2118-.058245-1.2635.18811-.16845.74948 3.3313 2.2181 6.3184 4.4487 9.0485.88497 1.0831 3.0469 3.1627 3.288 3.1627.13315 0 .046944-.18805-.24069-.52502-2.2923-2.6855-3.6953-5.6366-4.2777-8.9979-.074851-.43197-.15078-1.0505-.16873-1.3744l-.032636-.58905.22536.85084c1.0115 3.819 2.8689 6.8848 5.6963 9.4024.35746.31829.70624.5787.77506.5787.12215 0 .12226-.0045.0046-.18803-.066311-.10342-.32128-.43475-.5666-.73631-1.2417-1.5263-2.2787-3.5078-2.8281-5.4036-.20742-.71577-.47122-2.0936-.51772-2.7041l-.037388-.49087.19069.68722c.78637 2.834 2.1693 5.239 4.1604 7.2353.53991.54132 1.1784 1.0768 1.2839 1.0768.13823 0 .03064-.19756-.40989-.75267-1.3329-1.6796-2.2538-3.6223-2.6362-5.5618-.28034-1.4216-.26099-1.5361.08302-.4913.53325 1.6196 1.3042 3.0638 2.3006 4.3096.63981.79998 1.9172 2.0381 2.1028 2.0381.13488 0 .13509-.0025.01614-.18749-.06631-.10312-.30644-.43208-.53363-.73102-1.0328-1.359-1.6977-2.828-2.0397-4.5062-.18562-.91084-.16282-.92968.13066-.10802 1.405 3.9335 4.5682 6.7132 8.6053 7.5621.9526.20029 2.6988.24851 3.6979.10212.41397-.06066.79255-.14948.8413-.19738.07433-.07304-.0072-.28103-.50507-1.2888-1.3108-2.653-2.1688-5.9216-2.1688-8.2615v-.61824l-.38234-.51335c-.21029-.28234-.72258-.96986-1.1384-1.5278-.41584-.55796-.90417-1.1765-1.0852-1.3744l-.32908-.35997-.1851.10533c-.1018.05793-.39126.23299-.64325.38902-.58106.3598-1.4136.71886-2.1271.91743-.7908.22007-2.1501.22337-2.9125.0071-2.172-.61624-4.3019-2.6454-5.3011-5.0505-.39768-.95722-.71441-1.4123-1.5988-2.297-.45276-.45293-1.0389-.98134-1.3024-1.1742l-.47924-.35073.22614-.11602c1.5105-.77493 3.9225-1.2243 6.1635-1.1482 1.942.06592 3.4716.40573 4.9258 1.0942 1.7449.82617 2.8679 2.0196 3.3552 3.5657.20605.65372.25069 1.837.09753 2.5853-.22726 1.1104-.3619.85209 1.1707 2.2455.73999.67282 1.3899 1.2233 1.4443 1.2233.12503 0 .14974-.12696.1974-1.0145.08208-1.5283.34272-3.0181.69649-3.9813.10803-.29411.21178-.58178.23056-.63926.02225-.0681-.09541-.22771-.33774-.45815-1.5663-1.4895-2.2764-3.0204-2.274-4.9024.0012-.89488.16617-1.853.44853-2.6047.20897-.55633.7437-1.6052 1.1151-2.1874.32465-.50887 1.1359-1.5372 1.4477-1.835l.18884-.18041 9.8094.033564.02084.7854c.06489 2.4457-.60057 5.3902-1.6567 7.3304-1.3518 2.4833-3.551 4.0406-6.3817 4.519-.34197.0578-.66221.14435-.71164.19233-.15322.14876-.46518 1.8964-.66613 3.7316-.11625 1.0617-.15613 4.4095-.06443 5.4092.25567 2.7875.9394 5.0216 2.0852 6.8135.13234.20697.29042.39248.35128.41224.13307.04321.81375-.24256 1.5099-.63391 2.5104-1.4112 4.3662-3.6573 5.29-6.4024.27908-.82931.32452-.76187.12466.18502-.26756 1.2677-.8454 2.718-1.4829 3.7218-.13184.20761-.45969.66562-.72856 1.0178-.26887.35219-.47243.65676-.45236.67684.09204.09204.36621-.09982.96787-.67731 1.7702-1.6991 2.9404-3.6607 3.7198-6.2358l.12876-.42542-.03602.35997c-.01981.19799-.10848.71065-.19704 1.1393-.4163 2.0147-1.2578 3.7953-2.6093 5.5215-.30243.38628-.55064.72442-.55158.75141-.01341.38569 1.8971-1.4225 2.8525-2.6998 1.236-1.6524 2.1514-3.523 2.6502-5.416.11621-.44101.22291-.79023.2371-.77603.06434.06434-.21115 1.7923-.40806 2.5596-.61317 2.3892-1.6483 4.4192-3.2002 6.276-.23739.28402-.43162.54173-.43162.57268 0 .24726.58133-.19808 1.6703-1.2796 2.3581-2.3419 4.0249-5.2701 4.8825-8.5777l.2551-.98381-.03539.55632c-.05661.88992-.21874 1.8578-.48784 2.9125-.70388 2.7586-1.9911 5.228-3.8842 7.4511-.39507.46394-.47604.63198-.30452.63198.12416 0 1.2444-1.0025 2.094-1.874 1.5836-1.6243 2.699-3.1649 3.737-5.1618.8083-1.5549 1.5394-3.5695 1.9119-5.2687.09076-.41397.18092-.81158.20034-.88357.06746-.25003-.03286 1.2477-.13152 1.9635-.91118 6.6108-4.7341 12.328-10.52 15.732-2.336 1.3745-5.1208 2.3204-8.0273 2.7266-1.0649.14882-3.9644.18452-5.0379.06205z" fill="#669841"/>
  <path d="m21.402 42.549c-.12599-.01472-.5236-.05837-.88357-.09699-4.7777-.51265-9.288-2.6681-12.726-6.0816-3.7053-3.6791-5.894-8.4147-6.3221-13.679-.024882-.30598-.029325-.54125-.0098701-.52282.019451.01843.113.37185.20788.7854.87347 3.807 2.6147 7.1039 5.3028 10.041 1.0228 1.1174 2.4245 2.3141 2.5562 2.1824.049218-.04922.011319-.10107-.82581-1.13-2.0807-2.5572-3.4444-5.7539-3.895-9.1302-.14576-1.0922-.11013-1.2449.099247-.42542.90497 3.5419 2.5752 6.4378 5.1597 8.9458.90316.87644 1.3154 1.1996 1.4098 1.1052.07393-.07393.07096-.07839-.62483-.93819-1.4672-1.8131-2.5237-3.9845-3.0241-6.2157-.26012-1.1598-.46928-2.8069-.23782-1.8729.18407.74282.70737 2.1955 1.0493 2.913.71362 1.4973 1.5095 2.6998 2.5922 3.9167.90844 1.021 1.9918 1.9028 1.9904 1.6199-.00013-.027-.21816-.32177-.48449-.65504-1.5218-1.9044-2.624-4.4088-2.8152-6.3972-.036166-.37608-.025666-.35721.24813.44581.51732 1.5173 1.3957 3.119 2.3574 4.299.66141.81147 1.8811 1.9638 2.0786 1.9638.12529 0 .03847-.1869-.25888-.55727-1.0665-1.3284-1.8228-2.7866-2.2009-4.2434-.08549-.32942-.17395-.7462-.19658-.92619-.037-.29426-.01433-.25797.22488.35997 1.5792 4.0794 4.9187 6.7961 9.1303 7.4278 1.3875.20809 4.0252.04802 4.0252-.24427 0-.042-.26248-.60782-.58328-1.2574-1.2401-2.511-2.0406-5.4688-2.1436-7.9205l-.04131-.98354-.43566-.58905c-1.8173-2.4571-2.346-3.1089-2.5221-3.1089-.04628 0-.25686.11521-.46794.25602-2.4491 1.6338-5.031 1.7172-7.2593.23452-1.3709-.91218-2.7525-2.5969-3.3508-4.0861-.52617-1.3096-1.2857-2.2473-2.7876-3.4414-.31169-.24781-.54464-.47027-.51767-.49435.14618-.13052 1.4681-.59986 2.1836-.77526 2.4815-.60834 4.7647-.60856 7.1455-.000687.80248.20489 1.2558.37299 1.9773.73313.8667.43266 1.3348.75789 1.8972 1.3181.71919.71646 1.1666 1.4948 1.414 2.46.1823.71124.10054 2.1855-.173 3.1191-.04874.16637-.1579.05292 1.4385 1.495.78083.70536 1.2827 1.1126 1.3709 1.1126.13031 0 .14219-.04415.18479-.68722.12348-1.8638.32374-3.0429.7205-4.2421l.26667-.80601-.59445-.58547c-.89461-.88109-1.4901-1.8338-1.8253-2.9202-.16429-.5325-.17799-.66376-.17977-1.7218-.0018-1.049.01017-1.1701.14193-1.4399.07912-.16199.14493-.25771.14624-.21271.0019.06484 1.2516.08181 6.0238.08181h6.0214v.1717c0 .26436-.41596 1.4468-.78178 2.2223-1.292 2.739-3.6017 4.5048-6.5486 5.0064-.47751.08128-.78006.1648-.8276.22846-.15143.2028-.54323 2.6675-.6736 4.2374-.10414 1.2541-.08701 4.2962.03009 5.3445.13518 1.2101.44398 2.696.75542 3.6349.45419 1.3693 1.4179 3.1743 1.6948 3.1743.07213 0 .37466-.11319.67229-.25154 2.8702-1.3341 5.1108-3.835 6.089-6.7963.1107-.33512.20885-.60174.21811-.59249.04004.04005-.17222 1.0707-.33576 1.6302-.44426 1.5201-1.1007 2.7723-2.1172 4.0386-.31325.39024-.41004.59707-.27942.59707.22308 0 1.7537-1.5237 2.3998-2.3889.94732-1.2686 1.7099-2.7881 2.1515-4.287.18354-.62299.21759-.49504.07836.29452-.39673 2.2499-1.3622 4.3477-2.8266 6.1418-.23035.2822-.41881.53991-.41881.57268 0 .35715 1.33-.8177 2.4517-2.1657 1.3432-1.6142 2.3952-3.6184 3.0062-5.7268.24927-.86029.29329-.77609.13687.2618-.11724.77788-.46672 2.1374-.74869 2.9125-.52677 1.448-1.5885 3.2841-2.6432 4.5712-.67071.81846-.68546 1.0356-.03545.52178.86762-.68582 2.1112-1.9971 2.941-3.1011 1.4629-1.9463 2.6312-4.3946 3.1368-6.5733.21374-.92102.2697-1.0338.2272-.45815-.06642.89994-.23258 1.8546-.51935 2.9838-.65272 2.5704-1.8695 4.9492-3.6314 7.0994-.36107.44067-.6565.8262-.6565.85674 0 .12995.2163.03539.57014-.24925.46013-.37014 1.5942-1.4585 2.1716-2.0841 2.4816-2.6888 4.4148-6.4392 5.18-10.049.0798-.37647.1586-.69922.17511-.71722.03868-.04218-.02899.72892-.15507 1.7671-.43497 3.5817-1.7822 6.9869-3.9294 9.9322-.71967.98715-1.0486 1.373-2.0135 2.3621-3.4469 3.5334-7.6696 5.6433-12.667 6.3293-.71444.09808-3.7197.1838-4.2542.12135z" fill="#64953d"/>
  <path d="m21.5 42.548c-5.2299-.41197-9.8965-2.4889-13.506-6.0109-2.5391-2.4778-4.2514-5.1648-5.4104-8.49-.51293-1.4716-.94862-3.5612-1.0438-5.0062l-.038132-.57883.25566.98174c.81514 3.1302 2.1876 5.8859 4.1723 8.3776 1.006 1.2629 3.3728 3.519 3.5663 3.3994.10968-.06779.060371-.15367-.4192-.73014-1.6628-1.9988-2.6527-3.7439-3.4492-6.0806-.42048-1.2336-.86345-3.3494-.84438-4.0331.00506-.18142.020126-.15956.10121.14683.88368 3.339 2.4846 6.2017 4.7787 8.5452.73622.75208 1.6371 1.534 1.7673 1.534.17095 0 .08474-.22292-.22582-.58397-1.899-2.2077-3.1541-4.9291-3.5794-7.7609-.13599-.90565-.11935-.9485.088973-.22907.78095 2.697 2.2278 5.1257 4.1749 7.0082.69826.67508 1.1357 1.0421 1.2422 1.0421.17801 0 .08036-.21138-.3261-.70586-1.4583-1.7741-2.4805-3.9926-2.8261-6.1336-.046493-.28798-.07561-.53282-.064705-.54408.010906-.01127.12987.31271.26436.71995.45085 1.3652 1.1115 2.6177 2.0252 3.8395.82504 1.1032 2.113 2.366 2.4132 2.366.05967 0 .10849-.01884.10849-.04187s-.22122-.33048-.49161-.68323c-.8849-1.1544-1.4232-2.1253-1.8522-3.3409-.19318-.54731-.49894-1.8178-.4494-1.8674.01397-.01397.11938.23733.23424.55844 1.3337 3.7284 4.485 6.4573 8.4891 7.3512.57431.12822.82905.14423 2.2511.14151 1.8109-.0035 2.3736-.07951 2.4087-.32557.01088-.07622-.07437-.29712-.18944-.49087-.54554-.91859-1.3125-2.8007-1.7219-4.2252-.48937-1.7031-.7209-3.0211-.79383-4.519l-.04531-.93073-.59253-.80369c-1.705-2.3126-2.1598-2.8654-2.3576-2.8654-.07187 0-.28098.09899-.46469.21997-1.4928.9831-3.1523 1.4557-4.5164 1.2862-1.4992-.1863-2.778-.85381-3.974-2.0744-.97958-.99972-1.7484-2.1079-2.0804-2.9989-.080461-.21592-.23257-.55243-.33803-.74781-.10545-.19538-.19173-.39434-.19173-.44215 0-.07171.99218-.08399 5.6726-.07019l5.6726.01672.14889.29452c.37478.74137.48703 2.1081.25803 3.1416-.21589.97436-.29119.79276.69316 1.6718.48057.42918 1.1002.99435 1.3769 1.2559.2767.26158.52704.47515.55632.4746.16979-.0032.21026-.16406.27976-1.112.13025-1.7766.41831-3.2763.81847-4.2611.0912-.22446.16583-.42236.16583-.4398 0-.01743-.20617-.23063-.45815-.47377-.25198-.24314-.45815-.47415-.45815-.51334 0-.0505 1.0213-.07127 3.5054-.07127 2.2621 0 3.4914.02265 3.466.06386-.02171.03512-.28035.2121-.57477.39328-.75969.46752-2.0209.94822-2.9316 1.1173-.41185.07648-.8128.1511-.891.16583-.21908.04127-.29814.34979-.57718 2.2521-.25756 1.7559-.319 2.6695-.32134 4.7778-.0024 2.1477.05854 2.8465.39144 4.4904.31399 1.5505.77361 2.8468 1.4131 3.9854.44959.80051.61845 1.0145.8006 1.0145.21496 0 1.4728-.63473 2.1662-1.0931 1.344-.88844 2.5014-2.0522 3.3392-3.3575.39253-.61156 1.0182-1.9024 1.2372-2.5525.20238-.60078.21087-.51958.032.30602-.36451 1.6824-1.1366 3.2701-2.2964 4.7222-.36236.45367-.41703.6005-.22362.6005.14164 0 1.1651-.94381 1.7203-1.5863 1.2417-1.4372 2.0712-2.8831 2.6755-4.6641.26871-.79188.29606-.58412.06031.45815-.45862 2.0276-1.4151 3.9856-2.7138 5.5558-.38146.46116-.48576.69468-.31028.69468.13356 0 1.2036-.96483 1.8199-1.6409 1.6727-1.835 2.9168-4.0526 3.5679-6.3596.09894-.35056.18993-.62734.2022-.61507.05816.05816-.20236 1.5405-.40838 2.3236-.57827 2.1981-1.516 4.0664-2.9074 5.7924-.81838 1.0152-.88938 1.1753-.40885.92215.30058-.15838 2.2852-2.123 2.7741-2.7461 1.678-2.1387 2.8455-4.4541 3.5308-7.0024l.19383-.7207-.03798.5236c-.05403.74481-.2005 1.5622-.46914 2.618-.69666 2.738-2.065 5.3239-3.9636 7.4907-.28796.32863-.39988.59234-.25138.59234.13234 0 1.1271-.85543 1.9376-1.6661 2.9171-2.918 4.7747-6.2146 5.8287-10.344.24117-.94486.27182-.8546.12288.36193-.5069 4.1404-2.0193 7.7502-4.5916 10.959-3.4704 4.3293-8.441 7.1005-14.093 7.8567-.72122.0965-3.4026.17702-4.0906.12283z" fill="#619238"/>
  <path d="m21.696 42.545c-1.6503-.13322-2.809-.30974-3.9886-.60764-6.8585-1.7321-12.395-6.6701-14.891-13.28-.54663-1.448-1.0252-3.3996-1.1775-4.8012-.1064-.97975-.073548-1.0631.12355-.31346.87215 3.317 2.4387 6.3036 4.6414 8.8489 1.0851 1.2538 2.8369 2.8666 3.1139 2.8666.12857 0-.011966-.28629-.30658-.62455-1.9822-2.2759-3.5025-5.2786-4.0719-8.0423-.28282-1.3728-.46637-2.9172-.22858-1.9232.16772.70108.65117 2.0938 1.0019 2.8864.85332 1.9282 1.9677 3.612 3.476 5.2521 1.0105 1.0988 2.195 2.0364 2.195 1.7374 0-.03276-.12517-.21438-.27816-.4036-.76932-.95148-.94666-1.188-1.3229-1.7643-.87533-1.3406-1.644-3.0503-1.9984-4.445-.1521-.59852-.39501-1.8636-.38952-2.0286.00186-.05605.1626.3546.3572.91256.5975 1.7132 1.6965 3.7103 2.6991 4.9048.7931.94492 2.2756 2.3601 2.4725 2.3601.19362 0 .08624-.22462-.387-.80956-1.2929-1.5981-2.2598-3.6171-2.6512-5.536-.1977-.96933-.16754-.9899.14828-.1012.66394 1.8683 1.6609 3.4588 3.1048 4.9533.67922.70304 1.2188 1.1315 1.3347 1.0598.09507-.05876.02842-.17174-.5259-.89141-.99834-1.2961-1.6855-2.7098-2.0443-4.2055-.18233-.76008-.15089-.79947.10447-.1309.30651.8025.6723 1.4955 1.261 2.3889.60342.91575 1.8838 2.2269 2.8277 2.8957 1.313.93035 3.0896 1.67 4.6973 1.9558 1.3331.23692 4.0148.14358 4.3081-.14995.07274-.0728-.008-.27804-.48524-1.2327-.68893-1.3783-1.1683-2.6611-1.553-4.1561-.4375-1.7001-.56216-2.4713-.60115-3.7191l-.0344-1.1011-.27685-.37152c-.15227-.20434-.60881-.82803-1.0145-1.386-.96616-1.3287-1.5587-2.0289-1.7169-2.0289-.06877 0-.2188.07031-.33338.15625-.85103.63825-2.5209 1.3041-3.5208 1.4039-1.3369.13342-2.7109-.25202-3.9557-1.1096-.25379-.17485-.54646-.40666-.65038-.51512l-.18894-.19721h8.7097l.25526.18803c.14039.10341.74122.63302 1.3352 1.1769.59396.54389 1.1297.98942 1.1906.99007.06087.000654.13374-.03563.16193-.08062.02819-.045.08391-.54054.12383-1.1012.03992-.56067.09396-1.054.12009-1.0963.06908-.11177 1.7159-.10716 1.7587.0049.01715.045.0073.2574-.02196.47201-.24376 1.7899-.2418 5.3201.0039 6.9402.18884 1.2453.42596 2.2753.73081 3.1743.28594.84326.98413 2.2886 1.3394 2.7728.21772.29671.24911.31595.45972.28177.32342-.05248 1.4526-.63655 2.2074-1.1418 1.9855-1.329 3.602-3.3982 4.3946-5.6252.19154-.53821.20563-.42887.03561.27637-.37321 1.5481-1.1054 3.0842-2.0157 4.2287-.43306.54453-.60609.78813-.60609.85328 0 .30142 1.0712-.56863 1.9375-1.5736 1.0501-1.2183 1.8802-2.6237 2.4855-4.208.37058-.97001.39538-.91408.11893.26822-.23219.99304-.50681 1.7664-.94662 2.6657-.40274.82351-1.1759 2.0387-1.6597 2.6088-.15284.18007-.33008.40808-.39388.50671-.10556.16319-.10646.18298-.01006.21997.15198.05832.47394-.20189 1.4189-1.1467.91449-.91441 1.3668-1.4623 2.0219-2.4491.83322-1.2551 1.4684-2.5978 1.94-4.1011.24752-.78893.27372-.70751.09752.30297-.43902 2.5177-1.6949 5.1979-3.3697 7.191-.51107.60823-.58391.75267-.37958.75267.30567 0 2.2159-1.8656 3.1799-3.1056 1.5144-1.948 2.664-4.2526 3.3154-6.6464.15978-.58715.18201-.6348.15267-.32725-.12433 1.3034-.50711 2.9889-.97458 4.2914-.7175 1.9992-2.0838 4.3292-3.3644 5.7373-.37721.41479-.49385.61371-.39551.67448.10286.06357.4745-.20535 1.2419-.89863 3.0304-2.7379 5.2369-6.2716 6.3672-10.197.16065-.55796.3067-1.0734.32454-1.1454.07556-.30492.04135.33518-.05497 1.0286-.41396 2.98-1.4236 5.8261-2.9465 8.306-3.3493 5.4539-8.946 9.1373-15.244 10.033-1.4048.19973-3.2217.28038-4.3197.19175z" fill="#609036"/>
  <path d="m21.762 42.549c-2.218-.16884-3.7258-.45742-5.6347-1.0784-5.4408-1.7701-10.158-5.9492-12.601-11.165-.76463-1.632-1.4615-3.8413-1.7259-5.4714-.20205-1.2458-.10245-1.2759.28483-.08592.64663 1.9868 1.4113 3.5681 2.6011 5.3792.88788 1.3515 1.5413 2.1431 2.8335 3.4326 1.2357 1.2331 1.8391 1.7365 2.0052 1.6727.13956-.05355.074708-.16049-.51412-.84779-2.0808-2.4288-3.5048-5.528-4.0349-8.7816-.041052-.25198-.084955-.50969-.097559-.57268-.012605-.06299-.00212-.11454.023301-.11454.02542 0 .14277.31661.26079.70358.84691 2.7771 2.6866 5.7594 4.7944 7.7721 1.0016.95643 1.5122 1.3448 1.594 1.2123.05746-.09297-.03169-.23269-.52302-.81965-1.6082-1.9212-2.791-4.4339-3.2731-6.9534-.16105-.84165-.10646-.81411.22585.1139.8571 2.3936 1.957 4.1217 3.7951 5.9629 1.0545 1.0563 1.3188 1.2581 1.461 1.1159.04733-.04733-.08263-.25475-.42445-.67736-1.3137-1.6243-2.25-3.5233-2.6719-5.4197-.18184-.81722-.1484-.89609.09538-.22499.45116 1.242 1.2099 2.6145 2.0601 3.7265.62767.82102 2.114 2.258 2.3355 2.258.18619 0 .08826-.21381-.34701-.75768-.93751-1.1714-1.7524-2.7626-2.0838-4.069-.19203-.75701-.17521-.92052.03491-.33932.08369.2315.31394.73016.51165 1.1081 1.1209 2.1429 2.8511 3.8554 4.9851 4.9342 2.2263 1.1255 4.5608 1.5019 6.9332 1.1178.30483-.04935.59301-.12849.6404-.17588.07125-.07125-.01275-.28422-.48532-1.2305-1.3291-2.6613-2.1747-5.9321-2.1749-8.4122l-5.5e-5-.59216-.46431-.61866c-.71507-.95279-.81136-.85318.80492-.83268l1.3938.01767.0116 1.0799c.02834 2.637.09599 3.4144.45286 5.2032.23548 1.1804.60475 2.2611 1.1405 3.3379.57277 1.1512.84869 1.5381 1.097 1.5381.22789 0 1.5163-.64774 2.2068-1.1094 1.9587-1.3097 3.3907-3.0753 4.3291-5.3373.28161-.67883.27719-.50653-.01287.50126-.39029 1.3561-1.1438 2.7855-2.0841 3.9537-.20088.24957-.3656.49058-.36606.53557-.0018.18257.28214.06063.70108-.30102 1.5029-1.2974 2.9218-3.3189 3.6132-5.1477.47034-1.244.51091-1.2437.20426.0016-.51138 2.0767-1.3707 3.7648-2.7809 5.4629-.32557.39204-.36823.52406-.16934.52406.26745 0 1.8762-1.5628 2.6949-2.618 1.1249-1.4497 2.0307-3.1503 2.6147-4.9087.21712-.65375.23915-.52116.06374.38371-.47655 2.4584-1.6658 4.9429-3.3095 6.9139-.47982.57537-.55268.70708-.43234.78145.10223.06318.84203-.54456 1.7022-1.3984 2.1909-2.1747 3.6715-4.6294 4.7598-7.8915l.15285-.45815-.03244.42542c-.0356.46688-.26082 1.5197-.53205 2.4871-.65152 2.3238-2.14 5.0258-3.7781 6.8583-.6193.6928-.41843.83708.32298.23197.68004-.55502 2.4223-2.3253 2.9843-3.0324 1.3341-1.6784 2.3895-3.4378 3.18-5.3014.2919-.68815.86789-2.359.86789-2.5176 0-.04639.04418-.121.09817-.16582.08287-.06877.09817-.05565.09817.08416 0 .27381-.37738 2.2432-.55273 2.8845-.69468 2.5405-1.9268 5.0412-3.5468 7.198-3.5074 4.67-8.8124 7.7132-14.619 8.3864-.86853.1007-3.0556.17569-3.6979.1268z" fill="#608d34"/>
  <path d="m21.86 42.542c-.23398-.01128-.83776-.06621-1.3417-.12207-8.2855-.91834-15.312-6.6066-17.928-14.514-.30587-.9245-.30477-.96075.029222-.96075h.26354l.27801.57268c1.1312 2.3301 2.5181 4.274 4.3323 6.0719 1.3226 1.3107 2.1275 1.9096 2.1275 1.5829 0-.04655-.14949-.26008-.3322-.47451-1.176-1.3802-1.9009-2.4769-2.6801-4.055-.55447-1.1229-1.1822-2.8108-1.2854-3.4561-.03818-.23876-.031503-.25207.11604-.23121.10322.01459.19366.10017.26549.25121 1.3517 2.8424 2.2119 4.1168 3.981 5.8981 1.0278 1.0349 1.6383 1.5632 1.8064 1.5632.19001 0 .08052-.26823-.28568-.69986-1.1488-1.354-2.0252-2.826-2.6777-4.4975-.44444-1.1385-.81081-2.6174-.61903-2.4989.030771.01902.12301.21956.20498.44565.19075.52612.83577 1.8216 1.2638 2.5382.58845.98521 1.4195 2.0352 2.3363 2.9519.90398.90386 1.377 1.2838 1.5021 1.2065.13353-.08252.06526-.21647-.40635-.79732-1.2495-1.5389-2.2962-3.6521-2.6321-5.3137-.11924-.58996-.10461-.7721.02589-.32219.23257.80184 1.179 2.5679 1.8722 3.4934 1.0826 1.4455 2.7149 2.9054 2.7149 2.4281 0-.04617-.15921-.27576-.35381-.5102-1.0463-1.2605-2.1172-3.3809-2.2948-4.5437-.03216-.21056.0034-.1585.18166.26601 1.2507 2.9782 3.8357 5.3703 6.9175 6.4013 1.0963.36679 1.6204.47598 2.7652.57608 1.4071.12304 3.3215-.07689 3.3742-.35239.0118-.06164-.09492-.31199-.23715-.55632-.70686-1.2143-1.4779-3.2527-1.9454-5.143-.29033-1.174-.5297-2.6095-.45521-2.73.02309-.03736.37325-.06516.82056-.06516.91438 0 .798-.14828.95037 1.2108.2797 2.4948.88156 4.4547 1.8752 6.1065.22634.37625.47555.71352.5538.74948.11631.05346.28154-.0016.90579-.30175 2.41-1.1588 4.3907-3.1254 5.4503-5.4112.52112-1.1242.47823-1.0467.43335-.78308-.08476.49786-.52965 1.7064-.88243 2.3971-.42206.82637-.76556 1.3595-1.3021 2.0207-.42838.52802-.50106.67567-.35934.73005.15062.0578.52171-.2234 1.231-.93279 1.4019-1.4022 2.402-2.9182 3.1171-4.7249.11809-.29837.22407-.53313.2355-.5217.02827.02827-.32665 1.4504-.45356 1.8174-.48951 1.4155-1.4532 3.0934-2.4085 4.1933-.31214.35939-.41089.64942-.22111.64942.26851 0 1.9295-1.6149 2.76-2.6834.84016-1.0809 1.7385-2.638 2.2187-3.8457.41996-1.0562.48267-.83057.1284.46194-.56339 2.0554-1.5579 3.9512-3.0119 5.7417-.30545.37612-.54545.71366-.53332.75008.05672.1704.27259.06784.80649-.38317 1.1354-.95909 2.4494-2.415 3.2377-3.5874.59392-.88328.75844-1.1699 1.4024-2.4427.46996-.92899.62606-1.1825.73826-1.199.07826-.0115.14229.01276.14229.05392s-.10133.43345-.22518.87176c-.63643 2.2523-2.0089 4.7625-3.6289 6.637-.44309.51271-.53593.68635-.40892.76484.10202.06305.61636-.33283 1.457-1.1214 2.1035-1.9733 3.3723-3.6517 4.75-6.2835l.48914-.93442h.25607c.16136 0 .25598.03026.25582.08181-.000589.17709-.59461 1.891-.90741 2.618-.42759.99377-1.1132 2.2638-1.7459 3.2342-4.1352 6.3422-11.391 10.03-19.01 9.6628z" fill="#5d8c31"/>
  <path d="m20.561 42.422c-3.4308-.39364-6.5633-1.522-9.3678-3.3742-1.3191-.87123-2.1671-1.563-3.2772-2.6737-1.2853-1.2859-1.8466-1.9603-2.7542-3.3091l-.39637-.58905 1.5393-.03706.9873.97867c1.5923 1.5783 2.1636 2.0316 2.3394 1.8558.089512-.08951-.00592-.25172-.42716-.726-.5612-.63188-1.4813-1.9061-1.4813-2.0515 0-.02895.27199-.05264.60443-.05264h.60443l.75365.74457c.91529.90425 1.6807 1.5462 1.8437 1.5462.24409 0 .11999-.29104-.37677-.88357-.27161-.32398-.61226-.76576-.75701-.98174l-.26318-.3927 1.007-.03846.53355.51129c.8448.80955 1.3491 1.2058 1.5059 1.1833.2526-.0362.18394-.22183-.28793-.77853-.25658-.3027-.50894-.63136-.5608-.73036l-.09429-.17999h.8363l.67389.62315c.66601.61586.92314.76914 1.0602.63206.08123-.08123-.01122-.24144-.45076-.78108-.15604-.19158-.28371-.37663-.28371-.41122 0-.0346.14099-.0629.3133-.0629.29752 0 .34121.02489.86721.49407 1.5105 1.3474 3.4818 2.3211 5.5169 2.7253 1.1515.22867 3.6921.19968 4.5108-.05146.178-.0546.13799-.30654-.11807-.74343-.26908-.45912-.85543-1.7394-.98295-2.1463l-.08718-.27816h1.3475l.25027.56168c.28038.62925.886 1.6845 1.0957 1.909.07561.08099.19987.14726.27613.14726.20939 0 1.6252-.72222 2.2996-1.1731.32766-.21904.87148-.63376 1.2085-.92159.5806-.49589.62917-.52334.92596-.52334.17227 0 .31322.02548.31322.05662 0 .06593-.19684.33169-.50357.67987-.21386.24276-.27618.46236-.15285.53858.11525.07123.44465-.15443 1.0489-.71856l.59611-.55652h.8514l-.11283.191c-.06206.10505-.31407.43318-.56002.72917-.42553.5121-.52588.72516-.3831.81341.13701.08468.4077-.12449 1.495-1.1552l.61006-.57834h.52281c.39953 0 .51179.01929.47609.08181-.13396.2346-.64988.9283-1.0327 1.3886-.2385.28676-.43364.57484-.43364.64019 0 .38388.49523.04241 1.9074-1.3151l.82744-.79545h.59609c.32785 0 .59609.02615.59609.0581 0 .14032-1.0171 1.5182-1.5757 2.1346-.3968.43785-.49235.68712-.26339.68712.21334 0 .90965-.57844 2.1075-1.7508l1.1536-1.129h.72887c.43685 0 .72887.02593.72887.06473 0 .07679-.90027 1.4118-1.2363 1.8333-2.4186 3.0338-5.3753 5.2608-8.8429 6.6603-1.5616.63028-3.1679 1.0649-4.876 1.3194-1.4736.21953-4.0729.26706-5.5206.10095z" fill="#5b892c"/>
  <path d="m20.7 42.425c-4.028-.45947-7.5092-1.8422-10.686-4.2445-.64282-.48609-1.0472-.83348-1.0472-.89963 0-.03532 5.658-.05935 13.973-.05935 8.0798 0 13.973.02447 13.973.05802 0 .05169-.43978.42316-1.2108 1.0228-.14399.11197-.48269.35325-.75267.53618-2.7973 1.8953-5.7819 3.0344-9.2335 3.5239-1.0429.1479-3.9508.18418-5.0167.06258z" fill="#598629"/>
 </g>
</svg>
