<?xml version="1.0" encoding="UTF-8" standalone="no"?>
<svg
   xmlns:dc="http://purl.org/dc/elements/1.1/"
   xmlns:cc="http://creativecommons.org/ns#"
   xmlns:rdf="http://www.w3.org/1999/02/22-rdf-syntax-ns#"
   xmlns:svg="http://www.w3.org/2000/svg"
   xmlns="http://www.w3.org/2000/svg"
   xmlns:sodipodi="http://sodipodi.sourceforge.net/DTD/sodipodi-0.dtd"
   xmlns:inkscape="http://www.inkscape.org/namespaces/inkscape"
   data-name="Layer 1"
   viewBox="0 0 100 125"
   x="0px"
   y="0px"
   version="1.1"
   id="svg10"
   sodipodi:docname="noun_Plant_2443771.svg"
   inkscape:version="0.92.3 (2405546, 2018-03-11)">
  <metadata
     id="metadata16">
    <rdf:RDF>
      <cc:Work
         rdf:about="">
        <dc:format>image/svg+xml</dc:format>
        <dc:type
           rdf:resource="http://purl.org/dc/dcmitype/StillImage" />
      </cc:Work>
    </rdf:RDF>
  </metadata>
  <defs
     id="defs14" />
  <sodipodi:namedview
     pagecolor="#ffffff"
     bordercolor="#666666"
     borderopacity="1"
     objecttolerance="10"
     gridtolerance="10"
     guidetolerance="10"
     inkscape:pageopacity="0"
     inkscape:pageshadow="2"
     inkscape:window-width="1366"
     inkscape:window-height="745"
     id="namedview12"
     showgrid="false"
     inkscape:zoom="3.776"
     inkscape:cx="54.661903"
     inkscape:cy="53.957152"
     inkscape:window-x="-8"
     inkscape:window-y="307"
     inkscape:window-maximized="1"
     inkscape:current-layer="svg10" />
  <title
     id="title2">49</title>
  <path
     d="M46.06006,54.62781c6.56994-10.46009,17.49-19.87,26.15991-23.59-8.58,6.6499-17.57,17.99-24.69995,28.59H47.3313c-4.43286-11.56555-15.186-28.89929-24.59216-37.71057,6.92663,3.749,15.26733,12.42065,19.88732,21.64233C49.843,14.49377,5,7.2583,5,7.2583,12.2345,17.447,9.449,28.30518,14.54309,39.49951c4.403,9.67542,13.372,12.06861,22.41223,10.096a49.85383,49.85383,0,0,1,3.52161,7.61371,27.68362,27.68362,0,0,1,1.953,10.26953v6.74158c-19.81421.46624-35.2893,4.42382-35.2893,9.23748,0,5.12738,17.55688,9.28394,39.21435,9.28394s39.21436-4.15656,39.21436-9.28394c0-4.81366-15.4751-8.77124-35.28931-9.23748V63.28284a1.06592,1.06592,0,0,1,1.38281-1.02411C62.28943,65.73517,69.272,61.23822,75.72351,50.07764,83.09351,37.32764,85.21,26.8479,95,15.51782,95,15.51782,40.91992,19.35779,46.06006,54.62781Z"
     id="path4"
     style="fill:#00b500;fill-opacity:1" />
</svg>
